SplineFontDB: 3.2
FontName: NotoSerif-Italic
FullName: Noto Serif Italic
FamilyName: Noto Serif
Weight: Book
Copyright: Copyright 2022 The Noto Project Authors https:github.comnotofontslatin-greek-cyrillic
Version: 2.13
ItalicAngle: -12
UnderlinePosition: -256
UnderlineWidth: 102.4
Ascent: 1638
Descent: 410
InvalidEm: 0
sfntRevision: 0x00020354
LayerCount: 2
Layer: 0 0 "Back" 1
Layer: 1 0 "Fore" 0
XUID: [1021 282 2012869056 15621543]
StyleMap: 0x0001
FSType: 0
OS2Version: 4
OS2_WeightWidthSlopeOnly: 1
OS2_UseTypoMetrics: 1
CreationTime: 1633362552
ModificationTime: 1719097429
PfmFamily: 17
TTFWeight: 400
TTFWidth: 5
LineGap: 0
VLineGap: 0
Panose: 2 2 5 2 6 5 5 9 2 4
OS2TypoAscent: 2189
OS2TypoAOffset: 0
OS2TypoDescent: -600
OS2TypoDOffset: 0
OS2TypoLinegap: 0
OS2WinAscent: 2189
OS2WinAOffset: 0
OS2WinDescent: 797
OS2WinDOffset: 0
HheadAscent: 2189
HheadAOffset: 0
HheadDescent: -600
HheadDOffset: 0
OS2SubXSize: 1331
OS2SubYSize: 1229
OS2SubXOff: -33
OS2SubYOff: 154
OS2SupXSize: 1331
OS2SupYSize: 1229
OS2SupXOff: 152
OS2SupYOff: 717
OS2StrikeYSize: 102
OS2StrikeYPos: 659
OS2CapHeight: 1462
OS2XHeight: 1098
OS2Vendor: 'GOOG'
OS2CodePages: 0000019f.00000000
OS2UnicodeRanges: e00002ff.4000201f.08000029.00100000
Lookup: 1 0 0 "'aalt' Access All Alternates lookup 0" { "'aalt' Access All Alternates lookup 0 subtable"  } ['aalt' ('DFLT' <'dflt' > 'cyrl' <'MKD ' 'SRB ' 'dflt' > 'grek' <'APPH' 'IPPH' 'dflt' > 'latn' <'APPH' 'CAT ' 'EWE ' 'IPPH' 'MAH ' 'MOL ' 'NAV ' 'ROM ' 'dflt' > ) ]
Lookup: 3 0 0 "'aalt' Access All Alternates lookup 1" { "'aalt' Access All Alternates lookup 1 subtable"  } ['aalt' ('DFLT' <'dflt' > 'cyrl' <'MKD ' 'SRB ' 'dflt' > 'grek' <'APPH' 'IPPH' 'dflt' > 'latn' <'APPH' 'CAT ' 'EWE ' 'IPPH' 'MAH ' 'MOL ' 'NAV ' 'ROM ' 'dflt' > ) ]

StartChar: .notdef
Encoding: 1114112 -1 0
Width: 1228
GlyphClass: 1
Flags: HW
LayerCount: 2
Fore
SplineSet
193 0 m 1
 193 1462 l 1
 1034 1462 l 1
 1034 0 l 1
 193 0 l 1
297 104 m 1
 930 104 l 1
 930 1358 l 1
 297 1358 l 1
 297 104 l 1
EndSplineSet
EndChar

StartChar: exclam
Encoding: 33 33 4
Width: 681
GlyphClass: 1
Flags: HW
LayerCount: 2
Fore
SplineSet
250 412 m 1
 410 1462 l 1
 647 1462 l 1
 360 412 l 1
 250 412 l 1
238 -16 m 0
 170 -16 123 24 123 96 c 0
 123 213 202 264 270 264 c 0
 338 264 385 226 385 156 c 0
 385 35 314 -16 238 -16 c 0
EndSplineSet
Substitution2: "'smcp' Lowercase to Small Capitals lookup 39 subtable" exclam.sc
Substitution2: "'c2sc' Capitals to Small Capitals lookup 38 subtable" exclam.sc
Substitution2: "'aalt' Access All Alternates lookup 0 subtable" exclam.sc
EndChar

StartChar: quotedbl
Encoding: 34 34 5
Width: 835
GlyphClass: 1
Flags: HW
LayerCount: 2
Fore
SplineSet
268 981 m 1
 309 1462 l 1
 526 1462 l 1
 362 981 l 1
 268 981 l 1
653 981 m 1
 694 1462 l 1
 911 1462 l 1
 748 981 l 1
 653 981 l 1
EndSplineSet
EndChar

StartChar: numbersign
Encoding: 35 35 6
Width: 1144
GlyphClass: 1
Flags: HW
LayerCount: 2
Fore
SplineSet
115 0 m 1
 236 416 l 1
 47 416 l 1
 61 537 l 1
 272 537 l 1
 391 938 l 1
 168 938 l 1
 180 1059 l 1
 426 1059 l 1
 543 1462 l 1
 668 1462 l 1
 549 1059 l 1
 834 1059 l 1
 952 1462 l 1
 1075 1462 l 1
 956 1059 l 1
 1145 1059 l 1
 1133 938 l 1
 922 938 l 1
 805 537 l 1
 1028 537 l 1
 1014 416 l 1
 766 416 l 1
 645 0 l 1
 522 0 l 1
 643 416 l 1
 358 416 l 1
 238 0 l 1
 115 0 l 1
397 537 m 1
 682 537 l 1
 799 938 l 1
 514 938 l 1
 397 537 l 1
EndSplineSet
EndChar

StartChar: dollar
Encoding: 36 36 7
Width: 1144
GlyphClass: 1
Flags: HW
LayerCount: 2
Fore
SplineSet
412 76 m 1
 181 92 49 207 49 352 c 0
 49 475 152 520 207 520 c 1
 207 340 293 207 432 178 c 1
 539 680 l 1
 377 762 268 862 268 1030 c 0
 268 1278 456 1391 694 1401 c 1
 727 1556 l 1
 829 1556 l 1
 797 1401 l 1
 981 1387 1092 1313 1092 1196 c 0
 1092 1112 1041 1055 926 1055 c 1
 926 1155 899 1282 776 1309 c 1
 672 817 l 1
 694 805 l 2
 878 707 979 623 979 469 c 0
 979 221 772 86 512 74 c 1
 463 -162 l 1
 360 -162 l 1
 412 76 l 1
674 1311 m 1
 547 1293 459 1202 459 1059 c 0
 459 975 494 917 580 864 c 1
 674 1311 l 1
535 174 m 1
 697 188 784 293 784 424 c 0
 784 520 735 580 633 635 c 1
 535 174 l 1
EndSplineSet
EndChar

StartChar: percent
Encoding: 37 37 8
Width: 1835
GlyphClass: 1
Flags: HW
LayerCount: 2
Fore
SplineSet
399 575 m 0
 237 575 135 680 135 901 c 0
 135 1128 266 1481 565 1481 c 0
 755 1481 838 1350 838 1155 c 0
 838 942 704 575 399 575 c 0
342 0 m 1
 1370 1462 l 1
 1513 1462 l 1
 494 0 l 1
 342 0 l 1
408 659 m 0
 580 659 668 1008 668 1188 c 0
 668 1321 639 1399 557 1399 c 0
 385 1399 297 1050 297 870 c 0
 297 737 326 659 408 659 c 0
1305 -16 m 0
 1143 -16 1040 88 1040 309 c 0
 1040 536 1171 889 1470 889 c 0
 1660 889 1743 758 1743 563 c 0
 1743 350 1610 -16 1305 -16 c 0
1313 68 m 0
 1485 68 1573 416 1573 596 c 0
 1573 729 1544 807 1462 807 c 0
 1290 807 1202 459 1202 279 c 0
 1202 146 1231 68 1313 68 c 0
EndSplineSet
EndChar

StartChar: ampersand
Encoding: 38 38 9
Width: 1519
GlyphClass: 1
Flags: HW
LayerCount: 2
Fore
SplineSet
520 -20 m 0
 215 -20 72 151 72 362 c 0
 72 630 269 741 502 829 c 1
 439 935 403 1034 403 1130 c 0
 403 1363 564 1483 840 1483 c 0
 1080 1483 1186 1367 1186 1217 c 0
 1186 986 1034 924 739 813 c 1
 1026 420 l 1
 1087 535 1130 663 1155 782 c 2
 1171 862 l 1
 1540 862 l 1
 1522 776 l 1
 1503 776 l 2
 1411 776 1321 762 1260 637 c 0
 1215 545 1164 432 1096 326 c 1
 1208 172 l 2
 1253 113 1300 86 1409 86 c 2
 1427 86 l 1
 1409 0 l 1
 1096 0 l 1
 973 170 l 1
 864 59 721 -20 520 -20 c 0
682 895 m 1
 911 983 999 1050 999 1202 c 0
 999 1304 936 1382 825 1382 c 0
 684 1382 600 1305 600 1145 c 0
 600 1069 625 991 682 895 c 1
541 94 m 0
 697 94 817 160 909 258 c 1
 561 741 l 1
 352 645 274 551 274 367 c 0
 274 211 371 94 541 94 c 0
EndSplineSet
Substitution2: "'smcp' Lowercase to Small Capitals lookup 39 subtable" ampersand.sc
Substitution2: "'c2sc' Capitals to Small Capitals lookup 38 subtable" ampersand.sc
Substitution2: "'aalt' Access All Alternates lookup 0 subtable" ampersand.sc
EndChar

StartChar: quotesingle
Encoding: 39 39 10
Width: 450
GlyphClass: 1
Flags: HW
LayerCount: 2
Fore
SplineSet
260 981 m 1
 301 1462 l 1
 518 1462 l 1
 354 981 l 1
 260 981 l 1
EndSplineSet
EndChar

StartChar: parenleft
Encoding: 40 40 11
Width: 708
GlyphClass: 1
Flags: HW
LayerCount: 2
Fore
SplineSet
449 -262 m 1
 193 -151 86 96 86 381 c 0
 86 879 330 1423 836 1556 c 1
 815 1464 l 1
 383 1231 279 568 279 285 c 0
 279 111 326 -68 469 -168 c 1
 449 -262 l 1
EndSplineSet
Substitution2: "'smcp' Lowercase to Small Capitals lookup 39 subtable" parenleft.sc
Substitution2: "'c2sc' Capitals to Small Capitals lookup 38 subtable" parenleft.sc
Substitution2: "'sups' Superscript lookup 25 subtable" uni207D
Substitution2: "'sinf' Scientific Inferiors lookup 24 subtable" uni208D
Substitution2: "'subs' Subscript lookup 23 subtable" uni208D
AlternateSubs2: "'aalt' Access All Alternates lookup 1 subtable" uni208D uni207D parenleft.sc
EndChar

StartChar: parenright
Encoding: 41 41 12
Width: 708
GlyphClass: 1
Flags: HW
LayerCount: 2
Fore
SplineSet
-80 -186 m 1
 352 47 457 710 457 993 c 0
 457 1167 409 1346 266 1446 c 1
 287 1540 l 1
 543 1429 649 1182 649 897 c 0
 649 399 406 -146 -100 -279 c 1
 -80 -186 l 1
EndSplineSet
Substitution2: "'smcp' Lowercase to Small Capitals lookup 39 subtable" parenright.sc
Substitution2: "'c2sc' Capitals to Small Capitals lookup 38 subtable" parenright.sc
Substitution2: "'sups' Superscript lookup 25 subtable" uni207E
Substitution2: "'sinf' Scientific Inferiors lookup 24 subtable" uni208E
Substitution2: "'subs' Subscript lookup 23 subtable" uni208E
AlternateSubs2: "'aalt' Access All Alternates lookup 1 subtable" uni208E uni207E parenright.sc
EndChar

StartChar: asterisk
Encoding: 42 42 13
Width: 1024
GlyphClass: 1
Flags: HW
LayerCount: 2
Fore
SplineSet
678 764 m 1
 504 801 l 1
 623 1106 l 1
 274 981 l 1
 238 1153 l 1
 596 1182 l 1
 281 1354 l 1
 385 1497 l 1
 651 1237 l 1
 668 1567 l 1
 842 1530 l 1
 719 1225 l 1
 1069 1348 l 1
 1106 1176 l 1
 745 1149 l 1
 1063 979 l 1
 961 840 l 1
 690 1092 l 1
 678 764 l 1
EndSplineSet
EndChar

StartChar: plus
Encoding: 43 43 14
Width: 1144
GlyphClass: 1
Flags: HW
LayerCount: 2
Fore
SplineSet
510 293 m 1
 510 672 l 1
 133 672 l 1
 133 793 l 1
 510 793 l 1
 510 1171 l 1
 633 1171 l 1
 633 793 l 1
 1012 793 l 1
 1012 672 l 1
 633 672 l 1
 633 293 l 1
 510 293 l 1
EndSplineSet
Substitution2: "'sups' Superscript lookup 25 subtable" uni207A
Substitution2: "'sinf' Scientific Inferiors lookup 24 subtable" uni208A
Substitution2: "'subs' Subscript lookup 23 subtable" uni208A
AlternateSubs2: "'aalt' Access All Alternates lookup 1 subtable" uni208A uni207A
EndChar

StartChar: comma
Encoding: 44 44 15
Width: 512
GlyphClass: 1
Flags: HW
LayerCount: 2
Fore
SplineSet
-49 -213 m 1
 88 -182 160 -123 160 -41 c 0
 160 33 27 32 27 141 c 0
 27 221 84 262 154 262 c 0
 240 262 313 200 313 94 c 0
 313 -92 197 -248 -57 -299 c 1
 -49 -213 l 1
EndSplineSet
EndChar

StartChar: hyphen
Encoding: 45 45 16
Width: 634
GlyphClass: 1
Flags: HW
LayerCount: 2
Fore
SplineSet
29 481 m 1
 61 635 l 1
 594 635 l 1
 561 481 l 1
 29 481 l 1
EndSplineSet
EndChar

StartChar: period
Encoding: 46 46 17
Width: 512
GlyphClass: 1
Flags: HW
LayerCount: 2
Fore
SplineSet
168 -16 m 0
 100 -16 53 25 53 88 c 0
 53 213 133 264 201 264 c 0
 269 264 315 225 315 164 c 0
 315 35 244 -16 168 -16 c 0
EndSplineSet
EndChar

StartChar: slash
Encoding: 47 47 18
Width: 589
GlyphClass: 1
Flags: HW
LayerCount: 2
Fore
SplineSet
-190 -248 m 1
 651 1556 l 1
 780 1556 l 1
 -61 -248 l 1
 -190 -248 l 1
EndSplineSet
Substitution2: "'frac' Diagonal Fractions lookup 28 subtable" fraction
Substitution2: "'aalt' Access All Alternates lookup 0 subtable" fraction
EndChar

StartChar: zero
Encoding: 48 48 19
Width: 1144
GlyphClass: 1
Flags: HW
LayerCount: 2
Fore
SplineSet
477 -23 m 0
 241 -23 82 149 82 473 c 0
 82 897 274 1485 696 1485 c 0
 913 1485 1085 1342 1085 1016 c 0
 1085 602 901 -23 477 -23 c 0
494 90 m 0
 781 90 887 695 887 1055 c 0
 887 1278 811 1374 676 1374 c 0
 391 1374 281 772 281 414 c 0
 281 187 363 90 494 90 c 0
EndSplineSet
Substitution2: "'zero' Slashed Zero lookup 43 subtable" zero.slash
Substitution2: "'case' Case-Sensitive Forms lookup 40 subtable" zero.lf
Substitution2: "'onum' Oldstyle Figures lookup 37 subtable" zero.tosf
Substitution2: "'pnum' Proportional Numbers lookup 35 subtable" zero.lf
Substitution2: "'frac' Diagonal Fractions lookup 29 subtable" zero.numr
Substitution2: "'dnom' Denominators lookup 27 subtable" zero.dnom
Substitution2: "'numr' Numerators lookup 26 subtable" zero.numr
Substitution2: "'sups' Superscript lookup 25 subtable" uni2070
Substitution2: "'sinf' Scientific Inferiors lookup 24 subtable" uni2080
Substitution2: "'subs' Subscript lookup 23 subtable" uni2080
AlternateSubs2: "'aalt' Access All Alternates lookup 1 subtable" uni2070 zero.lf zero.tosf uni2080 zero.dnom zero.numr
EndChar

StartChar: one
Encoding: 49 49 20
Width: 1144
GlyphClass: 1
Flags: HW
LayerCount: 2
Fore
SplineSet
78 0 m 1
 94 86 l 1
 203 86 l 2
 295 86 376 104 403 233 c 2
 563 987 l 2
 586 1093 612 1203 639 1309 c 1
 631 1309 l 1
 494 1176 410 1096 322 1096 c 0
 265 1096 240 1143 240 1206 c 1
 334 1231 419 1264 575 1364 c 2
 741 1470 l 1
 872 1470 l 1
 608 225 l 2
 604 209 600 180 600 168 c 0
 600 98 662 86 748 86 c 2
 858 86 l 1
 840 0 l 1
 78 0 l 1
EndSplineSet
Substitution2: "'case' Case-Sensitive Forms lookup 40 subtable" one.lf
Substitution2: "'onum' Oldstyle Figures lookup 37 subtable" one.tosf
Substitution2: "'pnum' Proportional Numbers lookup 35 subtable" one.lf
Substitution2: "'frac' Diagonal Fractions lookup 29 subtable" one.numr
Substitution2: "'dnom' Denominators lookup 27 subtable" one.dnom
Substitution2: "'numr' Numerators lookup 26 subtable" one.numr
Substitution2: "'sups' Superscript lookup 25 subtable" uni00B9
Substitution2: "'sinf' Scientific Inferiors lookup 24 subtable" uni2081
Substitution2: "'subs' Subscript lookup 23 subtable" uni2081
AlternateSubs2: "'aalt' Access All Alternates lookup 1 subtable" uni00B9 one.lf one.tosf uni2081 one.dnom one.numr
EndChar

StartChar: two
Encoding: 50 50 21
Width: 1144
GlyphClass: 1
Flags: HW
LayerCount: 2
Fore
SplineSet
-35 0 m 1
 8 166 l 1
 489 600 l 2
 765 848 834 998 834 1174 c 0
 834 1297 766 1380 645 1380 c 0
 469 1380 381 1235 354 1071 c 1
 270 1071 209 1110 209 1202 c 0
 209 1343 370 1483 655 1483 c 0
 911 1483 1042 1368 1042 1184 c 0
 1042 994 892 828 616 578 c 2
 156 164 l 1
 631 164 l 2
 756 164 799 239 834 317 c 2
 848 350 l 1
 934 350 l 1
 852 0 l 1
 -35 0 l 1
EndSplineSet
Substitution2: "'case' Case-Sensitive Forms lookup 40 subtable" two.lf
Substitution2: "'onum' Oldstyle Figures lookup 37 subtable" two.tosf
Substitution2: "'pnum' Proportional Numbers lookup 35 subtable" two.lf
Substitution2: "'frac' Diagonal Fractions lookup 29 subtable" two.numr
Substitution2: "'dnom' Denominators lookup 27 subtable" two.dnom
Substitution2: "'numr' Numerators lookup 26 subtable" two.numr
Substitution2: "'sups' Superscript lookup 25 subtable" uni00B2
Substitution2: "'sinf' Scientific Inferiors lookup 24 subtable" uni2082
Substitution2: "'subs' Subscript lookup 23 subtable" uni2082
AlternateSubs2: "'aalt' Access All Alternates lookup 1 subtable" uni00B2 two.lf two.tosf uni2082 two.dnom two.numr
EndChar

StartChar: three
Encoding: 51 51 22
Width: 1144
GlyphClass: 1
Flags: HW
LayerCount: 2
Fore
SplineSet
391 -20 m 0
 98 -20 -6 82 -6 195 c 0
 -6 291 64 346 150 346 c 1
 150 221 222 92 406 92 c 0
 588 92 739 209 739 438 c 0
 739 606 633 705 451 705 c 2
 362 705 l 1
 383 809 l 1
 449 809 l 2
 678 809 848 963 848 1194 c 0
 848 1303 795 1380 674 1380 c 0
 488 1380 418 1237 383 1075 c 1
 297 1075 231 1106 231 1206 c 0
 231 1374 432 1483 682 1483 c 0
 907 1483 1059 1376 1059 1190 c 0
 1059 1000 921 819 647 770 c 1
 835 750 954 637 954 461 c 0
 954 99 645 -20 391 -20 c 0
EndSplineSet
Substitution2: "'case' Case-Sensitive Forms lookup 40 subtable" three.lf
Substitution2: "'onum' Oldstyle Figures lookup 37 subtable" three.tosf
Substitution2: "'pnum' Proportional Numbers lookup 35 subtable" three.lf
Substitution2: "'frac' Diagonal Fractions lookup 29 subtable" three.numr
Substitution2: "'dnom' Denominators lookup 27 subtable" three.dnom
Substitution2: "'numr' Numerators lookup 26 subtable" three.numr
Substitution2: "'sups' Superscript lookup 25 subtable" uni00B3
Substitution2: "'sinf' Scientific Inferiors lookup 24 subtable" uni2083
Substitution2: "'subs' Subscript lookup 23 subtable" uni2083
AlternateSubs2: "'aalt' Access All Alternates lookup 1 subtable" uni00B3 three.lf three.tosf uni2083 three.dnom three.numr
EndChar

StartChar: four
Encoding: 52 52 23
Width: 1144
GlyphClass: 1
Flags: HW
LayerCount: 2
Fore
SplineSet
262 0 m 1
 279 86 l 1
 369 86 l 2
 461 86 542 104 569 233 c 2
 604 401 l 1
 -29 401 l 1
 -10 485 l 1
 829 1462 l 1
 1026 1462 l 1
 825 516 l 1
 1077 516 l 1
 1053 401 l 1
 801 401 l 1
 764 225 l 2
 760 209 756 180 756 168 c 0
 756 98 817 86 903 86 c 2
 950 86 l 1
 932 0 l 1
 262 0 l 1
627 1061 m 2
 162 516 l 1
 627 516 l 1
 707 899 l 2
 732 1018 768 1169 807 1296 c 1
 762 1226 670 1110 627 1061 c 2
EndSplineSet
Substitution2: "'case' Case-Sensitive Forms lookup 40 subtable" four.lf
Substitution2: "'onum' Oldstyle Figures lookup 37 subtable" four.tosf
Substitution2: "'pnum' Proportional Numbers lookup 35 subtable" four.lf
Substitution2: "'frac' Diagonal Fractions lookup 29 subtable" four.numr
Substitution2: "'dnom' Denominators lookup 27 subtable" four.dnom
Substitution2: "'numr' Numerators lookup 26 subtable" four.numr
Substitution2: "'sups' Superscript lookup 25 subtable" uni2074
Substitution2: "'sinf' Scientific Inferiors lookup 24 subtable" uni2084
Substitution2: "'subs' Subscript lookup 23 subtable" uni2084
AlternateSubs2: "'aalt' Access All Alternates lookup 1 subtable" uni2074 four.lf four.tosf uni2084 four.dnom four.numr
EndChar

StartChar: five
Encoding: 53 53 24
Width: 1144
GlyphClass: 1
Flags: HW
LayerCount: 2
Fore
SplineSet
375 -20 m 0
 111 -20 16 71 16 184 c 0
 16 260 64 311 170 311 c 1
 172 207 217 92 393 92 c 0
 602 92 743 223 743 483 c 0
 743 669 631 762 481 762 c 0
 377 762 315 740 258 717 c 1
 188 731 l 1
 408 1462 l 1
 1092 1462 l 1
 1036 1153 l 1
 950 1153 l 1
 952 1188 956 1233 956 1249 c 0
 956 1278 936 1298 862 1298 c 2
 465 1298 l 1
 330 842 l 1
 375 856 434 874 526 874 c 0
 788 874 956 742 956 498 c 0
 956 203 737 -20 375 -20 c 0
EndSplineSet
Substitution2: "'case' Case-Sensitive Forms lookup 40 subtable" five.lf
Substitution2: "'onum' Oldstyle Figures lookup 37 subtable" five.tosf
Substitution2: "'pnum' Proportional Numbers lookup 35 subtable" five.lf
Substitution2: "'frac' Diagonal Fractions lookup 29 subtable" five.numr
Substitution2: "'dnom' Denominators lookup 27 subtable" five.dnom
Substitution2: "'numr' Numerators lookup 26 subtable" five.numr
Substitution2: "'sups' Superscript lookup 25 subtable" uni2075
Substitution2: "'sinf' Scientific Inferiors lookup 24 subtable" uni2085
Substitution2: "'subs' Subscript lookup 23 subtable" uni2085
AlternateSubs2: "'aalt' Access All Alternates lookup 1 subtable" uni2075 five.lf five.tosf uni2085 five.dnom five.numr
EndChar

StartChar: six
Encoding: 54 54 25
Width: 1144
GlyphClass: 1
Flags: HW
LayerCount: 2
Fore
SplineSet
508 -20 m 0
 295 -20 123 143 123 475 c 0
 123 985 389 1483 823 1483 c 0
 1030 1483 1137 1396 1137 1298 c 0
 1137 1202 1071 1145 958 1145 c 1
 958 1266 944 1384 819 1384 c 0
 614 1384 458 1177 360 782 c 1
 421 825 531 889 662 889 c 0
 900 889 1008 725 1008 530 c 0
 1008 245 846 -20 508 -20 c 0
520 92 m 0
 690 92 805 276 805 518 c 0
 805 690 742 784 621 784 c 0
 515 784 406 723 338 666 c 1
 320 562 309 477 309 399 c 0
 309 186 391 92 520 92 c 0
EndSplineSet
Substitution2: "'case' Case-Sensitive Forms lookup 40 subtable" six.lf
Substitution2: "'onum' Oldstyle Figures lookup 37 subtable" six.tosf
Substitution2: "'pnum' Proportional Numbers lookup 35 subtable" six.lf
Substitution2: "'frac' Diagonal Fractions lookup 29 subtable" six.numr
Substitution2: "'dnom' Denominators lookup 27 subtable" six.dnom
Substitution2: "'numr' Numerators lookup 26 subtable" six.numr
Substitution2: "'sups' Superscript lookup 25 subtable" uni2076
Substitution2: "'sinf' Scientific Inferiors lookup 24 subtable" uni2086
Substitution2: "'subs' Subscript lookup 23 subtable" uni2086
AlternateSubs2: "'aalt' Access All Alternates lookup 1 subtable" uni2076 six.lf six.tosf uni2086 six.dnom six.numr
EndChar

StartChar: seven
Encoding: 55 55 26
Width: 1144
GlyphClass: 1
Flags: HW
LayerCount: 2
Fore
SplineSet
182 0 m 1
 940 1298 l 1
 440 1298 l 2
 366 1298 317 1262 299 1194 c 2
 270 1092 l 1
 184 1092 l 1
 272 1462 l 1
 1188 1462 l 1
 1176 1403 l 1
 375 0 l 1
 182 0 l 1
EndSplineSet
Substitution2: "'case' Case-Sensitive Forms lookup 40 subtable" seven.lf
Substitution2: "'onum' Oldstyle Figures lookup 37 subtable" seven.tosf
Substitution2: "'pnum' Proportional Numbers lookup 35 subtable" seven.lf
Substitution2: "'frac' Diagonal Fractions lookup 29 subtable" seven.numr
Substitution2: "'dnom' Denominators lookup 27 subtable" seven.dnom
Substitution2: "'numr' Numerators lookup 26 subtable" seven.numr
Substitution2: "'sups' Superscript lookup 25 subtable" uni2077
Substitution2: "'sinf' Scientific Inferiors lookup 24 subtable" uni2087
Substitution2: "'subs' Subscript lookup 23 subtable" uni2087
AlternateSubs2: "'aalt' Access All Alternates lookup 1 subtable" uni2077 seven.lf seven.tosf uni2087 seven.dnom seven.numr
EndChar

StartChar: eight
Encoding: 56 56 27
Width: 1144
GlyphClass: 1
Flags: HW
LayerCount: 2
Fore
SplineSet
475 -20 m 0
 186 -20 20 127 20 332 c 0
 20 561 188 660 426 748 c 1
 301 836 225 958 225 1087 c 0
 225 1308 367 1483 715 1483 c 0
 957 1483 1092 1356 1092 1184 c 0
 1092 977 952 870 735 780 c 1
 889 690 995 580 995 414 c 0
 995 115 762 -20 475 -20 c 0
637 829 m 1
 842 917 909 1026 909 1169 c 0
 909 1290 841 1380 698 1380 c 0
 532 1380 422 1276 422 1110 c 0
 422 993 492 907 637 829 c 1
481 80 m 0
 655 80 801 175 801 365 c 0
 801 512 706 600 520 694 c 1
 334 624 217 514 217 328 c 0
 217 176 315 80 481 80 c 0
EndSplineSet
Substitution2: "'case' Case-Sensitive Forms lookup 40 subtable" eight.lf
Substitution2: "'onum' Oldstyle Figures lookup 37 subtable" eight.tosf
Substitution2: "'pnum' Proportional Numbers lookup 35 subtable" eight.lf
Substitution2: "'frac' Diagonal Fractions lookup 29 subtable" eight.numr
Substitution2: "'dnom' Denominators lookup 27 subtable" eight.dnom
Substitution2: "'numr' Numerators lookup 26 subtable" eight.numr
Substitution2: "'sups' Superscript lookup 25 subtable" uni2078
Substitution2: "'sinf' Scientific Inferiors lookup 24 subtable" uni2088
Substitution2: "'subs' Subscript lookup 23 subtable" uni2088
AlternateSubs2: "'aalt' Access All Alternates lookup 1 subtable" uni2078 eight.lf eight.tosf uni2088 eight.dnom eight.numr
EndChar

StartChar: nine
Encoding: 57 57 28
Width: 1144
GlyphClass: 1
Flags: HW
LayerCount: 2
Fore
SplineSet
358 -20 m 0
 137 -20 72 74 72 164 c 0
 72 232 117 283 193 283 c 1
 195 189 246 80 375 80 c 0
 582 80 700 303 809 702 c 1
 739 630 639 563 496 563 c 0
 275 563 150 704 150 903 c 0
 150 1245 397 1483 690 1483 c 0
 919 1483 1065 1337 1065 1079 c 0
 1065 700 882 -20 358 -20 c 0
547 676 m 0
 680 678 781 766 842 850 c 1
 860 922 874 1033 874 1092 c 0
 874 1291 795 1370 684 1370 c 0
 491 1370 354 1128 354 897 c 0
 354 752 430 676 547 676 c 0
EndSplineSet
Substitution2: "'case' Case-Sensitive Forms lookup 40 subtable" nine.lf
Substitution2: "'onum' Oldstyle Figures lookup 37 subtable" nine.tosf
Substitution2: "'pnum' Proportional Numbers lookup 35 subtable" nine.lf
Substitution2: "'frac' Diagonal Fractions lookup 29 subtable" nine.numr
Substitution2: "'dnom' Denominators lookup 27 subtable" nine.dnom
Substitution2: "'numr' Numerators lookup 26 subtable" nine.numr
Substitution2: "'sups' Superscript lookup 25 subtable" uni2079
Substitution2: "'sinf' Scientific Inferiors lookup 24 subtable" uni2089
Substitution2: "'subs' Subscript lookup 23 subtable" uni2089
AlternateSubs2: "'aalt' Access All Alternates lookup 1 subtable" uni2079 nine.lf nine.tosf uni2089 nine.dnom nine.numr
EndChar

StartChar: colon
Encoding: 58 58 29
Width: 585
GlyphClass: 1
Flags: HW
LayerCount: 2
Fore
SplineSet
365 825 m 0
 297 825 250 866 250 938 c 0
 250 1055 329 1106 397 1106 c 0
 465 1106 512 1067 512 997 c 0
 512 876 441 825 365 825 c 0
180 -16 m 0
 112 -16 66 24 66 96 c 0
 66 213 145 264 213 264 c 0
 281 264 328 226 328 156 c 0
 328 35 256 -16 180 -16 c 0
EndSplineSet
EndChar

StartChar: semicolon
Encoding: 59 59 30
Width: 585
GlyphClass: 1
Flags: HW
LayerCount: 2
Fore
SplineSet
365 825 m 0
 297 825 250 866 250 938 c 0
 250 1055 329 1106 397 1106 c 0
 465 1106 512 1067 512 997 c 0
 512 876 441 825 365 825 c 0
-8 -213 m 1
 129 -182 201 -123 201 -41 c 0
 201 33 68 32 68 141 c 0
 68 221 125 262 195 262 c 0
 281 262 354 200 354 94 c 0
 354 -92 238 -248 -16 -299 c 1
 -8 -213 l 1
EndSplineSet
EndChar

StartChar: less
Encoding: 60 60 31
Width: 1144
GlyphClass: 1
Flags: HW
LayerCount: 2
Fore
SplineSet
1012 225 m 1
 133 696 l 1
 133 768 l 1
 1012 1241 l 1
 1012 1104 l 1
 324 731 l 1
 1012 362 l 1
 1012 225 l 1
EndSplineSet
EndChar

StartChar: equal
Encoding: 61 61 32
Width: 1144
GlyphClass: 1
Flags: HW
LayerCount: 2
Fore
SplineSet
133 872 m 1
 133 993 l 1
 1012 993 l 1
 1012 872 l 1
 133 872 l 1
133 469 m 1
 133 590 l 1
 1012 590 l 1
 1012 469 l 1
 133 469 l 1
EndSplineSet
Substitution2: "'sups' Superscript lookup 25 subtable" uni207C
Substitution2: "'sinf' Scientific Inferiors lookup 24 subtable" uni208C
Substitution2: "'subs' Subscript lookup 23 subtable" uni208C
AlternateSubs2: "'aalt' Access All Alternates lookup 1 subtable" uni208C uni207C
EndChar

StartChar: greater
Encoding: 62 62 33
Width: 1144
GlyphClass: 1
Flags: HW
LayerCount: 2
Fore
SplineSet
133 225 m 1
 133 362 l 1
 821 731 l 1
 133 1104 l 1
 133 1241 l 1
 1012 768 l 1
 1012 696 l 1
 133 225 l 1
EndSplineSet
EndChar

StartChar: question
Encoding: 63 63 34
Width: 1024
GlyphClass: 1
Flags: HW
LayerCount: 2
Fore
SplineSet
453 715 m 1
 703 807 868 942 868 1159 c 0
 868 1300 785 1380 670 1380 c 0
 498 1380 441 1246 416 1090 c 1
 320 1090 268 1134 268 1212 c 0
 268 1355 422 1483 682 1483 c 0
 920 1483 1069 1379 1069 1143 c 0
 1069 905 852 753 565 649 c 1
 508 412 l 1
 395 412 l 1
 453 715 l 1
393 -16 m 0
 325 -16 279 24 279 96 c 0
 279 213 358 264 426 264 c 0
 494 264 541 226 541 156 c 0
 541 35 469 -16 393 -16 c 0
EndSplineSet
Substitution2: "'smcp' Lowercase to Small Capitals lookup 39 subtable" question.sc
Substitution2: "'c2sc' Capitals to Small Capitals lookup 38 subtable" question.sc
Substitution2: "'aalt' Access All Alternates lookup 0 subtable" question.sc
EndChar

StartChar: at
Encoding: 64 64 35
Width: 1886
GlyphClass: 1
Flags: HW
LayerCount: 2
Fore
SplineSet
885 -291 m 0
 447 -291 133 -50 133 446 c 0
 133 1026 526 1462 1085 1462 c 0
 1544 1462 1778 1174 1778 803 c 0
 1778 408 1587 158 1376 158 c 0
 1255 158 1174 227 1135 344 c 1
 1124 344 l 1
 1067 238 987 158 848 158 c 0
 682 158 537 268 537 508 c 0
 537 727 682 1083 1059 1083 c 0
 1147 1083 1210 1055 1251 1022 c 1
 1333 1065 l 1
 1382 1065 l 1
 1278 543 l 2
 1274 525 1264 461 1264 406 c 0
 1264 310 1323 266 1389 266 c 0
 1510 266 1653 463 1653 809 c 0
 1653 1167 1413 1358 1073 1358 c 0
 674 1358 295 1012 295 451 c 0
 295 -4 575 -184 905 -184 c 0
 1128 -184 1306 -100 1425 -14 c 1
 1473 -88 l 1
 1338 -190 1137 -291 885 -291 c 0
883 266 m 0
 1022 266 1081 397 1104 522 c 2
 1182 938 l 1
 1166 977 1116 999 1067 999 c 0
 821 999 727 653 727 479 c 0
 727 336 791 266 883 266 c 0
EndSplineSet
EndChar

StartChar: A
Encoding: 65 65 36
Width: 1443
GlyphClass: 2
Flags: HW
AnchorPoint: "Anchor-3" 614 731 basechar 0
AnchorPoint: "Anchor-2" 1597 1462 basechar 0
AnchorPoint: "Anchor-1" 606 0 basechar 0
AnchorPoint: "Anchor-0" 918 1462 basechar 0
LayerCount: 2
Fore
SplineSet
-115 0 m 1
 -98 86 l 1
 -59 86 l 2
 21 86 53 115 131 246 c 2
 844 1462 l 1
 1004 1462 l 1
 1198 195 l 2
 1210 109 1239 86 1319 86 c 2
 1346 86 l 1
 1329 0 l 1
 772 0 l 1
 788 86 l 1
 836 86 l 2
 924 86 983 124 983 190 c 0
 983 213 981 242 979 260 c 2
 946 489 l 1
 410 489 l 1
 285 274 l 2
 258 225 246 189 246 160 c 0
 246 109 282 86 360 86 c 2
 408 86 l 1
 391 0 l 1
 -115 0 l 1
688 969 m 2
 469 592 l 1
 932 592 l 1
 881 950 l 2
 865 1071 850 1176 848 1274 c 1
 805 1176 762 1096 688 969 c 2
EndSplineSet
Substitution2: "'c2sc' Capitals to Small Capitals lookup 38 subtable" a.sc
Substitution2: "Single Substitution lookup 33 subtable" ordfeminine
AlternateSubs2: "'aalt' Access All Alternates lookup 1 subtable" ordfeminine a.sc
Position2: "'cpsp' Capital Spacing lookup 0 subtable" dx=10 dy=0 dh=20 dv=0
EndChar

StartChar: B
Encoding: 66 66 37
Width: 1339
GlyphClass: 2
Flags: HW
AnchorPoint: "Anchor-3" 616 731 basechar 0
AnchorPoint: "Anchor-2" 1493 1462 basechar 0
AnchorPoint: "Anchor-1" 553 0 basechar 0
AnchorPoint: "Anchor-0" 864 1462 basechar 0
LayerCount: 2
Fore
SplineSet
-43 0 m 1
 -27 86 l 1
 0 86 l 2
 92 86 174 104 201 233 c 2
 414 1237 l 2
 418 1253 422 1282 422 1294 c 0
 422 1366 354 1376 274 1376 c 2
 248 1376 l 1
 266 1462 l 1
 797 1462 l 2
 1112 1462 1276 1356 1276 1155 c 0
 1276 930 1130 817 942 774 c 1
 940 766 l 1
 1087 739 1190 639 1190 467 c 0
 1190 168 987 0 600 0 c 2
 -43 0 l 1
688 817 m 2
 946 817 1053 927 1053 1128 c 0
 1053 1282 954 1360 770 1360 c 2
 647 1360 l 1
 530 817 l 1
 688 817 l 2
578 102 m 2
 859 102 969 235 969 481 c 0
 969 637 877 715 682 715 c 2
 510 715 l 1
 379 102 l 1
 578 102 l 2
EndSplineSet
Substitution2: "'c2sc' Capitals to Small Capitals lookup 38 subtable" b.sc
Substitution2: "'aalt' Access All Alternates lookup 0 subtable" b.sc
Position2: "'cpsp' Capital Spacing lookup 0 subtable" dx=10 dy=0 dh=20 dv=0
EndChar

StartChar: C
Encoding: 67 67 38
Width: 1284
GlyphClass: 2
Flags: HW
AnchorPoint: "Anchor-3" 717 731 basechar 0
AnchorPoint: "Anchor-2" 1438 1462 basechar 0
AnchorPoint: "Anchor-1" 629 0 basechar 0
AnchorPoint: "Anchor-0" 944 1462 basechar 0
LayerCount: 2
Fore
SplineSet
672 -20 m 0
 316 -20 106 178 106 528 c 0
 106 1015 440 1483 950 1483 c 0
 1192 1483 1329 1392 1329 1255 c 0
 1329 1157 1247 1096 1128 1096 c 1
 1128 1209 1102 1374 924 1374 c 0
 547 1374 330 875 330 496 c 0
 330 252 452 113 694 113 c 0
 887 113 1003 207 1073 299 c 1
 1089 287 1100 262 1100 231 c 0
 1100 122 973 -20 672 -20 c 0
EndSplineSet
Substitution2: "'c2sc' Capitals to Small Capitals lookup 38 subtable" c.sc
Substitution2: "'aalt' Access All Alternates lookup 0 subtable" c.sc
Position2: "'cpsp' Capital Spacing lookup 0 subtable" dx=10 dy=0 dh=20 dv=0
EndChar

StartChar: D
Encoding: 68 68 39
Width: 1484
GlyphClass: 2
Flags: HW
AnchorPoint: "Anchor-3" 821 731 basechar 0
AnchorPoint: "Anchor-2" 1638 1462 basechar 0
AnchorPoint: "Anchor-1" 627 0 basechar 0
AnchorPoint: "Anchor-0" 938 1462 basechar 0
LayerCount: 2
Fore
SplineSet
-43 0 m 1
 -27 86 l 1
 0 86 l 2
 92 86 174 104 201 233 c 2
 414 1237 l 2
 418 1255 422 1278 422 1294 c 0
 422 1368 348 1376 274 1376 c 2
 248 1376 l 1
 266 1462 l 1
 840 1462 l 2
 1209 1462 1421 1267 1421 905 c 0
 1421 418 1132 0 602 0 c 2
 -43 0 l 1
557 104 m 2
 960 104 1198 445 1198 928 c 0
 1198 1227 1047 1360 809 1360 c 2
 647 1360 l 1
 379 104 l 1
 557 104 l 2
EndSplineSet
Substitution2: "'c2sc' Capitals to Small Capitals lookup 38 subtable" d.sc
Substitution2: "'aalt' Access All Alternates lookup 0 subtable" d.sc
Position2: "'cpsp' Capital Spacing lookup 0 subtable" dx=10 dy=0 dh=20 dv=0
EndChar

StartChar: E
Encoding: 69 69 40
Width: 1275
GlyphClass: 2
Flags: HW
AnchorPoint: "Anchor-3" 627 731 basechar 0
AnchorPoint: "Anchor-2" 1430 1462 basechar 0
AnchorPoint: "Anchor-1" 522 0 basechar 0
AnchorPoint: "Anchor-0" 834 1462 basechar 0
LayerCount: 2
Fore
SplineSet
-43 0 m 1
 -27 86 l 1
 0 86 l 2
 90 86 172 100 199 223 c 2
 412 1229 l 2
 416 1247 418 1264 418 1278 c 0
 418 1364 354 1376 274 1376 c 2
 248 1376 l 1
 266 1462 l 1
 1298 1462 l 1
 1233 1104 l 1
 1126 1104 l 1
 1128 1122 1137 1213 1137 1223 c 0
 1137 1299 1097 1360 991 1360 c 2
 647 1360 l 1
 530 815 l 1
 1024 815 l 1
 1004 715 l 1
 510 715 l 1
 379 102 l 1
 774 102 l 2
 903 102 973 180 1006 270 c 2
 1038 358 l 1
 1145 358 l 1
 1055 0 l 1
 -43 0 l 1
EndSplineSet
Substitution2: "'c2sc' Capitals to Small Capitals lookup 38 subtable" e.sc
Substitution2: "'aalt' Access All Alternates lookup 0 subtable" e.sc
Position2: "'cpsp' Capital Spacing lookup 0 subtable" dx=10 dy=0 dh=20 dv=0
EndChar

StartChar: F
Encoding: 70 70 41
Width: 1208
GlyphClass: 2
Flags: HW
AnchorPoint: "Anchor-3" 627 731 basechar 0
AnchorPoint: "Anchor-2" 1362 1462 basechar 0
AnchorPoint: "Anchor-1" 262 0 basechar 0
AnchorPoint: "Anchor-0" 799 1462 basechar 0
LayerCount: 2
Fore
SplineSet
-43 0 m 1
 -27 86 l 1
 0 86 l 2
 90 86 168 102 199 223 c 2
 414 1237 l 2
 418 1253 422 1282 422 1294 c 0
 422 1364 360 1376 274 1376 c 2
 248 1376 l 1
 266 1462 l 1
 1298 1462 l 1
 1233 1104 l 1
 1126 1104 l 1
 1130 1149 1137 1213 1137 1223 c 0
 1137 1301 1098 1360 983 1360 c 2
 647 1360 l 1
 520 768 l 1
 1014 768 l 1
 993 668 l 1
 500 668 l 1
 408 233 l 2
 404 215 401 196 401 182 c 0
 401 98 465 86 543 86 c 2
 610 86 l 1
 594 0 l 1
 -43 0 l 1
EndSplineSet
Substitution2: "'c2sc' Capitals to Small Capitals lookup 38 subtable" f.sc
Substitution2: "'aalt' Access All Alternates lookup 0 subtable" f.sc
Position2: "'cpsp' Capital Spacing lookup 0 subtable" dx=10 dy=0 dh=20 dv=0
EndChar

StartChar: G
Encoding: 71 71 42
Width: 1462
GlyphClass: 2
Flags: HW
AnchorPoint: "Anchor-3" 768 731 basechar 0
AnchorPoint: "Anchor-2" 1616 1462 basechar 0
AnchorPoint: "Anchor-1" 635 0 basechar 0
AnchorPoint: "Anchor-0" 963 1462 basechar 0
LayerCount: 2
Fore
SplineSet
688 -20 m 0
 303 -20 106 190 106 528 c 0
 106 1056 463 1483 987 1483 c 0
 1278 1483 1419 1383 1419 1262 c 0
 1419 1156 1321 1100 1202 1100 c 1
 1202 1260 1124 1374 944 1374 c 0
 596 1374 330 959 330 496 c 0
 330 260 442 96 725 96 c 0
 803 96 895 109 956 125 c 1
 1024 451 l 2
 1028 467 1032 496 1032 508 c 0
 1032 580 965 590 885 590 c 2
 866 590 l 1
 885 676 l 1
 1430 676 l 1
 1411 590 l 1
 1403 590 l 2
 1327 590 1256 571 1229 442 c 2
 1151 74 l 1
 1001 11 864 -20 688 -20 c 0
EndSplineSet
Substitution2: "'c2sc' Capitals to Small Capitals lookup 38 subtable" g.sc
Substitution2: "'aalt' Access All Alternates lookup 0 subtable" g.sc
Position2: "'cpsp' Capital Spacing lookup 0 subtable" dx=10 dy=0 dh=20 dv=0
EndChar

StartChar: H
Encoding: 72 72 43
Width: 1624
GlyphClass: 2
Flags: HW
AnchorPoint: "Anchor-3" 891 731 basechar 0
AnchorPoint: "Anchor-2" 1778 1462 basechar 0
AnchorPoint: "Anchor-1" 696 0 basechar 0
AnchorPoint: "Anchor-0" 1008 1462 basechar 0
LayerCount: 2
Fore
SplineSet
-43 0 m 1
 -27 86 l 1
 0 86 l 2
 92 86 174 104 201 233 c 2
 414 1237 l 2
 418 1253 422 1282 422 1294 c 0
 422 1364 360 1376 274 1376 c 2
 248 1376 l 1
 266 1462 l 1
 862 1462 l 1
 844 1376 l 1
 817 1376 l 2
 725 1376 645 1358 618 1229 c 2
 530 815 l 1
 1196 815 l 1
 1286 1237 l 2
 1290 1253 1294 1282 1294 1294 c 0
 1294 1364 1233 1376 1147 1376 c 2
 1120 1376 l 1
 1139 1462 l 1
 1735 1462 l 1
 1716 1376 l 1
 1690 1376 l 2
 1598 1376 1518 1358 1491 1229 c 2
 1278 225 l 2
 1274 209 1270 180 1270 168 c 0
 1270 98 1331 86 1417 86 c 2
 1444 86 l 1
 1425 0 l 1
 829 0 l 1
 846 86 l 1
 872 86 l 2
 964 86 1046 104 1073 233 c 2
 1174 713 l 1
 508 713 l 1
 406 225 l 2
 402 209 397 180 397 168 c 0
 397 98 459 86 545 86 c 2
 571 86 l 1
 553 0 l 1
 -43 0 l 1
EndSplineSet
Substitution2: "'c2sc' Capitals to Small Capitals lookup 38 subtable" h.sc
Substitution2: "'aalt' Access All Alternates lookup 0 subtable" h.sc
Position2: "'cpsp' Capital Spacing lookup 0 subtable" dx=10 dy=0 dh=20 dv=0
EndChar

StartChar: I
Encoding: 73 73 44
Width: 751
GlyphClass: 2
Flags: HW
AnchorPoint: "Anchor-3" 410 731 basechar 0
AnchorPoint: "Anchor-2" 905 1462 basechar 0
AnchorPoint: "Anchor-1" 260 0 basechar 0
AnchorPoint: "Anchor-0" 571 1462 basechar 0
LayerCount: 2
Fore
SplineSet
-43 0 m 1
 -27 86 l 1
 0 86 l 2
 92 86 174 104 201 233 c 2
 414 1237 l 2
 418 1253 422 1282 422 1294 c 0
 422 1364 360 1376 274 1376 c 2
 248 1376 l 1
 266 1462 l 1
 862 1462 l 1
 844 1376 l 1
 817 1376 l 2
 725 1376 645 1358 618 1229 c 2
 406 225 l 2
 402 209 397 180 397 168 c 0
 397 98 459 86 545 86 c 2
 571 86 l 1
 553 0 l 1
 -43 0 l 1
EndSplineSet
Substitution2: "'c2sc' Capitals to Small Capitals lookup 38 subtable" i.sc
Substitution2: "'aalt' Access All Alternates lookup 0 subtable" i.sc
Position2: "'cpsp' Capital Spacing lookup 0 subtable" dx=10 dy=0 dh=20 dv=0
EndChar

StartChar: J
Encoding: 74 74 45
Width: 731
GlyphClass: 2
Flags: HW
AnchorPoint: "Anchor-3" 266 485 basechar 0
AnchorPoint: "Anchor-2" 885 1462 basechar 0
AnchorPoint: "Anchor-1" -150 -492 basechar 0
AnchorPoint: "Anchor-0" 561 1462 basechar 0
LayerCount: 2
Fore
SplineSet
-150 -492 m 0
 -224 -492 -268 -483 -317 -469 c 1
 -289 -377 l 1
 -254 -389 -197 -395 -156 -395 c 0
 -15 -395 76 -309 137 -18 c 2
 403 1237 l 2
 407 1253 412 1282 412 1294 c 0
 412 1364 350 1376 264 1376 c 2
 238 1376 l 1
 256 1462 l 1
 852 1462 l 1
 834 1376 l 1
 807 1376 l 2
 715 1376 635 1358 608 1229 c 2
 342 -16 l 2
 272 -340 129 -492 -150 -492 c 0
EndSplineSet
Substitution2: "'c2sc' Capitals to Small Capitals lookup 38 subtable" j.sc
Substitution2: "'aalt' Access All Alternates lookup 0 subtable" j.sc
Position2: "'cpsp' Capital Spacing lookup 0 subtable" dx=10 dy=0 dh=20 dv=0
EndChar

StartChar: K
Encoding: 75 75 46
Width: 1433
GlyphClass: 2
Flags: HW
AnchorPoint: "Anchor-3" 756 731 basechar 0
AnchorPoint: "Anchor-2" 1587 1462 basechar 0
AnchorPoint: "Anchor-1" 600 0 basechar 0
AnchorPoint: "Anchor-0" 911 1462 basechar 0
LayerCount: 2
Fore
SplineSet
-43 0 m 1
 -27 86 l 1
 0 86 l 2
 92 86 172 104 201 233 c 2
 414 1237 l 2
 418 1253 422 1282 422 1294 c 0
 422 1364 360 1376 274 1376 c 2
 248 1376 l 1
 266 1462 l 1
 862 1462 l 1
 844 1376 l 1
 817 1376 l 2
 725 1376 645 1358 618 1229 c 2
 494 664 l 1
 1022 1149 l 2
 1131 1249 1176 1296 1176 1333 c 0
 1176 1368 1153 1378 1085 1378 c 1
 1102 1462 l 1
 1554 1462 l 1
 1538 1378 l 1
 1444 1378 1354 1305 1223 1186 c 2
 850 848 l 1
 1098 250 l 2
 1143 139 1200 86 1292 86 c 2
 1298 86 l 1
 1280 0 l 1
 1251 0 l 2
 1005 0 938 47 883 190 c 2
 684 696 l 1
 473 549 l 1
 406 225 l 2
 402 209 397 180 397 168 c 0
 397 98 459 86 545 86 c 2
 571 86 l 1
 553 0 l 1
 -43 0 l 1
EndSplineSet
Substitution2: "'c2sc' Capitals to Small Capitals lookup 38 subtable" k.sc
Substitution2: "'aalt' Access All Alternates lookup 0 subtable" k.sc
Position2: "'cpsp' Capital Spacing lookup 0 subtable" dx=10 dy=0 dh=20 dv=0
EndChar

StartChar: L
Encoding: 76 76 47
Width: 1275
GlyphClass: 2
Flags: HW
AnchorPoint: "Anchor-3" 717 731 basechar 0
AnchorPoint: "Anchor-2" 1430 1462 basechar 0
AnchorPoint: "Anchor-1" 522 0 basechar 0
AnchorPoint: "Anchor-0" 834 1462 basechar 0
LayerCount: 2
Fore
SplineSet
-41 0 m 1
 -23 86 l 1
 4 86 l 2
 94 86 172 104 201 233 c 2
 414 1237 l 2
 418 1253 422 1282 422 1294 c 0
 422 1364 360 1376 274 1376 c 2
 248 1376 l 1
 266 1462 l 1
 862 1462 l 1
 844 1376 l 1
 817 1376 l 2
 727 1376 648 1360 621 1237 c 2
 379 102 l 1
 782 102 l 2
 907 102 970 199 1001 287 c 2
 1055 440 l 1
 1161 440 l 1
 1055 0 l 1
 -41 0 l 1
EndSplineSet
Substitution2: "'c2sc' Capitals to Small Capitals lookup 38 subtable" l.sc
Substitution2: "'aalt' Access All Alternates lookup 0 subtable" l.sc
Position2: "'cpsp' Capital Spacing lookup 0 subtable" dx=10 dy=0 dh=20 dv=0
EndChar

StartChar: M
Encoding: 77 77 48
Width: 1921
GlyphClass: 2
Flags: HW
AnchorPoint: "Anchor-3" 995 731 basechar 0
AnchorPoint: "Anchor-2" 2075 1462 basechar 0
AnchorPoint: "Anchor-1" 844 0 basechar 0
AnchorPoint: "Anchor-0" 1155 1462 basechar 0
LayerCount: 2
Fore
SplineSet
-41 0 m 1
 -23 86 l 1
 4 86 l 2
 92 86 172 100 199 223 c 2
 414 1237 l 2
 418 1253 422 1282 422 1294 c 0
 422 1364 360 1376 274 1376 c 2
 248 1376 l 1
 266 1462 l 1
 731 1462 l 1
 905 295 l 1
 1575 1462 l 1
 2032 1462 l 1
 2013 1376 l 1
 1987 1376 l 2
 1895 1376 1815 1358 1788 1229 c 2
 1575 225 l 2
 1571 209 1567 180 1567 168 c 0
 1567 98 1628 86 1714 86 c 2
 1741 86 l 1
 1722 0 l 1
 1178 0 l 1
 1196 86 l 1
 1202 86 l 2
 1290 86 1345 102 1376 215 c 2
 1610 1309 l 1
 862 0 l 1
 752 0 l 1
 553 1309 l 1
 324 225 l 2
 320 209 315 180 315 168 c 0
 315 98 377 86 463 86 c 2
 489 86 l 1
 471 0 l 1
 -41 0 l 1
EndSplineSet
Substitution2: "'c2sc' Capitals to Small Capitals lookup 38 subtable" m.sc
Substitution2: "'aalt' Access All Alternates lookup 0 subtable" m.sc
Position2: "'cpsp' Capital Spacing lookup 0 subtable" dx=10 dy=0 dh=20 dv=0
EndChar

StartChar: N
Encoding: 78 78 49
Width: 1562
GlyphClass: 2
Flags: HW
AnchorPoint: "Anchor-3" 825 731 basechar 0
AnchorPoint: "Anchor-2" 1716 1462 basechar 0
AnchorPoint: "Anchor-1" 666 0 basechar 0
AnchorPoint: "Anchor-0" 977 1462 basechar 0
LayerCount: 2
Fore
SplineSet
-41 0 m 1
 -23 86 l 1
 4 86 l 2
 94 86 172 104 201 233 c 2
 414 1237 l 2
 418 1253 422 1282 422 1294 c 0
 422 1364 360 1376 274 1376 c 2
 248 1376 l 1
 266 1462 l 1
 639 1462 l 1
 1135 332 l 1
 1327 1237 l 2
 1331 1253 1335 1282 1335 1294 c 0
 1335 1364 1274 1376 1188 1376 c 2
 1161 1376 l 1
 1180 1462 l 1
 1694 1462 l 1
 1675 1376 l 1
 1649 1376 l 2
 1557 1376 1479 1358 1450 1229 c 2
 1190 0 l 1
 1057 0 l 1
 530 1200 l 1
 324 225 l 2
 320 209 315 180 315 168 c 0
 315 98 377 86 463 86 c 2
 489 86 l 1
 471 0 l 1
 -41 0 l 1
EndSplineSet
Substitution2: "'c2sc' Capitals to Small Capitals lookup 38 subtable" n.sc
Substitution2: "'aalt' Access All Alternates lookup 0 subtable" n.sc
Position2: "'cpsp' Capital Spacing lookup 0 subtable" dx=10 dy=0 dh=20 dv=0
EndChar

StartChar: O
Encoding: 79 79 50
Width: 1519
GlyphClass: 2
Flags: HW
AnchorPoint: "Anchor-3" 838 731 basechar 0
AnchorPoint: "Anchor-2" 1673 1462 basechar 0
AnchorPoint: "Anchor-1" 643 0 basechar 0
AnchorPoint: "Anchor-0" 954 1462 basechar 0
LayerCount: 2
Fore
SplineSet
643 -23 m 0
 340 -23 106 174 106 545 c 0
 106 938 383 1485 926 1485 c 0
 1209 1485 1456 1313 1456 922 c 0
 1456 545 1192 -23 643 -23 c 0
655 90 m 0
 1052 90 1231 645 1231 977 c 0
 1231 1253 1095 1374 909 1374 c 0
 512 1374 330 819 330 487 c 0
 330 208 473 90 655 90 c 0
EndSplineSet
Substitution2: "'c2sc' Capitals to Small Capitals lookup 38 subtable" o.sc
Substitution2: "Single Substitution lookup 33 subtable" ordmasculine
AlternateSubs2: "'aalt' Access All Alternates lookup 1 subtable" ordmasculine o.sc
Position2: "'cpsp' Capital Spacing lookup 0 subtable" dx=10 dy=0 dh=20 dv=0
EndChar

StartChar: P
Encoding: 80 80 51
Width: 1269
GlyphClass: 2
Flags: HW
AnchorPoint: "Anchor-3" 608 731 basechar 0
AnchorPoint: "Anchor-2" 1423 1462 basechar 0
AnchorPoint: "Anchor-1" 262 0 basechar 0
AnchorPoint: "Anchor-0" 829 1462 basechar 0
LayerCount: 2
Fore
SplineSet
-41 0 m 1
 -23 86 l 1
 4 86 l 2
 94 86 174 104 201 233 c 2
 414 1237 l 2
 418 1253 422 1282 422 1294 c 0
 422 1364 360 1376 274 1376 c 2
 248 1376 l 1
 266 1462 l 1
 791 1462 l 2
 1078 1462 1257 1327 1257 1067 c 0
 1257 860 1157 569 631 569 c 2
 479 569 l 1
 406 225 l 2
 402 209 397 180 397 168 c 0
 397 98 459 86 545 86 c 2
 612 86 l 1
 594 0 l 1
 -41 0 l 1
608 666 m 2
 925 666 1040 832 1040 1065 c 0
 1040 1280 936 1364 741 1364 c 2
 647 1364 l 1
 500 666 l 1
 608 666 l 2
EndSplineSet
Substitution2: "'c2sc' Capitals to Small Capitals lookup 38 subtable" p.sc
Substitution2: "'aalt' Access All Alternates lookup 0 subtable" p.sc
Position2: "'cpsp' Capital Spacing lookup 0 subtable" dx=10 dy=0 dh=20 dv=0
EndChar

StartChar: Q
Encoding: 81 81 52
Width: 1519
GlyphClass: 2
Flags: HW
AnchorPoint: "Anchor-3" 780 510 basechar 0
AnchorPoint: "Anchor-2" 1673 1462 basechar 0
AnchorPoint: "Anchor-1" 545 -463 basechar 0
AnchorPoint: "Anchor-0" 954 1462 basechar 0
LayerCount: 2
Fore
SplineSet
924 -463 m 0
 629 -463 540 -266 530 -12 c 1
 284 29 106 221 106 545 c 0
 106 938 383 1485 926 1485 c 0
 1209 1485 1456 1313 1456 922 c 0
 1456 570 1227 56 752 -14 c 1
 764 -266 836 -362 973 -362 c 0
 1030 -362 1073 -354 1112 -344 c 1
 1126 -430 l 1
 1075 -446 1020 -463 924 -463 c 0
655 90 m 0
 1052 90 1231 645 1231 977 c 0
 1231 1253 1095 1374 909 1374 c 0
 512 1374 330 819 330 487 c 0
 330 208 473 90 655 90 c 0
EndSplineSet
Substitution2: "'c2sc' Capitals to Small Capitals lookup 38 subtable" q.sc
Substitution2: "'aalt' Access All Alternates lookup 0 subtable" q.sc
Position2: "'cpsp' Capital Spacing lookup 0 subtable" dx=10 dy=0 dh=20 dv=0
EndChar

StartChar: R
Encoding: 82 82 53
Width: 1359
GlyphClass: 2
Flags: HW
AnchorPoint: "Anchor-3" 614 731 basechar 0
AnchorPoint: "Anchor-2" 1513 1462 basechar 0
AnchorPoint: "Anchor-1" 563 0 basechar 0
AnchorPoint: "Anchor-0" 874 1462 basechar 0
LayerCount: 2
Fore
SplineSet
-41 0 m 1
 -23 86 l 1
 4 86 l 2
 92 86 172 100 199 223 c 2
 414 1237 l 2
 418 1253 422 1282 422 1294 c 0
 422 1364 360 1376 274 1376 c 2
 248 1376 l 1
 266 1462 l 1
 803 1462 l 2
 1118 1462 1272 1347 1272 1114 c 0
 1272 833 1067 725 893 686 c 1
 1040 248 l 2
 1077 137 1116 86 1208 86 c 2
 1225 86 l 1
 1208 0 l 1
 1182 0 l 2
 946 0 872 50 817 240 c 2
 698 645 l 1
 496 645 l 1
 406 225 l 2
 402 209 397 180 397 168 c 0
 397 98 459 86 545 86 c 2
 612 86 l 1
 594 0 l 1
 -41 0 l 1
674 741 m 2
 889 741 1055 844 1055 1102 c 0
 1055 1297 968 1364 786 1364 c 2
 647 1364 l 1
 516 741 l 1
 674 741 l 2
EndSplineSet
Substitution2: "'c2sc' Capitals to Small Capitals lookup 38 subtable" r.sc
Substitution2: "'aalt' Access All Alternates lookup 0 subtable" r.sc
Position2: "'cpsp' Capital Spacing lookup 0 subtable" dx=10 dy=0 dh=20 dv=0
EndChar

StartChar: S
Encoding: 83 83 54
Width: 1114
GlyphClass: 2
Flags: HW
AnchorPoint: "Anchor-3" 573 731 basechar 0
AnchorPoint: "Anchor-2" 1268 1462 basechar 0
AnchorPoint: "Anchor-1" 440 0 basechar 0
AnchorPoint: "Anchor-0" 752 1462 basechar 0
LayerCount: 2
Fore
SplineSet
469 -20 m 0
 170 -20 14 114 14 272 c 0
 14 376 92 428 172 428 c 1
 172 240 270 80 483 80 c 0
 676 80 795 182 795 344 c 0
 795 467 758 541 537 666 c 0
 365 764 246 880 246 1087 c 0
 246 1318 432 1483 743 1483 c 0
 981 1483 1133 1393 1133 1262 c 0
 1133 1178 1077 1120 952 1120 c 1
 952 1233 909 1380 727 1380 c 0
 584 1380 449 1298 449 1122 c 0
 449 972 532 907 702 809 c 0
 907 690 1006 574 1006 410 c 0
 1006 136 803 -20 469 -20 c 0
EndSplineSet
Substitution2: "'c2sc' Capitals to Small Capitals lookup 38 subtable" s.sc
Substitution2: "'aalt' Access All Alternates lookup 0 subtable" s.sc
Position2: "'cpsp' Capital Spacing lookup 0 subtable" dx=10 dy=0 dh=20 dv=0
EndChar

StartChar: T
Encoding: 84 84 55
Width: 1255
GlyphClass: 2
Flags: HW
AnchorPoint: "Anchor-3" 707 731 basechar 0
AnchorPoint: "Anchor-2" 1409 1462 basechar 0
AnchorPoint: "Anchor-1" 512 0 basechar 0
AnchorPoint: "Anchor-0" 823 1462 basechar 0
LayerCount: 2
Fore
SplineSet
188 0 m 1
 207 86 l 1
 254 86 l 2
 344 86 424 100 451 223 c 2
 692 1360 l 1
 496 1360 l 2
 375 1360 322 1282 291 1192 c 2
 262 1104 l 1
 156 1104 l 1
 242 1462 l 1
 1395 1462 l 1
 1329 1104 l 1
 1223 1104 l 1
 1225 1127 1233 1217 1233 1229 c 0
 1233 1301 1202 1360 1098 1360 c 2
 899 1360 l 1
 657 225 l 2
 653 209 649 180 649 168 c 0
 649 98 711 86 797 86 c 2
 844 86 l 1
 825 0 l 1
 188 0 l 1
EndSplineSet
Substitution2: "'c2sc' Capitals to Small Capitals lookup 38 subtable" t.sc
Substitution2: "'aalt' Access All Alternates lookup 0 subtable" t.sc
Position2: "'cpsp' Capital Spacing lookup 0 subtable" dx=10 dy=0 dh=20 dv=0
EndChar

StartChar: U
Encoding: 85 85 56
Width: 1495
GlyphClass: 2
Flags: HW
AnchorPoint: "Anchor-3" 913 721 basechar 0
AnchorPoint: "Anchor-2" 1649 1462 basechar 0
AnchorPoint: "Anchor-1" 631 0 basechar 0
AnchorPoint: "Anchor-0" 942 1462 basechar 0
LayerCount: 2
Fore
SplineSet
662 -20 m 0
 363 -20 197 109 197 334 c 0
 197 377 209 469 219 516 c 2
 371 1237 l 2
 375 1253 379 1282 379 1294 c 0
 379 1364 317 1376 231 1376 c 2
 205 1376 l 1
 223 1462 l 1
 819 1462 l 1
 803 1376 l 1
 776 1376 l 2
 686 1376 604 1358 575 1229 c 2
 422 506 l 2
 408 436 397 372 397 315 c 0
 397 176 506 102 692 102 c 0
 958 102 1051 242 1090 422 c 2
 1264 1237 l 2
 1268 1253 1272 1282 1272 1294 c 0
 1272 1364 1210 1376 1124 1376 c 2
 1098 1376 l 1
 1116 1462 l 1
 1630 1462 l 1
 1614 1376 l 1
 1587 1376 l 2
 1497 1376 1415 1358 1386 1229 c 2
 1214 418 l 2
 1157 146 988 -20 662 -20 c 0
EndSplineSet
Substitution2: "'c2sc' Capitals to Small Capitals lookup 38 subtable" u.sc
Substitution2: "'aalt' Access All Alternates lookup 0 subtable" u.sc
Position2: "'cpsp' Capital Spacing lookup 0 subtable" dx=10 dy=0 dh=20 dv=0
EndChar

StartChar: V
Encoding: 86 86 57
Width: 1382
GlyphClass: 2
Flags: HW
AnchorPoint: "Anchor-3" 868 731 basechar 0
AnchorPoint: "Anchor-2" 1536 1462 basechar 0
AnchorPoint: "Anchor-1" 575 0 basechar 0
AnchorPoint: "Anchor-0" 887 1462 basechar 0
LayerCount: 2
Fore
SplineSet
317 1268 m 2
 305 1354 275 1376 195 1376 c 2
 168 1376 l 1
 186 1462 l 1
 743 1462 l 1
 727 1376 l 1
 680 1376 l 2
 592 1376 532 1338 532 1272 c 0
 532 1249 535 1220 537 1202 c 2
 618 537 l 2
 632 416 639 299 639 201 c 1
 682 299 733 410 805 537 c 2
 1169 1188 l 2
 1196 1237 1208 1274 1208 1303 c 0
 1208 1354 1172 1376 1094 1376 c 2
 1047 1376 l 1
 1063 1462 l 1
 1569 1462 l 1
 1550 1376 l 1
 1511 1376 l 2
 1431 1376 1397 1350 1323 1217 c 2
 641 0 l 1
 492 0 l 1
 317 1268 l 2
EndSplineSet
Substitution2: "'c2sc' Capitals to Small Capitals lookup 38 subtable" v.sc
Substitution2: "'aalt' Access All Alternates lookup 0 subtable" v.sc
Position2: "'cpsp' Capital Spacing lookup 0 subtable" dx=10 dy=0 dh=20 dv=0
EndChar

StartChar: W
Encoding: 87 87 58
Width: 2140
GlyphClass: 2
Flags: HW
AnchorPoint: "Anchor-3" 1243 731 basechar 0
AnchorPoint: "Anchor-2" 2294 1462 basechar 0
AnchorPoint: "Anchor-1" 954 0 basechar 0
AnchorPoint: "Anchor-0" 1266 1462 basechar 0
LayerCount: 2
Fore
SplineSet
332 1268 m 2
 324 1354 289 1376 209 1376 c 2
 182 1376 l 1
 201 1462 l 1
 758 1462 l 1
 739 1376 l 1
 692 1376 l 2
 604 1376 545 1338 545 1272 c 0
 545 1249 547 1220 549 1202 c 2
 598 547 l 2
 608 424 612 299 612 201 c 1
 657 307 714 438 780 569 c 2
 1210 1448 l 1
 1358 1448 l 1
 1425 561 l 2
 1435 426 1438 295 1436 201 c 1
 1479 299 1523 406 1589 537 c 2
 1915 1188 l 2
 1940 1239 1954 1274 1954 1303 c 0
 1954 1354 1917 1376 1839 1376 c 2
 1790 1376 l 1
 1806 1462 l 1
 2306 1462 l 1
 2288 1376 l 1
 2249 1376 l 2
 2169 1376 2128 1352 2060 1217 c 2
 1456 0 l 1
 1268 0 l 1
 1176 1135 l 1
 625 0 l 1
 438 0 l 1
 332 1268 l 2
EndSplineSet
Substitution2: "'c2sc' Capitals to Small Capitals lookup 38 subtable" w.sc
Substitution2: "'aalt' Access All Alternates lookup 0 subtable" w.sc
Position2: "'cpsp' Capital Spacing lookup 0 subtable" dx=10 dy=0 dh=20 dv=0
EndChar

StartChar: X
Encoding: 88 88 59
Width: 1351
GlyphClass: 2
Flags: HW
AnchorPoint: "Anchor-3" 688 731 basechar 0
AnchorPoint: "Anchor-2" 1505 1462 basechar 0
AnchorPoint: "Anchor-1" 559 0 basechar 0
AnchorPoint: "Anchor-0" 870 1462 basechar 0
LayerCount: 2
Fore
SplineSet
-100 0 m 1
 -82 86 l 1
 -74 86 l 2
 8 86 66 120 168 233 c 2
 621 727 l 1
 401 1272 l 2
 370 1350 318 1376 242 1376 c 2
 215 1376 l 1
 233 1462 l 1
 788 1462 l 1
 770 1376 l 1
 723 1376 l 2
 655 1376 627 1356 627 1319 c 0
 627 1292 641 1253 664 1196 c 2
 780 899 l 1
 1036 1192 l 2
 1077 1239 1114 1288 1114 1325 c 0
 1114 1360 1079 1376 1016 1376 c 2
 1010 1376 l 1
 1028 1462 l 1
 1477 1462 l 1
 1458 1376 l 1
 1440 1376 l 2
 1360 1376 1310 1336 1208 1223 c 2
 821 795 l 1
 1067 195 l 2
 1102 111 1157 86 1208 86 c 2
 1235 86 l 1
 1217 0 l 1
 664 0 l 1
 682 86 l 1
 705 86 l 2
 787 86 836 117 836 158 c 0
 836 197 828 223 797 299 c 2
 664 625 l 1
 358 285 l 2
 311 232 276 180 276 141 c 0
 276 102 307 86 397 86 c 2
 403 86 l 1
 385 0 l 1
 -100 0 l 1
EndSplineSet
Substitution2: "'c2sc' Capitals to Small Capitals lookup 38 subtable" x.sc
Substitution2: "'aalt' Access All Alternates lookup 0 subtable" x.sc
Position2: "'cpsp' Capital Spacing lookup 0 subtable" dx=10 dy=0 dh=20 dv=0
EndChar

StartChar: Y
Encoding: 89 89 60
Width: 1280
GlyphClass: 2
Flags: HW
AnchorPoint: "Anchor-3" 815 731 basechar 0
AnchorPoint: "Anchor-2" 1434 1462 basechar 0
AnchorPoint: "Anchor-1" 524 0 basechar 0
AnchorPoint: "Anchor-0" 836 1462 basechar 0
LayerCount: 2
Fore
SplineSet
203 0 m 1
 221 86 l 1
 268 86 l 2
 358 86 438 100 465 223 c 2
 545 600 l 1
 307 1268 l 2
 278 1346 264 1376 184 1376 c 2
 158 1376 l 1
 176 1462 l 1
 729 1462 l 1
 711 1376 l 1
 608 1376 l 2
 553 1376 524 1356 524 1321 c 0
 524 1286 535 1249 551 1202 c 2
 643 928 l 2
 672 844 694 750 698 682 c 1
 729 739 784 807 858 905 c 2
 1049 1159 l 2
 1100 1229 1122 1280 1122 1323 c 0
 1122 1360 1098 1376 1024 1376 c 2
 948 1376 l 1
 967 1462 l 1
 1473 1462 l 1
 1454 1376 l 1
 1415 1376 l 2
 1354 1376 1307 1323 1229 1221 c 2
 752 596 l 1
 672 225 l 2
 668 209 664 180 664 168 c 0
 664 98 725 86 811 86 c 2
 858 86 l 1
 840 0 l 1
 203 0 l 1
EndSplineSet
Substitution2: "'c2sc' Capitals to Small Capitals lookup 38 subtable" y.sc
Substitution2: "'aalt' Access All Alternates lookup 0 subtable" y.sc
Position2: "'cpsp' Capital Spacing lookup 0 subtable" dx=10 dy=0 dh=20 dv=0
EndChar

StartChar: Z
Encoding: 90 90 61
Width: 1239
GlyphClass: 2
Flags: HW
AnchorPoint: "Anchor-3" 629 731 basechar 0
AnchorPoint: "Anchor-2" 1393 1462 basechar 0
AnchorPoint: "Anchor-1" 504 0 basechar 0
AnchorPoint: "Anchor-0" 815 1462 basechar 0
LayerCount: 2
Fore
SplineSet
-35 0 m 1
 -18 82 l 1
 1012 1360 l 1
 535 1360 l 2
 412 1360 361 1282 330 1192 c 2
 301 1104 l 1
 195 1104 l 1
 281 1462 l 1
 1292 1462 l 1
 1276 1378 l 1
 244 102 l 1
 791 102 l 2
 916 102 966 180 997 270 c 2
 1026 358 l 1
 1133 358 l 1
 1047 0 l 1
 -35 0 l 1
EndSplineSet
Substitution2: "'c2sc' Capitals to Small Capitals lookup 38 subtable" z.sc
Substitution2: "'aalt' Access All Alternates lookup 0 subtable" z.sc
Position2: "'cpsp' Capital Spacing lookup 0 subtable" dx=10 dy=0 dh=20 dv=0
EndChar

StartChar: bracketleft
Encoding: 91 91 62
Width: 737
GlyphClass: 1
Flags: HW
LayerCount: 2
Fore
SplineSet
10 -262 m 1
 397 1556 l 1
 854 1556 l 1
 836 1470 l 1
 748 1470 l 2
 656 1470 576 1452 549 1323 c 2
 258 -37 l 2
 254 -53 250 -82 250 -94 c 0
 250 -164 311 -176 397 -176 c 2
 485 -176 l 1
 467 -262 l 1
 10 -262 l 1
EndSplineSet
Substitution2: "'smcp' Lowercase to Small Capitals lookup 39 subtable" bracketleft.sc
Substitution2: "'c2sc' Capitals to Small Capitals lookup 38 subtable" bracketleft.sc
Substitution2: "'aalt' Access All Alternates lookup 0 subtable" bracketleft.sc
EndChar

StartChar: backslash
Encoding: 92 92 63
Width: 589
GlyphClass: 1
Flags: HW
LayerCount: 2
Fore
SplineSet
317 -248 m 1
 231 1556 l 1
 350 1556 l 1
 438 -248 l 1
 317 -248 l 1
EndSplineSet
EndChar

StartChar: bracketright
Encoding: 93 93 64
Width: 737
GlyphClass: 1
Flags: HW
LayerCount: 2
Fore
SplineSet
-96 -262 m 1
 -78 -176 l 1
 10 -176 l 2
 100 -176 180 -158 207 -29 c 2
 498 1331 l 2
 502 1347 506 1377 506 1389 c 0
 506 1459 444 1470 358 1470 c 2
 270 1470 l 1
 289 1556 l 1
 745 1556 l 1
 358 -262 l 1
 -96 -262 l 1
EndSplineSet
Substitution2: "'smcp' Lowercase to Small Capitals lookup 39 subtable" bracketright.sc
Substitution2: "'c2sc' Capitals to Small Capitals lookup 38 subtable" bracketright.sc
Substitution2: "'aalt' Access All Alternates lookup 0 subtable" bracketright.sc
EndChar

StartChar: asciicircum
Encoding: 94 94 65
Width: 1144
GlyphClass: 1
Flags: HW
LayerCount: 2
Fore
SplineSet
104 545 m 1
 535 1462 l 1
 606 1462 l 1
 1038 545 l 1
 901 545 l 1
 569 1274 l 1
 242 545 l 1
 104 545 l 1
EndSplineSet
EndChar

StartChar: underscore
Encoding: 95 95 66
Width: 940
GlyphClass: 1
Flags: HW
LayerCount: 2
Fore
SplineSet
-186 -291 m 1
 -160 -170 l 1
 799 -170 l 1
 772 -291 l 1
 -186 -291 l 1
EndSplineSet
EndChar

StartChar: grave
Encoding: 96 96 67
Width: 571
GlyphClass: 1
Flags: HW
LayerCount: 2
Fore
SplineSet
559 1241 m 1
 471 1325 358 1454 295 1548 c 1
 301 1569 l 1
 506 1569 l 1
 537 1485 598 1352 643 1268 c 1
 637 1241 l 1
 559 1241 l 1
EndSplineSet
EndChar

StartChar: a
Encoding: 97 97 68
Width: 1185
GlyphClass: 2
Flags: HW
AnchorPoint: "Anchor-3" 631 549 basechar 0
AnchorPoint: "Anchor-2" 1262 1098 basechar 0
AnchorPoint: "Anchor-1" 477 0 basechar 0
AnchorPoint: "Anchor-0" 711 1098 basechar 0
LayerCount: 2
Fore
SplineSet
352 -20 m 0
 170 -20 88 141 88 354 c 0
 88 673 309 1118 698 1118 c 0
 796 1118 883 1087 938 1044 c 1
 1028 1096 l 1
 1094 1096 l 1
 954 440 l 2
 944 395 924 268 924 213 c 0
 924 143 946 109 991 109 c 0
 1036 109 1088 131 1139 162 c 1
 1176 102 l 1
 1117 49 989 -20 887 -20 c 0
 789 -20 727 44 727 150 c 0
 727 205 734 241 748 309 c 1
 735 309 l 1
 641 98 514 -20 352 -20 c 0
426 109 m 0
 567 109 739 354 788 590 c 2
 864 952 l 1
 833 1001 772 1026 709 1026 c 0
 439 1026 297 594 297 346 c 0
 297 176 352 109 426 109 c 0
EndSplineSet
Substitution2: "'ss01' Style Set 1 lookup 44 subtable" a.ss01
Substitution2: "'smcp' Lowercase to Small Capitals lookup 39 subtable" a.sc
Substitution2: "Single Substitution lookup 33 subtable" ordfeminine
Substitution2: "'sinf' Scientific Inferiors lookup 24 subtable" uni2090
Substitution2: "'subs' Subscript lookup 23 subtable" uni2090
AlternateSubs2: "'aalt' Access All Alternates lookup 1 subtable" ordfeminine uni2090 a.sc
EndChar

StartChar: b
Encoding: 98 98 69
Width: 1150
GlyphClass: 2
Flags: HW
AnchorPoint: "Anchor-3" 559 768 basechar 0
AnchorPoint: "Anchor-2" 1325 1556 basechar 0
AnchorPoint: "Anchor-1" 459 0 basechar 0
AnchorPoint: "Anchor-0" 791 1556 basechar 0
LayerCount: 2
Fore
SplineSet
453 -20 m 0
 351 -20 260 14 213 53 c 1
 121 -6 l 1
 55 -6 l 1
 326 1266 l 2
 338 1321 344 1362 344 1374 c 0
 344 1456 279 1470 201 1470 c 2
 184 1470 l 1
 203 1556 l 1
 590 1556 l 1
 492 1096 l 2
 476 1020 436 882 418 825 c 1
 428 825 l 1
 524 1007 635 1118 803 1118 c 0
 965 1118 1063 990 1063 748 c 0
 1063 416 836 -20 453 -20 c 0
444 72 m 0
 718 72 854 521 854 750 c 0
 854 924 797 989 725 989 c 0
 547 989 398 664 373 551 c 2
 285 145 l 1
 320 102 376 72 444 72 c 0
EndSplineSet
Substitution2: "'smcp' Lowercase to Small Capitals lookup 39 subtable" b.sc
Substitution2: "'aalt' Access All Alternates lookup 0 subtable" b.sc
EndChar

StartChar: c
Encoding: 99 99 70
Width: 997
GlyphClass: 2
Flags: HW
AnchorPoint: "Anchor-3" 543 549 basechar 0
AnchorPoint: "Anchor-2" 1073 1098 basechar 0
AnchorPoint: "Anchor-1" 424 0 basechar 0
AnchorPoint: "Anchor-0" 657 1098 basechar 0
LayerCount: 2
Fore
SplineSet
487 -20 m 0
 268 -20 88 118 88 403 c 0
 88 706 301 1118 698 1118 c 0
 903 1118 997 1022 997 922 c 0
 997 844 932 778 815 778 c 1
 815 909 766 1020 657 1020 c 0
 438 1020 301 608 301 387 c 0
 301 211 379 109 526 109 c 0
 669 109 764 184 821 256 c 1
 833 248 842 228 842 205 c 0
 842 115 733 -20 487 -20 c 0
EndSplineSet
Substitution2: "'smcp' Lowercase to Small Capitals lookup 39 subtable" c.sc
Substitution2: "'aalt' Access All Alternates lookup 0 subtable" c.sc
EndChar

StartChar: d
Encoding: 100 100 71
Width: 1185
GlyphClass: 2
Flags: HW
AnchorPoint: "Anchor-3" 711 549 basechar 0
AnchorPoint: "Anchor-2" 1257 1556 basechar 0
AnchorPoint: "Anchor-1" 477 0 basechar 0
AnchorPoint: "Anchor-0" 809 1556 basechar 0
LayerCount: 2
Fore
SplineSet
352 -20 m 0
 170 -20 88 141 88 354 c 0
 88 673 309 1118 698 1118 c 0
 776 1118 848 1098 901 1067 c 1
 905 1102 916 1159 922 1184 c 2
 942 1282 l 2
 950 1321 956 1358 956 1374 c 0
 956 1456 891 1470 813 1470 c 2
 797 1470 l 1
 815 1556 l 1
 1192 1556 l 1
 954 440 l 2
 944 395 924 268 924 213 c 0
 924 143 946 109 991 109 c 0
 1036 109 1088 131 1139 162 c 1
 1176 102 l 1
 1117 49 989 -20 887 -20 c 0
 789 -20 727 44 727 150 c 0
 727 185 734 241 748 309 c 1
 735 309 l 1
 641 98 514 -20 352 -20 c 0
426 109 m 0
 567 109 739 354 788 590 c 2
 864 952 l 1
 833 1001 772 1026 709 1026 c 0
 439 1026 297 594 297 346 c 0
 297 176 352 109 426 109 c 0
EndSplineSet
Substitution2: "'smcp' Lowercase to Small Capitals lookup 39 subtable" d.sc
Substitution2: "'aalt' Access All Alternates lookup 0 subtable" d.sc
EndChar

StartChar: e
Encoding: 101 101 72
Width: 1009
GlyphClass: 2
Flags: HW
AnchorPoint: "Anchor-3" 528 549 basechar 0
AnchorPoint: "Anchor-2" 1085 1098 basechar 0
AnchorPoint: "Anchor-1" 430 0 basechar 0
AnchorPoint: "Anchor-0" 664 1098 basechar 0
LayerCount: 2
Fore
SplineSet
487 -20 m 0
 268 -20 88 118 88 403 c 0
 88 706 301 1118 698 1118 c 0
 870 1118 971 1030 971 883 c 0
 971 668 719 473 377 473 c 2
 305 473 l 1
 301 442 301 414 301 387 c 0
 301 211 379 109 526 109 c 0
 657 109 764 184 821 256 c 1
 833 248 842 228 842 205 c 0
 842 115 733 -20 487 -20 c 0
344 567 m 2
 584 567 760 695 760 883 c 0
 760 975 717 1020 641 1020 c 0
 485 1020 369 778 324 567 c 1
 344 567 l 2
EndSplineSet
Substitution2: "'smcp' Lowercase to Small Capitals lookup 39 subtable" e.sc
Substitution2: "'sinf' Scientific Inferiors lookup 24 subtable" uni2091
Substitution2: "'subs' Subscript lookup 23 subtable" uni2091
AlternateSubs2: "'aalt' Access All Alternates lookup 1 subtable" uni2091 e.sc
EndChar

StartChar: f
Encoding: 102 102 73
Width: 651
GlyphClass: 2
Flags: HW
AnchorPoint: "Anchor-3" 354 543 basechar 0
AnchorPoint: "Anchor-2" 1034 1577 basechar 0
AnchorPoint: "Anchor-1" -168 -492 basechar 0
AnchorPoint: "Anchor-0" 729 1577 basechar 0
LayerCount: 2
Fore
SplineSet
-168 -492 m 0
 -209 -492 -260 -483 -287 -475 c 1
 -268 -381 l 1
 -245 -387 -205 -395 -174 -395 c 0
 -41 -395 25 -290 84 -18 c 2
 299 981 l 1
 113 981 l 1
 125 1055 l 1
 322 1098 l 1
 344 1210 l 2
 389 1443 508 1577 733 1577 c 0
 907 1577 997 1515 997 1425 c 0
 997 1335 936 1292 827 1292 c 1
 827 1396 809 1483 723 1483 c 0
 623 1483 574 1401 541 1229 c 2
 514 1098 l 1
 741 1098 l 1
 719 981 l 1
 489 981 l 1
 276 -16 l 2
 198 -381 53 -492 -168 -492 c 0
EndSplineSet
Substitution2: "'ss02' Style Set 2 lookup 45 subtable" f.ss02
Substitution2: "'smcp' Lowercase to Small Capitals lookup 39 subtable" f.sc
Substitution2: "'locl' Localized Forms in Latin lookup 16 subtable" f.ss02
AlternateSubs2: "'aalt' Access All Alternates lookup 1 subtable" f.ss02 f.sc
EndChar

StartChar: g
Encoding: 103 103 74
Width: 1138
GlyphClass: 2
Flags: HW
AnchorPoint: "Anchor-3" 575 352 basechar 0
AnchorPoint: "Anchor-2" 1214 1098 basechar 0
AnchorPoint: "Anchor-1" 348 -492 basechar 0
AnchorPoint: "Anchor-0" 686 1098 basechar 0
LayerCount: 2
Fore
SplineSet
375 -492 m 0
 76 -492 -72 -397 -72 -225 c 0
 -72 -55 92 37 262 70 c 1
 209 95 164 145 164 211 c 0
 164 297 213 346 358 420 c 1
 268 461 215 545 215 662 c 0
 215 855 366 1118 690 1118 c 0
 772 1118 846 1098 901 1053 c 1
 954 1133 1030 1198 1122 1198 c 0
 1190 1198 1225 1159 1225 1104 c 0
 1225 1045 1196 977 1104 977 c 1
 1104 1018 1086 1051 1047 1051 c 0
 1008 1051 975 1027 946 1004 c 1
 975 963 991 909 991 846 c 0
 991 662 846 387 522 387 c 0
 499 387 477 387 457 391 c 1
 396 364 311 325 311 262 c 0
 311 219 357 207 416 201 c 2
 612 180 l 2
 815 160 930 76 930 -88 c 0
 930 -334 744 -492 375 -492 c 0
545 485 m 0
 731 485 805 719 805 856 c 0
 805 973 752 1024 664 1024 c 0
 478 1024 403 790 403 653 c 0
 403 534 459 485 545 485 c 0
383 -391 m 0
 651 -391 752 -276 752 -145 c 0
 752 -57 694 -6 561 6 c 2
 362 25 l 1
 223 9 94 -66 94 -213 c 0
 94 -317 164 -391 383 -391 c 0
EndSplineSet
Substitution2: "'smcp' Lowercase to Small Capitals lookup 39 subtable" g.sc
Substitution2: "'aalt' Access All Alternates lookup 0 subtable" g.sc
EndChar

StartChar: h
Encoding: 104 104 75
Width: 1226
GlyphClass: 2
Flags: HW
AnchorPoint: "Anchor-3" 731 549 basechar 0
AnchorPoint: "Anchor-2" 1401 1556 basechar 0
AnchorPoint: "Anchor-1" 498 0 basechar 0
AnchorPoint: "Anchor-0" 829 1556 basechar 0
LayerCount: 2
Fore
SplineSet
942 -20 m 0
 821 -20 756 65 756 184 c 0
 756 250 768 336 795 461 c 2
 829 621 l 2
 841 676 872 792 872 864 c 0
 872 917 858 985 778 985 c 0
 606 985 426 690 391 524 c 2
 281 0 l 1
 90 0 l 1
 356 1266 l 2
 368 1321 375 1362 375 1374 c 0
 375 1456 309 1470 231 1470 c 2
 215 1470 l 1
 233 1556 l 1
 610 1556 l 1
 530 1180 l 2
 499 1035 463 891 449 840 c 1
 471 840 l 1
 582 1020 696 1116 850 1116 c 0
 1012 1116 1069 1010 1069 889 c 0
 1069 821 1046 734 1032 664 c 2
 979 422 l 2
 963 346 952 268 952 207 c 0
 952 144 979 109 1024 109 c 0
 1067 109 1108 125 1155 156 c 1
 1192 96 l 1
 1126 41 1048 -20 942 -20 c 0
EndSplineSet
Substitution2: "'smcp' Lowercase to Small Capitals lookup 39 subtable" h.sc
Substitution2: "'sinf' Scientific Inferiors lookup 24 subtable" uni2095
Substitution2: "'subs' Subscript lookup 23 subtable" uni2095
AlternateSubs2: "'aalt' Access All Alternates lookup 1 subtable" h.sc uni2095
EndChar

StartChar: i
Encoding: 105 105 76
Width: 622
GlyphClass: 2
Flags: HW
AnchorPoint: "Anchor-3" 360 768 basechar 0
AnchorPoint: "Anchor-2" 797 1559 basechar 0
AnchorPoint: "Anchor-1" 195 0 basechar 0
AnchorPoint: "Anchor-0" 526 1559 basechar 0
LayerCount: 2
Fore
SplineSet
459 1303 m 0
 391 1303 344 1339 344 1415 c 0
 344 1501 393 1559 467 1559 c 0
 533 1559 582 1522 582 1446 c 0
 582 1340 518 1303 459 1303 c 0
317 -20 m 0
 208 -20 147 68 147 174 c 0
 147 258 177 416 193 496 c 2
 272 872 l 2
 276 892 279 912 279 926 c 0
 279 1000 230 1012 154 1012 c 2
 127 1012 l 1
 145 1098 l 1
 512 1098 l 1
 373 440 l 2
 363 395 342 268 342 213 c 0
 342 143 365 109 410 109 c 0
 455 109 506 131 557 162 c 1
 594 102 l 1
 535 49 419 -20 317 -20 c 0
EndSplineSet
Substitution2: "'smcp' Lowercase to Small Capitals lookup 39 subtable" i.sc
Substitution2: "Single Substitution lookup 4 subtable" dotlessi
AlternateSubs2: "'aalt' Access All Alternates lookup 1 subtable" dotlessi i.sc
EndChar

StartChar: j
Encoding: 106 106 77
Width: 595
GlyphClass: 2
Flags: HW
AnchorPoint: "Anchor-3" 147 532 basechar 0
AnchorPoint: "Anchor-2" 770 1559 basechar 0
AnchorPoint: "Anchor-1" -168 -492 basechar 0
AnchorPoint: "Anchor-0" 514 1559 basechar 0
LayerCount: 2
Fore
SplineSet
461 1303 m 0
 393 1303 346 1339 346 1415 c 0
 346 1501 395 1559 469 1559 c 0
 535 1559 584 1522 584 1446 c 0
 584 1340 520 1303 461 1303 c 0
-168 -492 m 0
 -209 -492 -260 -483 -287 -475 c 1
 -268 -381 l 1
 -245 -387 -205 -395 -174 -395 c 0
 -41 -395 29 -288 86 -16 c 2
 274 872 l 2
 278 892 281 912 281 926 c 0
 281 1000 232 1012 156 1012 c 2
 129 1012 l 1
 147 1098 l 1
 514 1098 l 1
 279 -16 l 2
 201 -381 53 -492 -168 -492 c 0
EndSplineSet
Substitution2: "'smcp' Lowercase to Small Capitals lookup 39 subtable" j.sc
Substitution2: "Single Substitution lookup 4 subtable" uni0237
AlternateSubs2: "'aalt' Access All Alternates lookup 1 subtable" uni0237 j.sc
EndChar

StartChar: k
Encoding: 107 107 78
Width: 1165
GlyphClass: 2
Flags: HW
AnchorPoint: "Anchor-3" 657 770 basechar 0
AnchorPoint: "Anchor-2" 1135 1761 basechar 0
AnchorPoint: "Anchor-1" 467 0 basechar 0
AnchorPoint: "Anchor-0" 799 1556 basechar 0
LayerCount: 2
Fore
SplineSet
1055 -14 m 2
 832 -12 750 33 684 197 c 2
 551 524 l 1
 365 406 l 1
 281 0 l 1
 90 0 l 1
 356 1266 l 2
 368 1321 375 1362 375 1374 c 0
 375 1456 309 1470 231 1470 c 2
 215 1470 l 1
 233 1556 l 1
 610 1556 l 1
 530 1180 l 2
 499 1035 414 647 371 506 c 1
 696 788 l 2
 807 884 846 932 846 971 c 0
 846 1006 824 1012 756 1012 c 1
 774 1098 l 1
 1227 1098 l 1
 1208 1012 l 1
 1114 1012 1012 942 879 821 c 2
 692 649 l 1
 879 244 l 2
 924 144 981 72 1087 72 c 1
 1069 -14 l 1
 1055 -14 l 2
EndSplineSet
Substitution2: "'smcp' Lowercase to Small Capitals lookup 39 subtable" k.sc
Substitution2: "'sinf' Scientific Inferiors lookup 24 subtable" uni2096
Substitution2: "'subs' Subscript lookup 23 subtable" uni2096
AlternateSubs2: "'aalt' Access All Alternates lookup 1 subtable" k.sc uni2096
EndChar

StartChar: l
Encoding: 108 108 79
Width: 622
GlyphClass: 2
Flags: HW
AnchorPoint: "Anchor-3" 428 549 basechar 0
AnchorPoint: "Anchor-2" 797 1556 basechar 0
AnchorPoint: "Anchor-1" 195 0 basechar 0
AnchorPoint: "Anchor-0" 526 1556 basechar 0
LayerCount: 2
Fore
SplineSet
319 -20 m 0
 210 -20 150 68 150 174 c 0
 150 258 179 416 195 496 c 2
 362 1282 l 2
 370 1321 375 1362 375 1374 c 0
 375 1456 309 1470 231 1470 c 2
 207 1470 l 1
 225 1556 l 1
 612 1556 l 1
 375 440 l 2
 365 395 342 268 342 213 c 0
 342 143 365 109 410 109 c 0
 455 109 506 131 557 162 c 1
 594 102 l 1
 535 49 421 -20 319 -20 c 0
EndSplineSet
Substitution2: "'smcp' Lowercase to Small Capitals lookup 39 subtable" l.sc
Substitution2: "'sinf' Scientific Inferiors lookup 24 subtable" uni2097
Substitution2: "'subs' Subscript lookup 23 subtable" uni2097
AlternateSubs2: "'aalt' Access All Alternates lookup 1 subtable" l.sc uni2097
EndChar

StartChar: m
Encoding: 109 109 80
Width: 1835
GlyphClass: 2
Flags: HW
AnchorPoint: "Anchor-3" 944 547 basechar 0
AnchorPoint: "Anchor-2" 1911 1098 basechar 0
AnchorPoint: "Anchor-1" 801 0 basechar 0
AnchorPoint: "Anchor-0" 1034 1098 basechar 0
LayerCount: 2
Fore
SplineSet
1550 -20 m 0
 1429 -20 1364 65 1364 184 c 0
 1364 250 1376 336 1403 461 c 2
 1438 621 l 2
 1450 676 1481 792 1481 864 c 0
 1481 917 1466 985 1386 985 c 0
 1228 985 1065 739 1012 569 c 1
 979 422 l 2
 963 346 920 61 920 0 c 1
 725 0 l 1
 725 66 768 336 795 461 c 2
 829 621 l 2
 841 676 872 792 872 864 c 0
 872 917 858 985 778 985 c 0
 606 985 426 690 391 524 c 2
 281 0 l 1
 90 0 l 1
 262 823 l 2
 270 862 274 903 274 915 c 0
 274 997 209 1012 131 1012 c 2
 115 1012 l 1
 133 1098 l 1
 512 1098 l 1
 457 840 l 1
 477 840 l 1
 588 1020 696 1116 850 1116 c 0
 1012 1116 1069 1010 1069 889 c 0
 1069 873 1067 856 1065 840 c 1
 1085 840 l 1
 1196 1020 1304 1116 1458 1116 c 0
 1620 1116 1677 1010 1677 889 c 0
 1677 821 1654 734 1640 664 c 2
 1587 422 l 2
 1571 346 1561 268 1561 207 c 0
 1561 144 1587 109 1632 109 c 0
 1675 109 1716 125 1763 156 c 1
 1800 96 l 1
 1734 41 1656 -20 1550 -20 c 0
EndSplineSet
Substitution2: "'smcp' Lowercase to Small Capitals lookup 39 subtable" m.sc
Substitution2: "'sinf' Scientific Inferiors lookup 24 subtable" uni2098
Substitution2: "'subs' Subscript lookup 23 subtable" uni2098
AlternateSubs2: "'aalt' Access All Alternates lookup 1 subtable" m.sc uni2098
EndChar

StartChar: n
Encoding: 110 110 81
Width: 1226
GlyphClass: 2
Flags: HW
AnchorPoint: "Anchor-3" 641 547 basechar 0
AnchorPoint: "Anchor-2" 1303 1098 basechar 0
AnchorPoint: "Anchor-1" 498 0 basechar 0
AnchorPoint: "Anchor-0" 731 1098 basechar 0
LayerCount: 2
Fore
SplineSet
942 -20 m 0
 821 -20 756 65 756 184 c 0
 756 250 768 336 795 461 c 2
 829 621 l 2
 841 676 872 792 872 864 c 0
 872 917 858 985 778 985 c 0
 606 985 426 690 391 524 c 2
 281 0 l 1
 90 0 l 1
 262 823 l 2
 270 862 274 903 274 915 c 0
 274 997 209 1012 131 1012 c 2
 115 1012 l 1
 133 1098 l 1
 512 1098 l 1
 457 840 l 1
 477 840 l 1
 588 1020 696 1116 850 1116 c 0
 1012 1116 1069 1010 1069 889 c 0
 1069 821 1046 734 1032 664 c 2
 979 422 l 2
 963 346 952 268 952 207 c 0
 952 144 979 109 1024 109 c 0
 1067 109 1108 125 1155 156 c 1
 1192 96 l 1
 1126 41 1048 -20 942 -20 c 0
EndSplineSet
Substitution2: "'smcp' Lowercase to Small Capitals lookup 39 subtable" n.sc
Substitution2: "'sups' Superscript lookup 25 subtable" uni207F
Substitution2: "'sinf' Scientific Inferiors lookup 24 subtable" uni2099
Substitution2: "'subs' Subscript lookup 23 subtable" uni2099
AlternateSubs2: "'aalt' Access All Alternates lookup 1 subtable" uni207F n.sc uni2099
EndChar

StartChar: o
Encoding: 111 111 82
Width: 1175
GlyphClass: 2
Flags: HW
AnchorPoint: "Anchor-3" 705 549 basechar 0
AnchorPoint: "Anchor-2" 1251 1098 basechar 0
AnchorPoint: "Anchor-1" 471 0 basechar 0
AnchorPoint: "Anchor-0" 705 1098 basechar 0
LayerCount: 2
Fore
SplineSet
481 -20 m 0
 250 -20 88 118 88 403 c 0
 88 706 282 1118 698 1118 c 0
 913 1118 1087 995 1087 694 c 0
 1087 403 901 -20 481 -20 c 0
504 84 m 0
 770 84 874 483 874 729 c 0
 874 934 799 1014 674 1014 c 0
 408 1014 301 613 301 367 c 0
 301 160 381 84 504 84 c 0
EndSplineSet
Substitution2: "'smcp' Lowercase to Small Capitals lookup 39 subtable" o.sc
Substitution2: "Single Substitution lookup 33 subtable" ordmasculine
Substitution2: "'sinf' Scientific Inferiors lookup 24 subtable" uni2092
Substitution2: "'subs' Subscript lookup 23 subtable" uni2092
AlternateSubs2: "'aalt' Access All Alternates lookup 1 subtable" ordmasculine uni2092 o.sc
EndChar

StartChar: p
Encoding: 112 112 83
Width: 1181
GlyphClass: 2
Flags: HW
AnchorPoint: "Anchor-3" 539 313 basechar 0
AnchorPoint: "Anchor-2" 1217 1098 basechar 0
AnchorPoint: "Anchor-1" 145 -492 basechar 0
AnchorPoint: "Anchor-0" 709 1098 basechar 0
LayerCount: 2
Fore
SplineSet
258 807 m 2
 270 862 276 903 276 915 c 0
 276 997 211 1012 133 1012 c 2
 117 1012 l 1
 135 1098 l 1
 498 1098 l 1
 449 825 l 1
 459 825 l 1
 541 985 652 1118 834 1118 c 0
 1000 1118 1094 988 1094 748 c 0
 1094 453 893 -20 483 -20 c 0
 403 -20 334 -2 283 27 c 1
 281 4 274 -39 266 -72 c 2
 238 -197 l 2
 234 -213 219 -280 219 -311 c 0
 219 -393 284 -406 362 -406 c 2
 389 -406 l 1
 371 -492 l 1
 -14 -492 l 1
 258 807 l 2
477 72 m 0
 737 72 885 498 885 750 c 0
 885 869 856 989 756 989 c 0
 596 989 438 713 399 535 c 2
 315 145 l 1
 340 114 401 72 477 72 c 0
EndSplineSet
Substitution2: "'smcp' Lowercase to Small Capitals lookup 39 subtable" p.sc
Substitution2: "'sinf' Scientific Inferiors lookup 24 subtable" uni209A
Substitution2: "'subs' Subscript lookup 23 subtable" uni209A
AlternateSubs2: "'aalt' Access All Alternates lookup 1 subtable" p.sc uni209A
EndChar

StartChar: q
Encoding: 113 113 84
Width: 1146
GlyphClass: 2
Flags: HW
AnchorPoint: "Anchor-3" 594 313 basechar 0
AnchorPoint: "Anchor-2" 1223 1098 basechar 0
AnchorPoint: "Anchor-1" 352 -492 basechar 0
AnchorPoint: "Anchor-0" 690 1098 basechar 0
LayerCount: 2
Fore
SplineSet
657 -82 m 2
 675 10 738 262 748 309 c 1
 735 309 l 1
 657 139 542 -20 352 -20 c 0
 192 -20 88 108 88 354 c 0
 88 673 309 1118 698 1118 c 0
 772 1118 871 1096 926 1063 c 1
 1028 1118 l 1
 1100 1118 l 1
 817 -217 l 2
 809 -256 805 -297 805 -309 c 0
 805 -391 868 -406 946 -406 c 2
 963 -406 l 1
 944 -492 l 1
 571 -492 l 1
 657 -82 l 2
426 109 m 0
 571 109 741 365 788 590 c 2
 864 952 l 1
 844 991 785 1026 709 1026 c 0
 430 1026 297 569 297 344 c 0
 297 174 352 109 426 109 c 0
EndSplineSet
Substitution2: "'smcp' Lowercase to Small Capitals lookup 39 subtable" q.sc
Substitution2: "'aalt' Access All Alternates lookup 0 subtable" q.sc
EndChar

StartChar: r
Encoding: 114 114 85
Width: 958
GlyphClass: 2
Flags: HW
AnchorPoint: "Anchor-3" 528 559 basechar 0
AnchorPoint: "Anchor-2" 1034 1098 basechar 0
AnchorPoint: "Anchor-1" 184 0 basechar 0
AnchorPoint: "Anchor-0" 596 1098 basechar 0
LayerCount: 2
Fore
SplineSet
262 823 m 2
 270 862 274 903 274 915 c 0
 274 997 189 1012 111 1012 c 2
 94 1012 l 1
 113 1098 l 1
 475 1098 l 1
 432 803 l 1
 453 803 l 1
 531 971 615 1118 801 1118 c 0
 916 1118 969 1059 969 977 c 0
 969 881 918 821 799 821 c 1
 799 919 783 983 717 983 c 0
 576 983 417 647 358 373 c 2
 281 0 l 1
 90 0 l 1
 262 823 l 2
EndSplineSet
Substitution2: "'smcp' Lowercase to Small Capitals lookup 39 subtable" r.sc
Substitution2: "'aalt' Access All Alternates lookup 0 subtable" r.sc
EndChar

StartChar: s
Encoding: 115 115 86
Width: 950
GlyphClass: 2
Flags: HW
AnchorPoint: "Anchor-3" 473 547 basechar 0
AnchorPoint: "Anchor-2" 1026 1098 basechar 0
AnchorPoint: "Anchor-1" 358 0 basechar 0
AnchorPoint: "Anchor-0" 592 1098 basechar 0
LayerCount: 2
Fore
SplineSet
389 -20 m 0
 184 -20 51 68 51 211 c 0
 51 322 131 346 180 346 c 1
 180 203 244 78 414 78 c 0
 549 78 635 141 635 268 c 0
 635 364 578 424 428 494 c 0
 276 566 180 647 180 811 c 0
 180 987 333 1116 575 1116 c 0
 798 1116 895 1016 895 922 c 0
 895 836 835 795 741 795 c 1
 741 904 694 1022 557 1022 c 0
 434 1022 358 948 358 846 c 0
 358 754 424 701 567 635 c 0
 717 567 813 475 813 317 c 0
 813 118 651 -20 389 -20 c 0
EndSplineSet
Substitution2: "'smcp' Lowercase to Small Capitals lookup 39 subtable" s.sc
Substitution2: "'sinf' Scientific Inferiors lookup 24 subtable" uni209B
Substitution2: "'subs' Subscript lookup 23 subtable" uni209B
AlternateSubs2: "'aalt' Access All Alternates lookup 1 subtable" s.sc uni209B
EndChar

StartChar: t
Encoding: 116 116 87
Width: 753
GlyphClass: 2
Flags: HW
AnchorPoint: "Anchor-3" 371 549 basechar 0
AnchorPoint: "Anchor-2" 686 2007 basechar 0
AnchorPoint: "Anchor-1" 260 0 basechar 0
AnchorPoint: "Anchor-0" 547 1350 basechar 0
LayerCount: 2
Fore
SplineSet
375 -20 m 0
 228 -20 152 57 152 219 c 0
 152 268 162 340 172 391 c 2
 297 981 l 1
 141 981 l 1
 160 1063 l 1
 277 1063 391 1139 473 1350 c 1
 567 1350 l 1
 514 1098 l 1
 762 1098 l 1
 737 981 l 1
 489 981 l 1
 365 397 l 2
 351 329 340 264 340 221 c 0
 340 141 381 109 449 109 c 0
 506 109 571 129 616 154 c 1
 651 78 l 1
 569 21 477 -20 375 -20 c 0
EndSplineSet
Substitution2: "'smcp' Lowercase to Small Capitals lookup 39 subtable" t.sc
Substitution2: "'sinf' Scientific Inferiors lookup 24 subtable" uni209C
Substitution2: "'subs' Subscript lookup 23 subtable" uni209C
AlternateSubs2: "'aalt' Access All Alternates lookup 1 subtable" t.sc uni209C
EndChar

StartChar: u
Encoding: 117 117 88
Width: 1226
GlyphClass: 2
Flags: HW
AnchorPoint: "Anchor-3" 655 539 basechar 0
AnchorPoint: "Anchor-2" 1303 1098 basechar 0
AnchorPoint: "Anchor-1" 498 0 basechar 0
AnchorPoint: "Anchor-0" 731 1098 basechar 0
LayerCount: 2
Fore
SplineSet
934 -20 m 0
 825 -20 762 68 762 174 c 0
 762 205 766 250 772 295 c 1
 756 295 l 1
 641 109 544 -18 360 -18 c 0
 198 -18 141 88 141 209 c 0
 141 277 162 364 178 434 c 2
 258 793 l 2
 266 832 276 903 276 915 c 0
 276 997 211 1012 133 1012 c 2
 117 1012 l 1
 135 1098 l 1
 516 1098 l 1
 381 485 l 2
 365 411 340 297 340 238 c 0
 340 170 360 113 440 113 c 0
 585 113 778 365 825 588 c 2
 932 1098 l 1
 1130 1098 l 1
 989 440 l 2
 979 395 958 268 958 213 c 0
 958 143 981 109 1026 109 c 0
 1071 109 1106 123 1157 154 c 1
 1194 94 l 1
 1135 41 1036 -20 934 -20 c 0
EndSplineSet
Substitution2: "'smcp' Lowercase to Small Capitals lookup 39 subtable" u.sc
Substitution2: "'aalt' Access All Alternates lookup 0 subtable" u.sc
EndChar

StartChar: v
Encoding: 118 118 89
Width: 1101
GlyphClass: 2
Flags: HW
AnchorPoint: "Anchor-3" 535 545 basechar 0
AnchorPoint: "Anchor-2" 1178 1098 basechar 0
AnchorPoint: "Anchor-1" 434 0 basechar 0
AnchorPoint: "Anchor-0" 668 1098 basechar 0
LayerCount: 2
Fore
SplineSet
197 903 m 2
 183 989 135 1012 55 1012 c 2
 35 1012 l 1
 51 1098 l 1
 358 1098 l 1
 453 492 l 2
 473 355 494 197 500 129 c 1
 506 129 l 1
 705 319 883 622 883 788 c 0
 883 882 832 944 756 944 c 1
 756 1057 829 1108 895 1108 c 0
 981 1108 1034 1053 1034 918 c 0
 1034 596 710 188 524 2 c 1
 340 -18 l 1
 197 903 l 2
EndSplineSet
Substitution2: "'smcp' Lowercase to Small Capitals lookup 39 subtable" v.sc
Substitution2: "'aalt' Access All Alternates lookup 0 subtable" v.sc
EndChar

StartChar: w
Encoding: 119 119 90
Width: 1677
GlyphClass: 2
Flags: HW
AnchorPoint: "Anchor-3" 856 549 basechar 0
AnchorPoint: "Anchor-2" 1753 1098 basechar 0
AnchorPoint: "Anchor-1" 723 0 basechar 0
AnchorPoint: "Anchor-0" 956 1098 basechar 0
LayerCount: 2
Fore
SplineSet
920 -20 m 1
 918 232 893 704 889 866 c 1
 848 751 516 110 457 6 c 1
 246 -18 l 1
 231 864 l 2
 229 989 176 1012 96 1012 c 2
 76 1012 l 1
 104 1098 l 1
 412 1098 l 1
 418 809 420 440 420 164 c 1
 428 164 l 1
 557 387 756 776 883 1079 c 1
 1053 1087 l 1
 1071 882 1096 320 1096 150 c 1
 1110 150 l 1
 1294 375 1495 696 1495 874 c 0
 1495 942 1462 979 1407 997 c 1
 1415 1063 1460 1118 1528 1118 c 0
 1596 1118 1636 1069 1636 965 c 0
 1636 721 1427 414 1122 2 c 1
 920 -20 l 1
EndSplineSet
Substitution2: "'smcp' Lowercase to Small Capitals lookup 39 subtable" w.sc
Substitution2: "'aalt' Access All Alternates lookup 0 subtable" w.sc
EndChar

StartChar: x
Encoding: 120 120 91
Width: 1118
GlyphClass: 2
Flags: HW
AnchorPoint: "Anchor-3" 551 549 basechar 0
AnchorPoint: "Anchor-2" 1194 1098 basechar 0
AnchorPoint: "Anchor-1" 442 0 basechar 0
AnchorPoint: "Anchor-0" 676 1098 basechar 0
LayerCount: 2
Fore
SplineSet
-41 0 m 1
 -18 86 l 1
 8 86 l 2
 86 86 125 108 221 227 c 2
 483 545 l 1
 350 864 l 2
 301 981 283 1012 203 1012 c 2
 176 1012 l 1
 193 1098 l 1
 465 1098 l 1
 621 684 l 1
 893 1098 l 1
 1145 1098 l 1
 1122 1012 l 1
 1096 1012 l 2
 1016 1012 979 983 883 864 c 2
 668 588 l 1
 809 233 l 2
 852 114 876 86 956 86 c 2
 983 86 l 1
 967 0 l 1
 692 0 l 1
 526 451 l 1
 219 0 l 1
 -41 0 l 1
EndSplineSet
Substitution2: "'smcp' Lowercase to Small Capitals lookup 39 subtable" x.sc
Substitution2: "'sinf' Scientific Inferiors lookup 24 subtable" uni2093
Substitution2: "'subs' Subscript lookup 23 subtable" uni2093
AlternateSubs2: "'aalt' Access All Alternates lookup 1 subtable" uni2093 x.sc
EndChar

StartChar: y
Encoding: 121 121 92
Width: 1081
GlyphClass: 2
Flags: HW
AnchorPoint: "Anchor-3" 342 311 basechar 0
AnchorPoint: "Anchor-2" 1116 1098 basechar 0
AnchorPoint: "Anchor-1" 94 -492 basechar 0
AnchorPoint: "Anchor-0" 596 1098 basechar 0
LayerCount: 2
Fore
SplineSet
-139 -492 m 0
 -209 -492 -281 -478 -332 -455 c 1
 -301 -352 l 1
 -268 -362 -225 -375 -141 -375 c 0
 127 -375 311 -160 434 -2 c 1
 164 903 l 2
 139 985 103 1012 23 1012 c 2
 2 1012 l 1
 18 1098 l 1
 317 1098 l 1
 477 545 l 2
 508 439 557 242 563 174 c 1
 569 174 l 1
 725 410 846 668 846 854 c 0
 846 911 821 965 745 965 c 1
 745 1063 813 1116 879 1116 c 0
 965 1116 1018 1059 1018 944 c 0
 1018 731 876 451 657 117 c 0
 389 -299 242 -492 -139 -492 c 0
EndSplineSet
Substitution2: "'smcp' Lowercase to Small Capitals lookup 39 subtable" y.sc
Substitution2: "'aalt' Access All Alternates lookup 0 subtable" y.sc
EndChar

StartChar: z
Encoding: 122 122 93
Width: 1046
GlyphClass: 2
Flags: HW
AnchorPoint: "Anchor-3" 481 549 basechar 0
AnchorPoint: "Anchor-2" 1122 1098 basechar 0
AnchorPoint: "Anchor-1" 408 0 basechar 0
AnchorPoint: "Anchor-0" 641 1098 basechar 0
LayerCount: 2
Fore
SplineSet
-2 0 m 1
 14 82 l 1
 711 981 l 1
 451 981 l 2
 342 981 309 924 258 815 c 2
 254 807 l 1
 168 807 l 1
 250 1098 l 1
 967 1098 l 1
 950 1014 l 1
 252 117 l 1
 616 117 l 2
 710 117 754 197 791 285 c 2
 811 332 l 1
 897 332 l 1
 817 0 l 1
 -2 0 l 1
EndSplineSet
Substitution2: "'smcp' Lowercase to Small Capitals lookup 39 subtable" z.sc
Substitution2: "'aalt' Access All Alternates lookup 0 subtable" z.sc
EndChar

StartChar: braceleft
Encoding: 123 123 94
Width: 876
GlyphClass: 1
Flags: HW
LayerCount: 2
Fore
SplineSet
475 -262 m 2
 315 -262 231 -188 231 -55 c 0
 231 -28 236 0 242 31 c 2
 317 389 l 2
 323 414 326 435 326 455 c 0
 326 568 238 602 123 606 c 1
 141 692 l 1
 276 698 393 739 428 907 c 2
 504 1262 l 2
 543 1442 602 1556 862 1556 c 2
 997 1556 l 1
 979 1468 l 1
 918 1468 l 2
 797 1468 733 1392 702 1253 c 2
 627 901 l 2
 598 766 508 678 346 651 c 1
 346 643 l 1
 467 623 528 555 528 457 c 0
 528 437 524 416 520 393 c 2
 444 41 l 2
 438 8 434 -20 434 -45 c 0
 434 -129 475 -174 567 -174 c 2
 629 -174 l 1
 610 -262 l 1
 475 -262 l 2
EndSplineSet
Substitution2: "'smcp' Lowercase to Small Capitals lookup 39 subtable" braceleft.sc
Substitution2: "'c2sc' Capitals to Small Capitals lookup 38 subtable" braceleft.sc
Substitution2: "'aalt' Access All Alternates lookup 0 subtable" braceleft.sc
EndChar

StartChar: bar
Encoding: 124 124 95
Width: 1144
GlyphClass: 1
Flags: HW
LayerCount: 2
Fore
SplineSet
510 -492 m 1
 510 1556 l 1
 633 1556 l 1
 633 -492 l 1
 510 -492 l 1
EndSplineSet
EndChar

StartChar: braceright
Encoding: 125 125 96
Width: 876
GlyphClass: 1
Flags: HW
LayerCount: 2
Fore
SplineSet
-102 -262 m 1
 -84 -174 l 1
 -23 -174 l 2
 98 -174 162 -98 193 41 c 2
 268 395 l 2
 297 530 387 620 549 647 c 1
 549 655 l 1
 428 675 367 742 367 840 c 0
 367 860 371 880 375 903 c 2
 451 1253 l 2
 457 1286 461 1314 461 1339 c 0
 461 1423 420 1468 328 1468 c 2
 266 1468 l 1
 285 1556 l 1
 420 1556 l 2
 580 1556 664 1483 664 1350 c 0
 664 1323 659 1295 653 1264 c 2
 578 907 l 2
 572 882 569 862 569 842 c 0
 569 729 657 696 772 692 c 1
 754 606 l 1
 619 600 502 557 467 389 c 2
 391 33 l 2
 352 -147 293 -262 33 -262 c 2
 -102 -262 l 1
EndSplineSet
Substitution2: "'smcp' Lowercase to Small Capitals lookup 39 subtable" braceright.sc
Substitution2: "'c2sc' Capitals to Small Capitals lookup 38 subtable" braceright.sc
Substitution2: "'aalt' Access All Alternates lookup 0 subtable" braceright.sc
EndChar

StartChar: asciitilde
Encoding: 126 126 97
Width: 1144
GlyphClass: 1
Flags: HW
LayerCount: 2
Fore
SplineSet
111 551 m 1
 125 709 165 909 360 909 c 0
 454 909 520 862 616 774 c 0
 673 721 727 672 784 672 c 0
 860 672 891 757 909 909 c 1
 1032 909 l 1
 1016 768 975 551 782 551 c 0
 686 551 613 606 537 680 c 0
 474 741 423 788 360 788 c 0
 280 788 245 711 231 551 c 1
 111 551 l 1
EndSplineSet
EndChar

StartChar: exclamdown
Encoding: 161 161 99
Width: 681
GlyphClass: 1
Flags: HW
LayerCount: 2
Fore
SplineSet
412 829 m 0
 340 829 285 870 285 954 c 0
 285 1071 354 1112 420 1112 c 0
 496 1112 547 1071 547 987 c 0
 547 893 494 829 412 829 c 0
23 -367 m 1
 317 684 l 1
 412 684 l 1
 260 -367 l 1
 23 -367 l 1
EndSplineSet
Substitution2: "'smcp' Lowercase to Small Capitals lookup 39 subtable" exclamdown.sc
Substitution2: "'c2sc' Capitals to Small Capitals lookup 38 subtable" exclamdown.sc
Substitution2: "'aalt' Access All Alternates lookup 0 subtable" exclamdown.sc
EndChar

StartChar: cent
Encoding: 162 162 100
Width: 1144
GlyphClass: 1
Flags: HW
LayerCount: 2
Fore
SplineSet
496 182 m 1
 312 211 172 348 172 600 c 0
 172 891 366 1280 733 1313 c 1
 766 1462 l 1
 868 1462 l 1
 836 1311 l 1
 1004 1297 1081 1208 1081 1118 c 0
 1081 1040 1016 975 899 975 c 1
 899 1073 870 1159 811 1196 c 1
 623 305 l 1
 760 309 850 383 905 453 c 1
 917 445 926 424 926 401 c 0
 926 313 823 184 596 176 c 1
 559 0 l 1
 457 0 l 1
 496 182 l 1
713 1212 m 1
 510 1179 385 795 385 584 c 0
 385 445 432 352 524 319 c 1
 713 1212 l 1
EndSplineSet
EndChar

StartChar: sterling
Encoding: 163 163 101
Width: 1144
GlyphClass: 1
Flags: HW
LayerCount: 2
Fore
SplineSet
688 -20 m 0
 553 -20 448 72 301 72 c 0
 207 72 145 53 63 12 c 2
 35 -2 l 1
 -2 80 l 1
 70 121 l 2
 209 201 365 340 365 563 c 0
 365 606 358 649 350 690 c 1
 123 690 l 1
 145 793 l 1
 334 793 l 1
 322 848 307 927 307 999 c 0
 307 1306 506 1483 807 1483 c 0
 1028 1483 1147 1393 1147 1282 c 0
 1147 1178 1086 1120 977 1120 c 1
 977 1292 899 1380 776 1380 c 0
 590 1380 487 1245 487 1012 c 0
 487 922 506 846 516 793 c 1
 864 793 l 1
 842 690 l 1
 530 690 l 1
 534 655 537 619 537 582 c 0
 537 402 443 291 279 193 c 1
 281 184 l 1
 342 211 393 221 438 221 c 0
 547 221 692 143 776 143 c 0
 870 143 918 175 981 236 c 1
 1036 168 l 1
 973 100 825 -20 688 -20 c 0
EndSplineSet
EndChar

StartChar: currency
Encoding: 164 164 102
Width: 1144
GlyphClass: 1
Flags: HW
LayerCount: 2
Fore
SplineSet
233 293 m 1
 147 379 l 1
 281 514 l 1
 238 575 213 651 213 733 c 0
 213 815 238 891 283 952 c 1
 147 1087 l 1
 233 1174 l 1
 367 1038 l 1
 428 1083 504 1110 588 1110 c 0
 668 1110 744 1083 805 1038 c 1
 942 1176 l 1
 1028 1087 l 1
 893 952 l 1
 938 891 965 815 965 733 c 0
 965 651 938 575 893 514 c 1
 1028 379 l 1
 944 293 l 1
 807 428 l 1
 746 385 670 358 588 358 c 0
 506 358 430 383 369 428 c 1
 233 293 l 1
588 471 m 0
 735 471 850 590 850 733 c 0
 850 880 735 997 588 997 c 0
 445 997 328 880 328 733 c 0
 328 590 445 471 588 471 c 0
EndSplineSet
EndChar

StartChar: yen
Encoding: 165 165 103
Width: 1144
GlyphClass: 1
Flags: HW
LayerCount: 2
Fore
SplineSet
141 0 m 1
 160 86 l 1
 207 86 l 2
 297 86 378 100 403 223 c 2
 432 362 l 1
 145 362 l 1
 166 459 l 1
 453 459 l 1
 483 602 l 1
 197 602 l 1
 217 698 l 1
 465 698 l 1
 307 1268 l 2
 284 1348 266 1376 186 1376 c 2
 178 1376 l 1
 197 1462 l 1
 676 1462 l 1
 657 1376 l 1
 649 1376 l 2
 557 1376 512 1364 512 1307 c 0
 512 1274 529 1207 537 1176 c 2
 590 956 l 2
 610 870 629 754 633 707 c 1
 651 740 702 819 739 874 c 2
 909 1124 l 2
 972 1218 1001 1282 1001 1317 c 0
 1001 1358 971 1376 893 1376 c 2
 885 1376 l 1
 903 1462 l 1
 1321 1462 l 1
 1303 1376 l 1
 1284 1376 l 2
 1214 1376 1184 1344 1096 1217 c 2
 735 698 l 1
 989 698 l 1
 969 602 l 1
 682 602 l 1
 651 459 l 1
 938 459 l 1
 918 362 l 1
 631 362 l 1
 602 225 l 2
 598 209 594 180 594 168 c 0
 594 98 655 86 741 86 c 2
 788 86 l 1
 770 0 l 1
 141 0 l 1
EndSplineSet
EndChar

StartChar: brokenbar
Encoding: 166 166 104
Width: 1144
GlyphClass: 1
Flags: HW
LayerCount: 2
Fore
SplineSet
510 737 m 1
 510 1556 l 1
 633 1556 l 1
 633 737 l 1
 510 737 l 1
510 -492 m 1
 510 328 l 1
 633 328 l 1
 633 -492 l 1
 510 -492 l 1
EndSplineSet
EndChar

StartChar: section
Encoding: 167 167 105
Width: 1114
GlyphClass: 1
Flags: HW
LayerCount: 2
Fore
SplineSet
389 -236 m 0
 184 -236 41 -147 41 -4 c 0
 41 107 121 131 170 131 c 1
 170 -12 250 -135 420 -135 c 0
 588 -135 700 -37 700 106 c 0
 700 184 674 248 408 393 c 0
 234 489 180 592 180 723 c 0
 180 856 268 944 360 1001 c 1
 335 1040 311 1104 311 1186 c 0
 311 1422 504 1556 748 1556 c 0
 947 1556 1071 1461 1071 1352 c 0
 1071 1243 1016 1210 905 1210 c 1
 905 1351 846 1460 711 1460 c 0
 596 1460 469 1394 469 1251 c 0
 469 1126 530 1076 739 963 c 0
 917 867 989 770 989 645 c 0
 989 518 909 410 811 336 c 1
 829 301 852 256 852 184 c 0
 852 -47 682 -236 389 -236 c 0
760 401 m 1
 801 446 836 494 836 557 c 0
 836 627 789 705 625 795 c 0
 537 842 465 889 406 944 c 1
 357 907 324 865 324 799 c 0
 324 701 381 637 561 539 c 0
 635 498 711 446 760 401 c 1
EndSplineSet
EndChar

StartChar: dieresis
Encoding: 168 168 106
Width: 1181
GlyphClass: 2
Flags: HW
AnchorPoint: "Anchor-0" 713 1526 basechar 0
LayerCount: 2
Fore
SplineSet
903 1294 m 0
 842 1294 801 1327 801 1397 c 0
 801 1475 843 1526 911 1526 c 0
 970 1526 1014 1493 1014 1423 c 0
 1014 1327 956 1294 903 1294 c 0
514 1294 m 0
 453 1294 412 1327 412 1397 c 0
 412 1475 454 1526 522 1526 c 0
 581 1526 625 1493 625 1423 c 0
 625 1327 567 1294 514 1294 c 0
EndSplineSet
EndChar

StartChar: copyright
Encoding: 169 169 107
Width: 1730
GlyphClass: 1
Flags: HW
LayerCount: 2
Fore
SplineSet
864 -20 m 0
 428 -20 113 274 113 733 c 0
 113 1188 426 1485 864 1485 c 0
 1302 1485 1618 1190 1618 731 c 0
 1618 274 1302 -20 864 -20 c 0
866 92 m 0
 1247 92 1499 344 1499 733 c 0
 1499 1124 1241 1372 866 1372 c 0
 491 1372 231 1126 231 731 c 0
 231 330 497 92 866 92 c 0
877 264 m 0
 596 264 455 450 455 733 c 0
 455 1007 610 1198 905 1198 c 0
 1100 1198 1194 1133 1194 1049 c 0
 1194 988 1131 950 1051 950 c 1
 1051 1028 1012 1110 901 1110 c 0
 702 1110 627 975 627 733 c 0
 627 491 725 354 903 354 c 0
 1032 354 1124 428 1161 498 c 1
 1179 486 1192 461 1192 432 c 0
 1192 354 1086 264 877 264 c 0
EndSplineSet
EndChar

StartChar: ordfeminine
Encoding: 170 170 108
Width: 804
GlyphClass: 2
Flags: HW
AnchorPoint: "Anchor-3" 485 1122 basechar 0
AnchorPoint: "Anchor-1" 406 782 basechar 0
AnchorPoint: "Anchor-0" 557 1466 basechar 0
LayerCount: 2
Fore
SplineSet
303 780 m 0
 178 780 123 879 123 1006 c 0
 123 1199 275 1466 543 1466 c 0
 611 1466 670 1448 707 1423 c 1
 770 1452 l 1
 815 1452 l 1
 719 1073 l 2
 713 1046 698 971 698 940 c 0
 698 899 712 879 739 879 c 0
 766 879 796 893 827 911 c 1
 850 872 l 1
 815 835 738 780 672 780 c 0
 602 780 559 820 559 883 c 0
 559 916 563 952 573 993 c 1
 565 993 l 1
 502 866 414 780 303 780 c 0
371 877 m 0
 453 877 546 1041 575 1147 c 2
 629 1350 l 1
 611 1377 576 1391 539 1391 c 0
 383 1391 301 1149 301 1012 c 0
 301 916 332 877 371 877 c 0
EndSplineSet
EndChar

StartChar: guillemotleft
Encoding: 171 171 109
Width: 1052
GlyphClass: 1
Flags: HW
LayerCount: 2
Fore
SplineSet
733 164 m 1
 496 520 l 1
 510 586 l 1
 899 942 l 1
 1001 942 l 1
 707 543 l 1
 836 164 l 1
 733 164 l 1
362 164 m 1
 125 520 l 1
 139 586 l 1
 528 942 l 1
 631 942 l 1
 336 543 l 1
 465 164 l 1
 362 164 l 1
EndSplineSet
EndChar

StartChar: logicalnot
Encoding: 172 172 110
Width: 1144
GlyphClass: 1
Flags: HW
LayerCount: 2
Fore
SplineSet
889 252 m 1
 889 672 l 1
 133 672 l 1
 133 793 l 1
 1012 793 l 1
 1012 252 l 1
 889 252 l 1
EndSplineSet
EndChar

StartChar: uni00AD
Encoding: 173 173 111
Width: 634
GlyphClass: 1
Flags: HW
LayerCount: 2
Fore
SplineSet
29 481 m 1
 61 635 l 1
 594 635 l 1
 561 481 l 1
 29 481 l 1
EndSplineSet
EndChar

StartChar: registered
Encoding: 174 174 112
Width: 1730
GlyphClass: 1
Flags: HW
LayerCount: 2
Fore
SplineSet
864 -20 m 0
 428 -20 113 274 113 733 c 0
 113 1188 426 1485 864 1485 c 0
 1302 1485 1618 1190 1618 731 c 0
 1618 274 1302 -20 864 -20 c 0
866 92 m 0
 1247 92 1499 344 1499 733 c 0
 1499 1124 1241 1372 866 1372 c 0
 491 1372 231 1126 231 731 c 0
 231 330 497 92 866 92 c 0
471 289 m 1
 471 358 l 1
 498 358 l 2
 551 358 598 367 598 430 c 2
 598 1030 l 2
 598 1093 551 1102 498 1102 c 2
 471 1102 l 1
 471 1174 l 1
 846 1174 l 2
 1082 1174 1198 1090 1198 934 c 0
 1198 799 1110 738 1012 705 c 1
 1194 414 l 2
 1223 369 1241 358 1309 358 c 1
 1309 289 l 1
 1085 289 l 1
 860 670 l 1
 758 670 l 1
 758 430 l 2
 758 367 805 358 858 358 c 2
 887 358 l 1
 887 289 l 1
 471 289 l 1
844 754 m 2
 989 754 1036 805 1036 924 c 0
 1036 1049 983 1087 838 1087 c 2
 758 1087 l 1
 758 754 l 1
 844 754 l 2
EndSplineSet
EndChar

StartChar: overscore
Encoding: 175 175 113
Width: 940
GlyphClass: 1
Flags: HW
LayerCount: 2
Fore
SplineSet
207 1556 m 1
 233 1677 l 1
 1192 1677 l 1
 1165 1556 l 1
 207 1556 l 1
EndSplineSet
Substitution2: "'smcp' Lowercase to Small Capitals lookup 39 subtable" macron.sc
Substitution2: "'c2sc' Capitals to Small Capitals lookup 38 subtable" macron.sc
Substitution2: "'aalt' Access All Alternates lookup 0 subtable" macron.sc
EndChar

StartChar: degree
Encoding: 176 176 114
Width: 819
GlyphClass: 1
Flags: HW
LayerCount: 2
Fore
SplineSet
561 866 m 0
 377 866 252 992 252 1176 c 0
 252 1358 377 1487 561 1487 c 0
 745 1487 872 1358 872 1176 c 0
 872 992 745 866 561 866 c 0
563 987 m 0
 674 987 739 1061 739 1176 c 0
 739 1293 672 1366 563 1366 c 0
 454 1366 387 1293 387 1176 c 0
 387 1061 452 987 563 987 c 0
EndSplineSet
EndChar

StartChar: plusminus
Encoding: 177 177 115
Width: 1144
GlyphClass: 1
Flags: HW
LayerCount: 2
Fore
SplineSet
510 293 m 1
 510 672 l 1
 133 672 l 1
 133 793 l 1
 510 793 l 1
 510 1171 l 1
 633 1171 l 1
 633 793 l 1
 1012 793 l 1
 1012 672 l 1
 633 672 l 1
 633 293 l 1
 510 293 l 1
133 0 m 1
 133 121 l 1
 1012 121 l 1
 1012 0 l 1
 133 0 l 1
EndSplineSet
EndChar

StartChar: uni00B2
Encoding: 178 178 116
Width: 819
GlyphClass: 1
Flags: HW
LayerCount: 2
Fore
SplineSet
117 791 m 1
 127 852 l 1
 444 1114 l 2
 614 1255 666 1354 666 1487 c 0
 666 1546 639 1606 563 1606 c 0
 471 1606 411 1513 397 1411 c 1
 315 1411 266 1452 266 1509 c 0
 266 1611 383 1688 578 1688 c 0
 742 1688 846 1610 846 1493 c 0
 846 1372 784 1278 563 1102 c 2
 317 907 l 1
 600 907 l 2
 663 907 693 946 709 991 c 2
 725 1034 l 1
 795 1034 l 1
 737 791 l 1
 117 791 l 1
EndSplineSet
EndChar

StartChar: uni00B3
Encoding: 179 179 117
Width: 819
GlyphClass: 1
Flags: HW
LayerCount: 2
Fore
SplineSet
430 778 m 0
 258 778 162 840 162 936 c 0
 162 1010 213 1047 279 1047 c 1
 279 967 325 870 444 870 c 0
 555 870 639 922 639 1053 c 0
 639 1135 582 1206 453 1206 c 2
 385 1206 l 1
 401 1290 l 1
 469 1290 l 2
 586 1290 696 1370 696 1509 c 0
 696 1564 668 1606 602 1606 c 0
 498 1606 448 1521 430 1427 c 1
 348 1427 295 1447 295 1513 c 0
 295 1609 411 1688 608 1688 c 0
 796 1688 885 1603 885 1501 c 0
 885 1358 773 1291 623 1260 c 1
 621 1249 l 1
 746 1235 827 1174 827 1061 c 0
 827 877 663 778 430 778 c 0
EndSplineSet
EndChar

StartChar: acute
Encoding: 180 180 118
Width: 538
GlyphClass: 1
Flags: HW
LayerCount: 2
Fore
SplineSet
229 1241 m 1
 236 1268 l 1
 308 1350 394 1469 455 1569 c 1
 674 1569 l 1
 668 1548 l 1
 600 1466 436 1315 311 1241 c 1
 229 1241 l 1
EndSplineSet
EndChar

StartChar: uni00B5
Encoding: 181 181 119
Width: 1236
GlyphClass: 1
Flags: HW
LayerCount: 2
Fore
SplineSet
129 -492 m 0
 51 -492 -4 -455 -4 -344 c 0
 -4 -180 96 51 182 461 c 2
 317 1098 l 1
 510 1098 l 1
 375 457 l 2
 365 410 352 325 352 268 c 0
 352 182 389 111 502 111 c 0
 647 111 764 243 803 442 c 2
 942 1098 l 1
 1135 1098 l 1
 971 332 l 2
 959 279 946 211 946 174 c 0
 946 133 971 109 1006 109 c 0
 1041 109 1081 125 1118 143 c 1
 1153 74 l 1
 1098 37 1009 -20 915 -20 c 0
 817 -20 764 59 762 176 c 1
 752 176 l 1
 668 55 580 -20 455 -20 c 0
 342 -20 262 24 223 100 c 1
 205 4 190 -79 190 -147 c 0
 190 -239 219 -299 303 -313 c 1
 291 -434 219 -492 129 -492 c 0
EndSplineSet
EndChar

StartChar: paragraph
Encoding: 182 182 120
Width: 1263
GlyphClass: 1
Flags: HW
LayerCount: 2
Fore
SplineSet
362 -227 m 1
 362 -141 l 1
 389 -141 l 2
 481 -141 557 -123 557 6 c 2
 557 791 l 1
 412 791 l 2
 172 791 98 979 98 1192 c 0
 98 1411 185 1556 416 1556 c 2
 1196 1556 l 1
 1196 1470 l 1
 1169 1470 l 2
 1077 1470 1001 1452 1001 1323 c 2
 1001 6 l 2
 1001 -123 1077 -141 1169 -141 c 2
 1196 -141 l 1
 1196 -227 l 1
 877 -227 l 1
 877 1452 l 1
 682 1452 l 1
 682 -227 l 1
 362 -227 l 1
EndSplineSet
EndChar

StartChar: periodcentered
Encoding: 183 183 121
Width: 585
GlyphClass: 1
Flags: HW
LayerCount: 2
Fore
SplineSet
297 588 m 0
 221 588 170 629 170 713 c 0
 170 807 223 870 305 870 c 0
 377 870 432 829 432 745 c 0
 432 628 363 588 297 588 c 0
EndSplineSet
EndChar

StartChar: cedilla
Encoding: 184 184 122
Width: 681
GlyphClass: 1
Flags: HW
LayerCount: 2
Fore
SplineSet
225 -492 m 0
 182 -492 119 -483 72 -469 c 1
 94 -365 l 1
 141 -375 194 -381 231 -381 c 0
 315 -381 383 -344 383 -256 c 0
 383 -190 330 -147 252 -141 c 1
 330 18 l 1
 426 18 l 1
 387 -70 l 1
 485 -84 551 -152 551 -240 c 0
 551 -416 405 -492 225 -492 c 0
EndSplineSet
EndChar

StartChar: uni00B9
Encoding: 185 185 123
Width: 819
GlyphClass: 1
Flags: HW
LayerCount: 2
Fore
SplineSet
176 793 m 1
 190 862 l 1
 285 862 l 2
 332 862 371 870 385 940 c 2
 510 1530 l 1
 502 1530 l 1
 422 1464 387 1440 328 1440 c 0
 283 1440 260 1475 262 1524 c 1
 385 1536 449 1568 623 1677 c 1
 725 1677 l 1
 582 999 l 2
 576 968 567 933 567 913 c 0
 567 868 600 862 639 862 c 2
 733 862 l 1
 719 793 l 1
 176 793 l 1
EndSplineSet
EndChar

StartChar: ordmasculine
Encoding: 186 186 124
Width: 813
GlyphClass: 2
Flags: HW
AnchorPoint: "Anchor-3" 485 1124 basechar 0
AnchorPoint: "Anchor-1" 399 776 basechar 0
AnchorPoint: "Anchor-0" 555 1473 basechar 0
LayerCount: 2
Fore
SplineSet
420 780 m 0
 250 780 137 870 137 1036 c 0
 137 1220 281 1468 557 1468 c 0
 711 1468 836 1391 836 1217 c 0
 836 1045 707 780 420 780 c 0
420 862 m 0
 578 862 643 1102 643 1241 c 0
 643 1337 609 1386 543 1386 c 0
 393 1386 317 1159 317 1014 c 0
 317 914 357 862 420 862 c 0
EndSplineSet
EndChar

StartChar: guillemotright
Encoding: 187 187 125
Width: 1052
GlyphClass: 1
Flags: HW
LayerCount: 2
Fore
SplineSet
420 164 m 1
 719 563 l 1
 586 942 l 1
 688 942 l 1
 926 586 l 1
 911 520 l 1
 522 164 l 1
 420 164 l 1
49 164 m 1
 348 563 l 1
 215 942 l 1
 317 942 l 1
 555 586 l 1
 541 520 l 1
 152 164 l 1
 49 164 l 1
EndSplineSet
EndChar

StartChar: onequarter
Encoding: 188 188 126
Width: 1785
GlyphClass: 1
Flags: HW
LayerCount: 2
Fore
SplineSet
176 588 m 1
 190 657 l 1
 285 657 l 2
 332 657 371 665 385 735 c 2
 510 1325 l 1
 502 1325 l 1
 422 1259 387 1235 328 1235 c 0
 283 1235 260 1270 262 1319 c 1
 385 1331 449 1364 623 1473 c 1
 725 1473 l 1
 582 795 l 2
 576 764 567 729 567 709 c 0
 567 664 600 657 639 657 c 2
 733 657 l 1
 719 588 l 1
 176 588 l 1
369 0 m 1
 1401 1462 l 1
 1540 1462 l 1
 512 0 l 1
 369 0 l 1
1114 0 m 1
 1128 70 l 1
 1186 70 l 2
 1231 70 1272 77 1286 147 c 2
 1311 260 l 1
 948 260 l 1
 958 330 l 1
 1460 885 l 1
 1624 885 l 1
 1511 348 l 1
 1708 348 l 1
 1690 260 l 1
 1493 260 l 1
 1477 186 l 2
 1471 161 1466 133 1466 121 c 0
 1466 76 1499 70 1538 70 c 2
 1579 70 l 1
 1565 0 l 1
 1114 0 l 1
1085 348 m 1
 1329 348 l 1
 1378 571 l 2
 1392 632 1407 686 1421 735 c 1
 1407 712 1370 666 1339 631 c 2
 1085 348 l 1
EndSplineSet
EndChar

StartChar: onehalf
Encoding: 189 189 127
Width: 1785
GlyphClass: 1
Flags: HW
LayerCount: 2
Fore
SplineSet
176 588 m 1
 190 657 l 1
 285 657 l 2
 332 657 371 665 385 735 c 2
 510 1325 l 1
 502 1325 l 1
 422 1259 387 1235 328 1235 c 0
 283 1235 260 1270 262 1319 c 1
 385 1331 449 1364 623 1473 c 1
 725 1473 l 1
 582 795 l 2
 576 764 567 729 567 709 c 0
 567 664 600 657 639 657 c 2
 733 657 l 1
 719 588 l 1
 176 588 l 1
338 0 m 1
 1370 1462 l 1
 1509 1462 l 1
 481 0 l 1
 338 0 l 1
956 -2 m 1
 967 59 l 1
 1284 322 l 2
 1454 463 1505 561 1505 694 c 0
 1505 753 1479 813 1403 813 c 0
 1311 813 1251 720 1237 618 c 1
 1155 618 1106 660 1106 717 c 0
 1106 819 1222 895 1417 895 c 0
 1581 895 1686 817 1686 700 c 0
 1686 579 1624 485 1403 309 c 2
 1157 115 l 1
 1440 115 l 2
 1503 115 1532 154 1548 199 c 2
 1565 242 l 1
 1634 242 l 1
 1577 -2 l 1
 956 -2 l 1
EndSplineSet
EndChar

StartChar: threequarters
Encoding: 190 190 128
Width: 1785
GlyphClass: 1
Flags: HW
LayerCount: 2
Fore
SplineSet
406 573 m 0
 234 573 137 635 137 731 c 0
 137 805 188 842 254 842 c 1
 254 762 301 666 420 666 c 0
 531 666 614 717 614 848 c 0
 614 930 557 1001 428 1001 c 2
 360 1001 l 1
 377 1085 l 1
 444 1085 l 2
 561 1085 672 1166 672 1305 c 0
 672 1360 644 1401 578 1401 c 0
 474 1401 424 1317 406 1223 c 1
 324 1223 270 1243 270 1309 c 0
 270 1405 387 1483 584 1483 c 0
 772 1483 860 1398 860 1296 c 0
 860 1153 748 1086 598 1055 c 1
 596 1044 l 1
 721 1030 803 969 803 856 c 0
 803 672 639 573 406 573 c 0
397 0 m 1
 1430 1462 l 1
 1569 1462 l 1
 541 0 l 1
 397 0 l 1
1114 0 m 1
 1128 70 l 1
 1186 70 l 2
 1231 70 1272 77 1286 147 c 2
 1311 260 l 1
 948 260 l 1
 958 330 l 1
 1460 885 l 1
 1624 885 l 1
 1511 348 l 1
 1708 348 l 1
 1690 260 l 1
 1493 260 l 1
 1477 186 l 2
 1471 161 1466 133 1466 121 c 0
 1466 76 1499 70 1538 70 c 2
 1579 70 l 1
 1565 0 l 1
 1114 0 l 1
1085 348 m 1
 1329 348 l 1
 1378 571 l 2
 1392 632 1407 686 1421 735 c 1
 1407 712 1370 666 1339 631 c 2
 1085 348 l 1
EndSplineSet
EndChar

StartChar: questiondown
Encoding: 191 191 129
Width: 1024
GlyphClass: 1
Flags: HW
LayerCount: 2
Fore
SplineSet
645 829 m 0
 579 829 530 866 530 938 c 0
 530 1065 606 1110 678 1110 c 0
 746 1110 793 1069 793 997 c 0
 793 901 733 829 645 829 c 0
389 -389 m 0
 151 -389 2 -285 2 -49 c 0
 2 189 219 340 506 444 c 1
 563 682 l 1
 676 682 l 1
 618 379 l 1
 368 287 203 151 203 -66 c 0
 203 -207 286 -287 401 -287 c 0
 573 -287 630 -152 655 4 c 1
 751 4 803 -41 803 -119 c 0
 803 -262 649 -389 389 -389 c 0
EndSplineSet
Substitution2: "'smcp' Lowercase to Small Capitals lookup 39 subtable" questiondown.sc
Substitution2: "'c2sc' Capitals to Small Capitals lookup 38 subtable" questiondown.sc
Substitution2: "'aalt' Access All Alternates lookup 0 subtable" questiondown.sc
EndChar

StartChar: Agrave
Encoding: 192 192 130
Width: 1443
GlyphClass: 2
Flags: HW
AnchorPoint: "Anchor-3" 614 731 basechar 0
AnchorPoint: "Anchor-2" 1597 1462 basechar 0
AnchorPoint: "Anchor-1" 606 0 basechar 0
AnchorPoint: "Anchor-0" 1012 1907 basechar 0
LayerCount: 2
Fore
SplineSet
924 1579 m 1
 836 1663 722 1792 659 1886 c 1
 666 1907 l 1
 870 1907 l 1
 901 1823 963 1690 1008 1606 c 1
 1001 1579 l 1
 924 1579 l 1
-115 0 m 1
 -98 86 l 1
 -59 86 l 2
 21 86 53 115 131 246 c 2
 844 1462 l 1
 1004 1462 l 1
 1198 195 l 2
 1210 109 1239 86 1319 86 c 2
 1346 86 l 1
 1329 0 l 1
 772 0 l 1
 788 86 l 1
 836 86 l 2
 924 86 983 124 983 190 c 0
 983 213 981 242 979 260 c 2
 946 489 l 1
 410 489 l 1
 285 274 l 2
 258 225 246 189 246 160 c 0
 246 109 282 86 360 86 c 2
 408 86 l 1
 391 0 l 1
 -115 0 l 1
688 969 m 2
 469 592 l 1
 932 592 l 1
 881 950 l 2
 865 1071 850 1176 848 1274 c 1
 805 1176 762 1096 688 969 c 2
EndSplineSet
Substitution2: "'c2sc' Capitals to Small Capitals lookup 38 subtable" agrave.sc
Substitution2: "'aalt' Access All Alternates lookup 0 subtable" agrave.sc
Position2: "'cpsp' Capital Spacing lookup 0 subtable" dx=10 dy=0 dh=20 dv=0
EndChar

StartChar: Aacute
Encoding: 193 193 131
Width: 1443
GlyphClass: 2
Flags: HW
AnchorPoint: "Anchor-3" 614 731 basechar 0
AnchorPoint: "Anchor-2" 1597 1462 basechar 0
AnchorPoint: "Anchor-1" 606 0 basechar 0
AnchorPoint: "Anchor-0" 1012 1907 basechar 0
LayerCount: 2
Fore
SplineSet
831 1579 m 1
 838 1606 l 1
 910 1688 996 1807 1057 1907 c 1
 1276 1907 l 1
 1270 1886 l 1
 1202 1804 1038 1653 913 1579 c 1
 831 1579 l 1
-115 0 m 1
 -98 86 l 1
 -59 86 l 2
 21 86 53 115 131 246 c 2
 844 1462 l 1
 1004 1462 l 1
 1198 195 l 2
 1210 109 1239 86 1319 86 c 2
 1346 86 l 1
 1329 0 l 1
 772 0 l 1
 788 86 l 1
 836 86 l 2
 924 86 983 124 983 190 c 0
 983 213 981 242 979 260 c 2
 946 489 l 1
 410 489 l 1
 285 274 l 2
 258 225 246 189 246 160 c 0
 246 109 282 86 360 86 c 2
 408 86 l 1
 391 0 l 1
 -115 0 l 1
688 969 m 2
 469 592 l 1
 932 592 l 1
 881 950 l 2
 865 1071 850 1176 848 1274 c 1
 805 1176 762 1096 688 969 c 2
EndSplineSet
Substitution2: "'c2sc' Capitals to Small Capitals lookup 38 subtable" aacute.sc
Substitution2: "'aalt' Access All Alternates lookup 0 subtable" aacute.sc
Position2: "'cpsp' Capital Spacing lookup 0 subtable" dx=10 dy=0 dh=20 dv=0
EndChar

StartChar: Acircumflex
Encoding: 194 194 132
Width: 1443
GlyphClass: 2
Flags: HW
AnchorPoint: "Anchor-3" 614 731 basechar 0
AnchorPoint: "Anchor-2" 1597 1462 basechar 0
AnchorPoint: "Anchor-1" 606 0 basechar 0
AnchorPoint: "Anchor-0" 1012 1907 basechar 0
LayerCount: 2
Fore
SplineSet
616 1606 m 1
 696 1684 824 1815 887 1907 c 1
 1081 1907 l 1
 1104 1815 1174 1684 1221 1606 c 1
 1214 1579 l 1
 1143 1579 l 1
 1075 1624 1008 1697 961 1763 c 1
 885 1697 786 1624 698 1579 c 1
 610 1579 l 1
 616 1606 l 1
-115 0 m 1
 -98 86 l 1
 -59 86 l 2
 21 86 53 115 131 246 c 2
 844 1462 l 1
 1004 1462 l 1
 1198 195 l 2
 1210 109 1239 86 1319 86 c 2
 1346 86 l 1
 1329 0 l 1
 772 0 l 1
 788 86 l 1
 836 86 l 2
 924 86 983 124 983 190 c 0
 983 213 981 242 979 260 c 2
 946 489 l 1
 410 489 l 1
 285 274 l 2
 258 225 246 189 246 160 c 0
 246 109 282 86 360 86 c 2
 408 86 l 1
 391 0 l 1
 -115 0 l 1
688 969 m 2
 469 592 l 1
 932 592 l 1
 881 950 l 2
 865 1071 850 1176 848 1274 c 1
 805 1176 762 1096 688 969 c 2
EndSplineSet
Substitution2: "'c2sc' Capitals to Small Capitals lookup 38 subtable" acircumflex.sc
Substitution2: "'aalt' Access All Alternates lookup 0 subtable" acircumflex.sc
Position2: "'cpsp' Capital Spacing lookup 0 subtable" dx=10 dy=0 dh=20 dv=0
EndChar

StartChar: Atilde
Encoding: 195 195 133
Width: 1443
GlyphClass: 2
Flags: HW
AnchorPoint: "Anchor-3" 614 731 basechar 0
AnchorPoint: "Anchor-2" 1597 1462 basechar 0
AnchorPoint: "Anchor-1" 606 0 basechar 0
AnchorPoint: "Anchor-0" 997 1841 basechar 0
LayerCount: 2
Fore
SplineSet
1087 1579 m 0
 940 1579 881 1708 793 1708 c 0
 711 1708 690 1654 670 1599 c 1
 578 1599 l 1
 613 1724 699 1841 846 1841 c 0
 991 1841 1053 1712 1139 1712 c 0
 1219 1712 1242 1766 1262 1821 c 1
 1354 1821 l 1
 1319 1696 1232 1579 1087 1579 c 0
-115 0 m 1
 -98 86 l 1
 -59 86 l 2
 21 86 53 115 131 246 c 2
 844 1462 l 1
 1004 1462 l 1
 1198 195 l 2
 1210 109 1239 86 1319 86 c 2
 1346 86 l 1
 1329 0 l 1
 772 0 l 1
 788 86 l 1
 836 86 l 2
 924 86 983 124 983 190 c 0
 983 213 981 242 979 260 c 2
 946 489 l 1
 410 489 l 1
 285 274 l 2
 258 225 246 189 246 160 c 0
 246 109 282 86 360 86 c 2
 408 86 l 1
 391 0 l 1
 -115 0 l 1
688 969 m 2
 469 592 l 1
 932 592 l 1
 881 950 l 2
 865 1071 850 1176 848 1274 c 1
 805 1176 762 1096 688 969 c 2
EndSplineSet
Substitution2: "'c2sc' Capitals to Small Capitals lookup 38 subtable" atilde.sc
Substitution2: "'aalt' Access All Alternates lookup 0 subtable" atilde.sc
Position2: "'cpsp' Capital Spacing lookup 0 subtable" dx=10 dy=0 dh=20 dv=0
EndChar

StartChar: Adieresis
Encoding: 196 196 134
Width: 1443
GlyphClass: 2
Flags: HW
AnchorPoint: "Anchor-3" 614 731 basechar 0
AnchorPoint: "Anchor-2" 1597 1462 basechar 0
AnchorPoint: "Anchor-1" 606 0 basechar 0
AnchorPoint: "Anchor-0" 1004 1864 basechar 0
LayerCount: 2
Fore
SplineSet
1145 1632 m 0
 1084 1632 1042 1665 1042 1735 c 0
 1042 1813 1085 1864 1153 1864 c 0
 1212 1864 1255 1831 1255 1761 c 0
 1255 1665 1198 1632 1145 1632 c 0
756 1632 m 0
 695 1632 653 1665 653 1735 c 0
 653 1813 696 1864 764 1864 c 0
 823 1864 866 1831 866 1761 c 0
 866 1665 809 1632 756 1632 c 0
-115 0 m 1
 -98 86 l 1
 -59 86 l 2
 21 86 53 115 131 246 c 2
 844 1462 l 1
 1004 1462 l 1
 1198 195 l 2
 1210 109 1239 86 1319 86 c 2
 1346 86 l 1
 1329 0 l 1
 772 0 l 1
 788 86 l 1
 836 86 l 2
 924 86 983 124 983 190 c 0
 983 213 981 242 979 260 c 2
 946 489 l 1
 410 489 l 1
 285 274 l 2
 258 225 246 189 246 160 c 0
 246 109 282 86 360 86 c 2
 408 86 l 1
 391 0 l 1
 -115 0 l 1
688 969 m 2
 469 592 l 1
 932 592 l 1
 881 950 l 2
 865 1071 850 1176 848 1274 c 1
 805 1176 762 1096 688 969 c 2
EndSplineSet
Substitution2: "'c2sc' Capitals to Small Capitals lookup 38 subtable" adieresis.sc
Substitution2: "'aalt' Access All Alternates lookup 0 subtable" adieresis.sc
Position2: "'cpsp' Capital Spacing lookup 0 subtable" dx=10 dy=0 dh=20 dv=0
EndChar

StartChar: Aring
Encoding: 197 197 135
Width: 1443
GlyphClass: 2
Flags: HW
AnchorPoint: "Anchor-3" 614 731 basechar 0
AnchorPoint: "Anchor-2" 1597 1462 basechar 0
AnchorPoint: "Anchor-1" 606 0 basechar 0
AnchorPoint: "Anchor-0" 991 1808 basechar 0
LayerCount: 2
Fore
SplineSet
-115 0 m 1
 -98 86 l 1
 -59 86 l 2
 21 86 53 115 131 246 c 2
 797 1384 l 1
 721 1415 668 1485 668 1585 c 0
 668 1730 776 1808 913 1808 c 0
 1050 1808 1159 1730 1159 1585 c 0
 1159 1479 1102 1409 1016 1378 c 1
 1198 195 l 2
 1210 109 1239 86 1319 86 c 2
 1346 86 l 1
 1329 0 l 1
 772 0 l 1
 788 86 l 1
 836 86 l 2
 924 86 983 124 983 190 c 0
 983 213 981 242 979 260 c 2
 946 489 l 1
 410 489 l 1
 285 274 l 2
 258 225 246 189 246 160 c 0
 246 109 282 86 360 86 c 2
 408 86 l 1
 391 0 l 1
 -115 0 l 1
913 1462 m 0
 987 1462 1049 1497 1049 1585 c 0
 1049 1673 987 1708 913 1708 c 0
 839 1708 778 1673 778 1585 c 0
 778 1497 839 1462 913 1462 c 0
688 969 m 2
 469 592 l 1
 932 592 l 1
 881 950 l 2
 865 1071 850 1176 848 1274 c 1
 805 1176 762 1096 688 969 c 2
EndSplineSet
Substitution2: "'c2sc' Capitals to Small Capitals lookup 38 subtable" aring.sc
Substitution2: "'aalt' Access All Alternates lookup 0 subtable" aring.sc
Position2: "'cpsp' Capital Spacing lookup 0 subtable" dx=10 dy=0 dh=20 dv=0
EndChar

StartChar: AE
Encoding: 198 198 136
Width: 1947
GlyphClass: 2
Flags: HW
AnchorPoint: "Anchor-3" 926 731 basechar 0
AnchorPoint: "Anchor-1" 858 0 basechar 0
AnchorPoint: "Anchor-0" 1251 1462 basechar 0
LayerCount: 2
Fore
SplineSet
-119 0 m 1
 -98 86 l 1
 -59 86 l 2
 19 86 56 115 152 246 c 2
 967 1364 l 1
 793 1376 l 1
 811 1462 l 1
 1970 1462 l 1
 1905 1104 l 1
 1798 1104 l 1
 1800 1122 1808 1213 1808 1223 c 0
 1808 1299 1769 1360 1663 1360 c 2
 1319 1360 l 1
 1202 815 l 1
 1696 815 l 1
 1675 715 l 1
 1182 715 l 1
 1051 102 l 1
 1446 102 l 2
 1575 102 1644 180 1677 270 c 2
 1710 358 l 1
 1817 358 l 1
 1726 0 l 1
 629 0 l 1
 645 86 l 1
 672 86 l 2
 762 86 845 100 870 223 c 2
 926 489 l 1
 463 489 l 1
 309 274 l 2
 274 227 254 187 254 154 c 0
 254 107 280 86 358 86 c 2
 401 86 l 1
 385 0 l 1
 -119 0 l 1
539 592 m 1
 948 592 l 1
 1110 1360 l 1
 1071 1360 l 1
 1014 1262 903 1096 811 969 c 2
 539 592 l 1
EndSplineSet
Substitution2: "'c2sc' Capitals to Small Capitals lookup 38 subtable" ae.sc
Substitution2: "'aalt' Access All Alternates lookup 0 subtable" ae.sc
Position2: "'cpsp' Capital Spacing lookup 0 subtable" dx=10 dy=0 dh=20 dv=0
EndChar

StartChar: Ccedilla
Encoding: 199 199 137
Width: 1284
GlyphClass: 2
Flags: HW
AnchorPoint: "Anchor-3" 717 731 basechar 0
AnchorPoint: "Anchor-2" 1438 1462 basechar 0
AnchorPoint: "Anchor-1" 524 -492 basechar 0
AnchorPoint: "Anchor-0" 944 1462 basechar 0
LayerCount: 2
Fore
SplineSet
672 -20 m 1
 649 -70 l 1
 747 -84 813 -152 813 -240 c 0
 813 -416 667 -492 487 -492 c 0
 444 -492 381 -483 334 -469 c 1
 356 -365 l 1
 403 -375 457 -381 494 -381 c 0
 578 -381 645 -344 645 -256 c 0
 645 -190 592 -147 514 -141 c 1
 575 -14 l 1
 278 19 106 211 106 528 c 0
 106 1015 440 1483 950 1483 c 0
 1192 1483 1329 1392 1329 1255 c 0
 1329 1157 1247 1096 1128 1096 c 1
 1128 1209 1102 1374 924 1374 c 0
 547 1374 330 875 330 496 c 0
 330 252 452 113 694 113 c 0
 887 113 1003 207 1073 299 c 1
 1089 287 1100 262 1100 231 c 0
 1100 122 973 -20 672 -20 c 1
EndSplineSet
Substitution2: "'c2sc' Capitals to Small Capitals lookup 38 subtable" ccedilla.sc
Substitution2: "'aalt' Access All Alternates lookup 0 subtable" ccedilla.sc
Position2: "'cpsp' Capital Spacing lookup 0 subtable" dx=10 dy=0 dh=20 dv=0
EndChar

StartChar: Egrave
Encoding: 200 200 138
Width: 1275
GlyphClass: 2
Flags: HW
AnchorPoint: "Anchor-3" 627 731 basechar 0
AnchorPoint: "Anchor-2" 1430 1462 basechar 0
AnchorPoint: "Anchor-1" 522 0 basechar 0
AnchorPoint: "Anchor-0" 928 1907 basechar 0
LayerCount: 2
Fore
SplineSet
850 1579 m 1
 762 1663 649 1792 586 1886 c 1
 592 1907 l 1
 797 1907 l 1
 828 1823 889 1690 934 1606 c 1
 928 1579 l 1
 850 1579 l 1
-43 0 m 1
 -27 86 l 1
 0 86 l 2
 90 86 172 100 199 223 c 2
 412 1229 l 2
 416 1247 418 1264 418 1278 c 0
 418 1364 354 1376 274 1376 c 2
 248 1376 l 1
 266 1462 l 1
 1298 1462 l 1
 1233 1104 l 1
 1126 1104 l 1
 1128 1122 1137 1213 1137 1223 c 0
 1137 1299 1097 1360 991 1360 c 2
 647 1360 l 1
 530 815 l 1
 1024 815 l 1
 1004 715 l 1
 510 715 l 1
 379 102 l 1
 774 102 l 2
 903 102 973 180 1006 270 c 2
 1038 358 l 1
 1145 358 l 1
 1055 0 l 1
 -43 0 l 1
EndSplineSet
Substitution2: "'c2sc' Capitals to Small Capitals lookup 38 subtable" egrave.sc
Substitution2: "'aalt' Access All Alternates lookup 0 subtable" egrave.sc
Position2: "'cpsp' Capital Spacing lookup 0 subtable" dx=10 dy=0 dh=20 dv=0
EndChar

StartChar: Eacute
Encoding: 201 201 139
Width: 1275
GlyphClass: 2
Flags: HW
AnchorPoint: "Anchor-3" 627 731 basechar 0
AnchorPoint: "Anchor-2" 1430 1462 basechar 0
AnchorPoint: "Anchor-1" 522 0 basechar 0
AnchorPoint: "Anchor-0" 928 1907 basechar 0
LayerCount: 2
Fore
SplineSet
719 1579 m 1
 725 1606 l 1
 797 1688 883 1807 944 1907 c 1
 1163 1907 l 1
 1157 1886 l 1
 1089 1804 926 1653 801 1579 c 1
 719 1579 l 1
-43 0 m 1
 -27 86 l 1
 0 86 l 2
 90 86 172 100 199 223 c 2
 412 1229 l 2
 416 1247 418 1264 418 1278 c 0
 418 1364 354 1376 274 1376 c 2
 248 1376 l 1
 266 1462 l 1
 1298 1462 l 1
 1233 1104 l 1
 1126 1104 l 1
 1128 1122 1137 1213 1137 1223 c 0
 1137 1299 1097 1360 991 1360 c 2
 647 1360 l 1
 530 815 l 1
 1024 815 l 1
 1004 715 l 1
 510 715 l 1
 379 102 l 1
 774 102 l 2
 903 102 973 180 1006 270 c 2
 1038 358 l 1
 1145 358 l 1
 1055 0 l 1
 -43 0 l 1
EndSplineSet
Substitution2: "'c2sc' Capitals to Small Capitals lookup 38 subtable" eacute.sc
Substitution2: "'aalt' Access All Alternates lookup 0 subtable" eacute.sc
Position2: "'cpsp' Capital Spacing lookup 0 subtable" dx=10 dy=0 dh=20 dv=0
EndChar

StartChar: Ecircumflex
Encoding: 202 202 140
Width: 1275
GlyphClass: 2
Flags: HW
AnchorPoint: "Anchor-3" 627 731 basechar 0
AnchorPoint: "Anchor-2" 1430 1462 basechar 0
AnchorPoint: "Anchor-1" 522 0 basechar 0
AnchorPoint: "Anchor-0" 928 1907 basechar 0
LayerCount: 2
Fore
SplineSet
551 1606 m 1
 631 1684 758 1815 821 1907 c 1
 1016 1907 l 1
 1039 1815 1108 1684 1155 1606 c 1
 1149 1579 l 1
 1077 1579 l 1
 1009 1624 942 1697 895 1763 c 1
 819 1697 721 1624 633 1579 c 1
 545 1579 l 1
 551 1606 l 1
-43 0 m 1
 -27 86 l 1
 0 86 l 2
 90 86 172 100 199 223 c 2
 412 1229 l 2
 416 1247 418 1264 418 1278 c 0
 418 1364 354 1376 274 1376 c 2
 248 1376 l 1
 266 1462 l 1
 1298 1462 l 1
 1233 1104 l 1
 1126 1104 l 1
 1128 1122 1137 1213 1137 1223 c 0
 1137 1299 1097 1360 991 1360 c 2
 647 1360 l 1
 530 815 l 1
 1024 815 l 1
 1004 715 l 1
 510 715 l 1
 379 102 l 1
 774 102 l 2
 903 102 973 180 1006 270 c 2
 1038 358 l 1
 1145 358 l 1
 1055 0 l 1
 -43 0 l 1
EndSplineSet
Substitution2: "'c2sc' Capitals to Small Capitals lookup 38 subtable" ecircumflex.sc
Substitution2: "'aalt' Access All Alternates lookup 0 subtable" ecircumflex.sc
Position2: "'cpsp' Capital Spacing lookup 0 subtable" dx=10 dy=0 dh=20 dv=0
EndChar

StartChar: Edieresis
Encoding: 203 203 141
Width: 1275
GlyphClass: 2
Flags: HW
AnchorPoint: "Anchor-3" 627 731 basechar 0
AnchorPoint: "Anchor-2" 1430 1462 basechar 0
AnchorPoint: "Anchor-1" 522 0 basechar 0
AnchorPoint: "Anchor-0" 920 1864 basechar 0
LayerCount: 2
Fore
SplineSet
1032 1632 m 0
 971 1632 930 1665 930 1735 c 0
 930 1813 972 1864 1040 1864 c 0
 1099 1864 1143 1831 1143 1761 c 0
 1143 1665 1085 1632 1032 1632 c 0
643 1632 m 0
 582 1632 541 1665 541 1735 c 0
 541 1813 583 1864 651 1864 c 0
 710 1864 754 1831 754 1761 c 0
 754 1665 696 1632 643 1632 c 0
-43 0 m 1
 -27 86 l 1
 0 86 l 2
 90 86 172 100 199 223 c 2
 412 1229 l 2
 416 1247 418 1264 418 1278 c 0
 418 1364 354 1376 274 1376 c 2
 248 1376 l 1
 266 1462 l 1
 1298 1462 l 1
 1233 1104 l 1
 1126 1104 l 1
 1128 1122 1137 1213 1137 1223 c 0
 1137 1299 1097 1360 991 1360 c 2
 647 1360 l 1
 530 815 l 1
 1024 815 l 1
 1004 715 l 1
 510 715 l 1
 379 102 l 1
 774 102 l 2
 903 102 973 180 1006 270 c 2
 1038 358 l 1
 1145 358 l 1
 1055 0 l 1
 -43 0 l 1
EndSplineSet
Substitution2: "'c2sc' Capitals to Small Capitals lookup 38 subtable" edieresis.sc
Substitution2: "'aalt' Access All Alternates lookup 0 subtable" edieresis.sc
Position2: "'cpsp' Capital Spacing lookup 0 subtable" dx=10 dy=0 dh=20 dv=0
EndChar

StartChar: Igrave
Encoding: 204 204 142
Width: 751
GlyphClass: 2
Flags: HW
AnchorPoint: "Anchor-3" 410 731 basechar 0
AnchorPoint: "Anchor-2" 905 1462 basechar 0
AnchorPoint: "Anchor-1" 260 0 basechar 0
AnchorPoint: "Anchor-0" 666 1907 basechar 0
LayerCount: 2
Fore
SplineSet
606 1579 m 1
 518 1663 405 1792 342 1886 c 1
 348 1907 l 1
 553 1907 l 1
 584 1823 645 1690 690 1606 c 1
 684 1579 l 1
 606 1579 l 1
-43 0 m 1
 -27 86 l 1
 0 86 l 2
 92 86 174 104 201 233 c 2
 414 1237 l 2
 418 1253 422 1282 422 1294 c 0
 422 1364 360 1376 274 1376 c 2
 248 1376 l 1
 266 1462 l 1
 862 1462 l 1
 844 1376 l 1
 817 1376 l 2
 725 1376 645 1358 618 1229 c 2
 406 225 l 2
 402 209 397 180 397 168 c 0
 397 98 459 86 545 86 c 2
 571 86 l 1
 553 0 l 1
 -43 0 l 1
EndSplineSet
Substitution2: "'c2sc' Capitals to Small Capitals lookup 38 subtable" igrave.sc
Substitution2: "'aalt' Access All Alternates lookup 0 subtable" igrave.sc
Position2: "'cpsp' Capital Spacing lookup 0 subtable" dx=10 dy=0 dh=20 dv=0
EndChar

StartChar: Iacute
Encoding: 205 205 143
Width: 751
GlyphClass: 2
Flags: HW
AnchorPoint: "Anchor-3" 410 731 basechar 0
AnchorPoint: "Anchor-2" 905 1462 basechar 0
AnchorPoint: "Anchor-1" 260 0 basechar 0
AnchorPoint: "Anchor-0" 666 1907 basechar 0
LayerCount: 2
Fore
SplineSet
469 1579 m 1
 475 1606 l 1
 547 1688 633 1807 694 1907 c 1
 913 1907 l 1
 907 1886 l 1
 839 1804 676 1653 551 1579 c 1
 469 1579 l 1
-43 0 m 1
 -27 86 l 1
 0 86 l 2
 92 86 174 104 201 233 c 2
 414 1237 l 2
 418 1253 422 1282 422 1294 c 0
 422 1364 360 1376 274 1376 c 2
 248 1376 l 1
 266 1462 l 1
 862 1462 l 1
 844 1376 l 1
 817 1376 l 2
 725 1376 645 1358 618 1229 c 2
 406 225 l 2
 402 209 397 180 397 168 c 0
 397 98 459 86 545 86 c 2
 571 86 l 1
 553 0 l 1
 -43 0 l 1
EndSplineSet
Substitution2: "'c2sc' Capitals to Small Capitals lookup 38 subtable" iacute.sc
Substitution2: "'aalt' Access All Alternates lookup 0 subtable" iacute.sc
Position2: "'cpsp' Capital Spacing lookup 0 subtable" dx=10 dy=0 dh=20 dv=0
EndChar

StartChar: Icircumflex
Encoding: 206 206 144
Width: 751
GlyphClass: 2
Flags: HW
AnchorPoint: "Anchor-3" 410 731 basechar 0
AnchorPoint: "Anchor-2" 905 1462 basechar 0
AnchorPoint: "Anchor-1" 260 0 basechar 0
AnchorPoint: "Anchor-0" 666 1907 basechar 0
LayerCount: 2
Fore
SplineSet
279 1606 m 1
 359 1684 486 1815 549 1907 c 1
 743 1907 l 1
 766 1815 836 1684 883 1606 c 1
 877 1579 l 1
 805 1579 l 1
 737 1624 670 1697 623 1763 c 1
 547 1697 448 1624 360 1579 c 1
 272 1579 l 1
 279 1606 l 1
-43 0 m 1
 -27 86 l 1
 0 86 l 2
 92 86 174 104 201 233 c 2
 414 1237 l 2
 418 1253 422 1282 422 1294 c 0
 422 1364 360 1376 274 1376 c 2
 248 1376 l 1
 266 1462 l 1
 862 1462 l 1
 844 1376 l 1
 817 1376 l 2
 725 1376 645 1358 618 1229 c 2
 406 225 l 2
 402 209 397 180 397 168 c 0
 397 98 459 86 545 86 c 2
 571 86 l 1
 553 0 l 1
 -43 0 l 1
EndSplineSet
Substitution2: "'c2sc' Capitals to Small Capitals lookup 38 subtable" icircumflex.sc
Substitution2: "'aalt' Access All Alternates lookup 0 subtable" icircumflex.sc
Position2: "'cpsp' Capital Spacing lookup 0 subtable" dx=10 dy=0 dh=20 dv=0
EndChar

StartChar: Idieresis
Encoding: 207 207 145
Width: 751
GlyphClass: 2
Flags: HW
AnchorPoint: "Anchor-3" 410 731 basechar 0
AnchorPoint: "Anchor-2" 905 1462 basechar 0
AnchorPoint: "Anchor-1" 260 0 basechar 0
AnchorPoint: "Anchor-0" 657 1864 basechar 0
LayerCount: 2
Fore
SplineSet
793 1632 m 0
 732 1632 690 1665 690 1735 c 0
 690 1813 733 1864 801 1864 c 0
 860 1864 903 1831 903 1761 c 0
 903 1665 846 1632 793 1632 c 0
403 1632 m 0
 342 1632 301 1665 301 1735 c 0
 301 1813 344 1864 412 1864 c 0
 471 1864 514 1831 514 1761 c 0
 514 1665 456 1632 403 1632 c 0
-43 0 m 1
 -27 86 l 1
 0 86 l 2
 92 86 174 104 201 233 c 2
 414 1237 l 2
 418 1253 422 1282 422 1294 c 0
 422 1364 360 1376 274 1376 c 2
 248 1376 l 1
 266 1462 l 1
 862 1462 l 1
 844 1376 l 1
 817 1376 l 2
 725 1376 645 1358 618 1229 c 2
 406 225 l 2
 402 209 397 180 397 168 c 0
 397 98 459 86 545 86 c 2
 571 86 l 1
 553 0 l 1
 -43 0 l 1
EndSplineSet
Substitution2: "'c2sc' Capitals to Small Capitals lookup 38 subtable" idieresis.sc
Substitution2: "'aalt' Access All Alternates lookup 0 subtable" idieresis.sc
Position2: "'cpsp' Capital Spacing lookup 0 subtable" dx=10 dy=0 dh=20 dv=0
EndChar

StartChar: Eth
Encoding: 208 208 146
Width: 1484
GlyphClass: 2
Flags: HW
AnchorPoint: "Anchor-3" 821 731 basechar 0
AnchorPoint: "Anchor-2" 1638 1462 basechar 0
AnchorPoint: "Anchor-1" 627 0 basechar 0
AnchorPoint: "Anchor-0" 938 1462 basechar 0
LayerCount: 2
Fore
SplineSet
-43 0 m 1
 -27 86 l 1
 0 86 l 2
 92 86 174 104 201 233 c 2
 303 715 l 1
 104 715 l 1
 127 815 l 1
 324 815 l 1
 414 1237 l 2
 418 1255 422 1278 422 1294 c 0
 422 1368 348 1376 274 1376 c 2
 248 1376 l 1
 266 1462 l 1
 840 1462 l 2
 1209 1462 1421 1267 1421 905 c 0
 1421 418 1132 0 602 0 c 2
 -43 0 l 1
557 104 m 2
 960 104 1198 445 1198 928 c 0
 1198 1227 1047 1360 809 1360 c 2
 647 1360 l 1
 530 815 l 1
 877 815 l 1
 854 715 l 1
 510 715 l 1
 379 104 l 1
 557 104 l 2
EndSplineSet
Substitution2: "'c2sc' Capitals to Small Capitals lookup 38 subtable" eth.sc
Substitution2: "'aalt' Access All Alternates lookup 0 subtable" eth.sc
Position2: "'cpsp' Capital Spacing lookup 0 subtable" dx=10 dy=0 dh=20 dv=0
EndChar

StartChar: Ntilde
Encoding: 209 209 147
Width: 1562
GlyphClass: 2
Flags: HW
AnchorPoint: "Anchor-3" 825 731 basechar 0
AnchorPoint: "Anchor-2" 1716 1462 basechar 0
AnchorPoint: "Anchor-1" 666 0 basechar 0
AnchorPoint: "Anchor-0" 1057 1841 basechar 0
LayerCount: 2
Fore
SplineSet
1174 1579 m 0
 1027 1579 967 1708 879 1708 c 0
 797 1708 776 1654 756 1599 c 1
 664 1599 l 1
 699 1724 785 1841 932 1841 c 0
 1077 1841 1139 1712 1225 1712 c 0
 1305 1712 1328 1766 1348 1821 c 1
 1440 1821 l 1
 1405 1696 1319 1579 1174 1579 c 0
-41 0 m 1
 -23 86 l 1
 4 86 l 2
 94 86 172 104 201 233 c 2
 414 1237 l 2
 418 1253 422 1282 422 1294 c 0
 422 1364 360 1376 274 1376 c 2
 248 1376 l 1
 266 1462 l 1
 639 1462 l 1
 1135 332 l 1
 1327 1237 l 2
 1331 1253 1335 1282 1335 1294 c 0
 1335 1364 1274 1376 1188 1376 c 2
 1161 1376 l 1
 1180 1462 l 1
 1694 1462 l 1
 1675 1376 l 1
 1649 1376 l 2
 1557 1376 1479 1358 1450 1229 c 2
 1190 0 l 1
 1057 0 l 1
 530 1200 l 1
 324 225 l 2
 320 209 315 180 315 168 c 0
 315 98 377 86 463 86 c 2
 489 86 l 1
 471 0 l 1
 -41 0 l 1
EndSplineSet
Substitution2: "'c2sc' Capitals to Small Capitals lookup 38 subtable" ntilde.sc
Substitution2: "'aalt' Access All Alternates lookup 0 subtable" ntilde.sc
Position2: "'cpsp' Capital Spacing lookup 0 subtable" dx=10 dy=0 dh=20 dv=0
EndChar

StartChar: Ograve
Encoding: 210 210 148
Width: 1519
GlyphClass: 2
Flags: HW
AnchorPoint: "Anchor-3" 838 731 basechar 0
AnchorPoint: "Anchor-2" 1673 1462 basechar 0
AnchorPoint: "Anchor-1" 643 0 basechar 0
AnchorPoint: "Anchor-0" 1049 1907 basechar 0
LayerCount: 2
Fore
SplineSet
1022 1579 m 1
 934 1663 821 1792 758 1886 c 1
 764 1907 l 1
 969 1907 l 1
 1000 1823 1061 1690 1106 1606 c 1
 1100 1579 l 1
 1022 1579 l 1
643 -23 m 0
 340 -23 106 174 106 545 c 0
 106 938 383 1485 926 1485 c 0
 1209 1485 1456 1313 1456 922 c 0
 1456 545 1192 -23 643 -23 c 0
655 90 m 0
 1052 90 1231 645 1231 977 c 0
 1231 1253 1095 1374 909 1374 c 0
 512 1374 330 819 330 487 c 0
 330 208 473 90 655 90 c 0
EndSplineSet
Substitution2: "'c2sc' Capitals to Small Capitals lookup 38 subtable" ograve.sc
Substitution2: "'aalt' Access All Alternates lookup 0 subtable" ograve.sc
Position2: "'cpsp' Capital Spacing lookup 0 subtable" dx=10 dy=0 dh=20 dv=0
EndChar

StartChar: Oacute
Encoding: 211 211 149
Width: 1519
GlyphClass: 2
Flags: HW
AnchorPoint: "Anchor-3" 838 731 basechar 0
AnchorPoint: "Anchor-2" 1673 1462 basechar 0
AnchorPoint: "Anchor-1" 643 0 basechar 0
AnchorPoint: "Anchor-0" 1049 1907 basechar 0
LayerCount: 2
Fore
SplineSet
821 1579 m 1
 827 1606 l 1
 899 1688 986 1807 1047 1907 c 1
 1266 1907 l 1
 1260 1886 l 1
 1192 1804 1028 1653 903 1579 c 1
 821 1579 l 1
643 -23 m 0
 340 -23 106 174 106 545 c 0
 106 938 383 1485 926 1485 c 0
 1209 1485 1456 1313 1456 922 c 0
 1456 545 1192 -23 643 -23 c 0
655 90 m 0
 1052 90 1231 645 1231 977 c 0
 1231 1253 1095 1374 909 1374 c 0
 512 1374 330 819 330 487 c 0
 330 208 473 90 655 90 c 0
EndSplineSet
Substitution2: "'c2sc' Capitals to Small Capitals lookup 38 subtable" oacute.sc
Substitution2: "'aalt' Access All Alternates lookup 0 subtable" oacute.sc
Position2: "'cpsp' Capital Spacing lookup 0 subtable" dx=10 dy=0 dh=20 dv=0
EndChar

StartChar: Ocircumflex
Encoding: 212 212 150
Width: 1519
GlyphClass: 2
Flags: HW
AnchorPoint: "Anchor-3" 838 731 basechar 0
AnchorPoint: "Anchor-2" 1673 1462 basechar 0
AnchorPoint: "Anchor-1" 643 0 basechar 0
AnchorPoint: "Anchor-0" 1049 1907 basechar 0
LayerCount: 2
Fore
SplineSet
639 1606 m 1
 719 1684 846 1815 909 1907 c 1
 1104 1907 l 1
 1127 1815 1196 1684 1243 1606 c 1
 1237 1579 l 1
 1165 1579 l 1
 1097 1624 1030 1697 983 1763 c 1
 907 1697 809 1624 721 1579 c 1
 633 1579 l 1
 639 1606 l 1
643 -23 m 0
 340 -23 106 174 106 545 c 0
 106 938 383 1485 926 1485 c 0
 1209 1485 1456 1313 1456 922 c 0
 1456 545 1192 -23 643 -23 c 0
655 90 m 0
 1052 90 1231 645 1231 977 c 0
 1231 1253 1095 1374 909 1374 c 0
 512 1374 330 819 330 487 c 0
 330 208 473 90 655 90 c 0
EndSplineSet
Substitution2: "'c2sc' Capitals to Small Capitals lookup 38 subtable" ocircumflex.sc
Substitution2: "'aalt' Access All Alternates lookup 0 subtable" ocircumflex.sc
Position2: "'cpsp' Capital Spacing lookup 0 subtable" dx=10 dy=0 dh=20 dv=0
EndChar

StartChar: Otilde
Encoding: 213 213 151
Width: 1519
GlyphClass: 2
Flags: HW
AnchorPoint: "Anchor-3" 838 731 basechar 0
AnchorPoint: "Anchor-2" 1673 1462 basechar 0
AnchorPoint: "Anchor-1" 643 0 basechar 0
AnchorPoint: "Anchor-0" 1034 1841 basechar 0
LayerCount: 2
Fore
SplineSet
1098 1579 m 0
 951 1579 891 1708 803 1708 c 0
 721 1708 700 1654 680 1599 c 1
 588 1599 l 1
 623 1724 709 1841 856 1841 c 0
 1001 1841 1063 1712 1149 1712 c 0
 1229 1712 1252 1766 1272 1821 c 1
 1364 1821 l 1
 1329 1696 1243 1579 1098 1579 c 0
643 -23 m 0
 340 -23 106 174 106 545 c 0
 106 938 383 1485 926 1485 c 0
 1209 1485 1456 1313 1456 922 c 0
 1456 545 1192 -23 643 -23 c 0
655 90 m 0
 1052 90 1231 645 1231 977 c 0
 1231 1253 1095 1374 909 1374 c 0
 512 1374 330 819 330 487 c 0
 330 208 473 90 655 90 c 0
EndSplineSet
Substitution2: "'c2sc' Capitals to Small Capitals lookup 38 subtable" otilde.sc
Substitution2: "'aalt' Access All Alternates lookup 0 subtable" otilde.sc
Position2: "'cpsp' Capital Spacing lookup 0 subtable" dx=10 dy=0 dh=20 dv=0
EndChar

StartChar: Odieresis
Encoding: 214 214 152
Width: 1519
GlyphClass: 2
Flags: HW
AnchorPoint: "Anchor-3" 838 731 basechar 0
AnchorPoint: "Anchor-2" 1673 1462 basechar 0
AnchorPoint: "Anchor-1" 643 0 basechar 0
AnchorPoint: "Anchor-0" 1040 1864 basechar 0
LayerCount: 2
Fore
SplineSet
1169 1632 m 0
 1108 1632 1067 1665 1067 1735 c 0
 1067 1813 1110 1864 1178 1864 c 0
 1237 1864 1280 1831 1280 1761 c 0
 1280 1665 1222 1632 1169 1632 c 0
780 1632 m 0
 719 1632 678 1665 678 1735 c 0
 678 1813 720 1864 788 1864 c 0
 847 1864 891 1831 891 1761 c 0
 891 1665 833 1632 780 1632 c 0
643 -23 m 0
 340 -23 106 174 106 545 c 0
 106 938 383 1485 926 1485 c 0
 1209 1485 1456 1313 1456 922 c 0
 1456 545 1192 -23 643 -23 c 0
655 90 m 0
 1052 90 1231 645 1231 977 c 0
 1231 1253 1095 1374 909 1374 c 0
 512 1374 330 819 330 487 c 0
 330 208 473 90 655 90 c 0
EndSplineSet
Substitution2: "'c2sc' Capitals to Small Capitals lookup 38 subtable" odieresis.sc
Substitution2: "'aalt' Access All Alternates lookup 0 subtable" odieresis.sc
Position2: "'cpsp' Capital Spacing lookup 0 subtable" dx=10 dy=0 dh=20 dv=0
EndChar

StartChar: multiply
Encoding: 215 215 153
Width: 1144
GlyphClass: 1
Flags: HW
LayerCount: 2
Fore
SplineSet
231 307 m 1
 145 395 l 1
 485 735 l 1
 145 1073 l 1
 231 1159 l 1
 571 819 l 1
 911 1161 l 1
 997 1073 l 1
 657 733 l 1
 997 393 l 1
 911 307 l 1
 571 647 l 1
 231 307 l 1
EndSplineSet
EndChar

StartChar: Oslash
Encoding: 216 216 154
Width: 1519
GlyphClass: 2
Flags: HW
AnchorPoint: "Anchor-3" 838 731 basechar 0
AnchorPoint: "Anchor-2" 1673 1462 basechar 0
AnchorPoint: "Anchor-1" 643 0 basechar 0
AnchorPoint: "Anchor-0" 954 1462 basechar 0
LayerCount: 2
Fore
SplineSet
137 -82 m 1
 276 109 l 1
 170 203 106 350 106 545 c 0
 106 938 383 1485 926 1485 c 0
 1035 1485 1137 1460 1223 1407 c 1
 1323 1546 l 1
 1442 1546 l 1
 1298 1350 l 1
 1394 1258 1456 1117 1456 922 c 0
 1456 545 1192 -23 643 -23 c 0
 537 -23 436 2 354 51 c 1
 258 -82 l 1
 137 -82 l 1
330 487 m 0
 330 389 348 311 379 250 c 1
 1135 1286 l 1
 1078 1345 999 1374 909 1374 c 0
 512 1374 330 819 330 487 c 0
655 90 m 0
 1052 90 1231 645 1231 977 c 0
 1231 1067 1217 1141 1190 1200 c 1
 440 168 l 1
 497 115 571 90 655 90 c 0
EndSplineSet
Substitution2: "'c2sc' Capitals to Small Capitals lookup 38 subtable" oslash.sc
Substitution2: "'aalt' Access All Alternates lookup 0 subtable" oslash.sc
Position2: "'cpsp' Capital Spacing lookup 0 subtable" dx=10 dy=0 dh=20 dv=0
EndChar

StartChar: Ugrave
Encoding: 217 217 155
Width: 1495
GlyphClass: 2
Flags: HW
AnchorPoint: "Anchor-3" 913 721 basechar 0
AnchorPoint: "Anchor-2" 1649 1462 basechar 0
AnchorPoint: "Anchor-1" 631 0 basechar 0
AnchorPoint: "Anchor-0" 1036 1907 basechar 0
LayerCount: 2
Fore
SplineSet
981 1579 m 1
 893 1663 780 1792 717 1886 c 1
 723 1907 l 1
 928 1907 l 1
 959 1823 1020 1690 1065 1606 c 1
 1059 1579 l 1
 981 1579 l 1
662 -20 m 0
 363 -20 197 109 197 334 c 0
 197 377 209 469 219 516 c 2
 371 1237 l 2
 375 1253 379 1282 379 1294 c 0
 379 1364 317 1376 231 1376 c 2
 205 1376 l 1
 223 1462 l 1
 819 1462 l 1
 803 1376 l 1
 776 1376 l 2
 686 1376 604 1358 575 1229 c 2
 422 506 l 2
 408 436 397 372 397 315 c 0
 397 176 506 102 692 102 c 0
 958 102 1051 242 1090 422 c 2
 1264 1237 l 2
 1268 1253 1272 1282 1272 1294 c 0
 1272 1364 1210 1376 1124 1376 c 2
 1098 1376 l 1
 1116 1462 l 1
 1630 1462 l 1
 1614 1376 l 1
 1587 1376 l 2
 1497 1376 1415 1358 1386 1229 c 2
 1214 418 l 2
 1157 146 988 -20 662 -20 c 0
EndSplineSet
Substitution2: "'c2sc' Capitals to Small Capitals lookup 38 subtable" ugrave.sc
Substitution2: "'aalt' Access All Alternates lookup 0 subtable" ugrave.sc
Position2: "'cpsp' Capital Spacing lookup 0 subtable" dx=10 dy=0 dh=20 dv=0
EndChar

StartChar: Uacute
Encoding: 218 218 156
Width: 1495
GlyphClass: 2
Flags: HW
AnchorPoint: "Anchor-3" 913 721 basechar 0
AnchorPoint: "Anchor-2" 1649 1462 basechar 0
AnchorPoint: "Anchor-1" 631 0 basechar 0
AnchorPoint: "Anchor-0" 1036 1907 basechar 0
LayerCount: 2
Fore
SplineSet
858 1579 m 1
 864 1606 l 1
 936 1688 1022 1807 1083 1907 c 1
 1303 1907 l 1
 1296 1886 l 1
 1228 1804 1065 1653 940 1579 c 1
 858 1579 l 1
662 -20 m 0
 363 -20 197 109 197 334 c 0
 197 377 209 469 219 516 c 2
 371 1237 l 2
 375 1253 379 1282 379 1294 c 0
 379 1364 317 1376 231 1376 c 2
 205 1376 l 1
 223 1462 l 1
 819 1462 l 1
 803 1376 l 1
 776 1376 l 2
 686 1376 604 1358 575 1229 c 2
 422 506 l 2
 408 436 397 372 397 315 c 0
 397 176 506 102 692 102 c 0
 958 102 1051 242 1090 422 c 2
 1264 1237 l 2
 1268 1253 1272 1282 1272 1294 c 0
 1272 1364 1210 1376 1124 1376 c 2
 1098 1376 l 1
 1116 1462 l 1
 1630 1462 l 1
 1614 1376 l 1
 1587 1376 l 2
 1497 1376 1415 1358 1386 1229 c 2
 1214 418 l 2
 1157 146 988 -20 662 -20 c 0
EndSplineSet
Substitution2: "'c2sc' Capitals to Small Capitals lookup 38 subtable" uacute.sc
Substitution2: "'aalt' Access All Alternates lookup 0 subtable" uacute.sc
Position2: "'cpsp' Capital Spacing lookup 0 subtable" dx=10 dy=0 dh=20 dv=0
EndChar

StartChar: Ucircumflex
Encoding: 219 219 157
Width: 1495
GlyphClass: 2
Flags: HW
AnchorPoint: "Anchor-3" 913 721 basechar 0
AnchorPoint: "Anchor-2" 1649 1462 basechar 0
AnchorPoint: "Anchor-1" 631 0 basechar 0
AnchorPoint: "Anchor-0" 1036 1907 basechar 0
LayerCount: 2
Fore
SplineSet
680 1606 m 1
 760 1684 887 1815 950 1907 c 1
 1145 1907 l 1
 1168 1815 1237 1684 1284 1606 c 1
 1278 1579 l 1
 1206 1579 l 1
 1138 1624 1071 1697 1024 1763 c 1
 948 1697 850 1624 762 1579 c 1
 674 1579 l 1
 680 1606 l 1
662 -20 m 0
 363 -20 197 109 197 334 c 0
 197 377 209 469 219 516 c 2
 371 1237 l 2
 375 1253 379 1282 379 1294 c 0
 379 1364 317 1376 231 1376 c 2
 205 1376 l 1
 223 1462 l 1
 819 1462 l 1
 803 1376 l 1
 776 1376 l 2
 686 1376 604 1358 575 1229 c 2
 422 506 l 2
 408 436 397 372 397 315 c 0
 397 176 506 102 692 102 c 0
 958 102 1051 242 1090 422 c 2
 1264 1237 l 2
 1268 1253 1272 1282 1272 1294 c 0
 1272 1364 1210 1376 1124 1376 c 2
 1098 1376 l 1
 1116 1462 l 1
 1630 1462 l 1
 1614 1376 l 1
 1587 1376 l 2
 1497 1376 1415 1358 1386 1229 c 2
 1214 418 l 2
 1157 146 988 -20 662 -20 c 0
EndSplineSet
Substitution2: "'c2sc' Capitals to Small Capitals lookup 38 subtable" ucircumflex.sc
Substitution2: "'aalt' Access All Alternates lookup 0 subtable" ucircumflex.sc
Position2: "'cpsp' Capital Spacing lookup 0 subtable" dx=10 dy=0 dh=20 dv=0
EndChar

StartChar: Udieresis
Encoding: 220 220 158
Width: 1495
GlyphClass: 2
Flags: HW
AnchorPoint: "Anchor-3" 913 721 basechar 0
AnchorPoint: "Anchor-2" 1649 1462 basechar 0
AnchorPoint: "Anchor-1" 631 0 basechar 0
AnchorPoint: "Anchor-0" 1028 1864 basechar 0
LayerCount: 2
Fore
SplineSet
1163 1632 m 0
 1102 1632 1061 1665 1061 1735 c 0
 1061 1813 1103 1864 1171 1864 c 0
 1230 1864 1274 1831 1274 1761 c 0
 1274 1665 1216 1632 1163 1632 c 0
774 1632 m 0
 713 1632 672 1665 672 1735 c 0
 672 1813 714 1864 782 1864 c 0
 841 1864 885 1831 885 1761 c 0
 885 1665 827 1632 774 1632 c 0
662 -20 m 0
 363 -20 197 109 197 334 c 0
 197 377 209 469 219 516 c 2
 371 1237 l 2
 375 1253 379 1282 379 1294 c 0
 379 1364 317 1376 231 1376 c 2
 205 1376 l 1
 223 1462 l 1
 819 1462 l 1
 803 1376 l 1
 776 1376 l 2
 686 1376 604 1358 575 1229 c 2
 422 506 l 2
 408 436 397 372 397 315 c 0
 397 176 506 102 692 102 c 0
 958 102 1051 242 1090 422 c 2
 1264 1237 l 2
 1268 1253 1272 1282 1272 1294 c 0
 1272 1364 1210 1376 1124 1376 c 2
 1098 1376 l 1
 1116 1462 l 1
 1630 1462 l 1
 1614 1376 l 1
 1587 1376 l 2
 1497 1376 1415 1358 1386 1229 c 2
 1214 418 l 2
 1157 146 988 -20 662 -20 c 0
EndSplineSet
Substitution2: "'c2sc' Capitals to Small Capitals lookup 38 subtable" udieresis.sc
Substitution2: "'aalt' Access All Alternates lookup 0 subtable" udieresis.sc
Position2: "'cpsp' Capital Spacing lookup 0 subtable" dx=10 dy=0 dh=20 dv=0
EndChar

StartChar: Yacute
Encoding: 221 221 159
Width: 1280
GlyphClass: 2
Flags: HW
AnchorPoint: "Anchor-3" 815 731 basechar 0
AnchorPoint: "Anchor-2" 1434 1462 basechar 0
AnchorPoint: "Anchor-1" 524 0 basechar 0
AnchorPoint: "Anchor-0" 930 1907 basechar 0
LayerCount: 2
Fore
SplineSet
764 1579 m 1
 770 1606 l 1
 842 1688 928 1807 989 1907 c 1
 1208 1907 l 1
 1202 1886 l 1
 1134 1804 971 1653 846 1579 c 1
 764 1579 l 1
203 0 m 1
 221 86 l 1
 268 86 l 2
 358 86 438 100 465 223 c 2
 545 600 l 1
 307 1268 l 2
 278 1346 264 1376 184 1376 c 2
 158 1376 l 1
 176 1462 l 1
 729 1462 l 1
 711 1376 l 1
 608 1376 l 2
 553 1376 524 1356 524 1321 c 0
 524 1286 535 1249 551 1202 c 2
 643 928 l 2
 672 844 694 750 698 682 c 1
 729 739 784 807 858 905 c 2
 1049 1159 l 2
 1100 1229 1122 1280 1122 1323 c 0
 1122 1360 1098 1376 1024 1376 c 2
 948 1376 l 1
 967 1462 l 1
 1473 1462 l 1
 1454 1376 l 1
 1415 1376 l 2
 1354 1376 1307 1323 1229 1221 c 2
 752 596 l 1
 672 225 l 2
 668 209 664 180 664 168 c 0
 664 98 725 86 811 86 c 2
 858 86 l 1
 840 0 l 1
 203 0 l 1
EndSplineSet
Substitution2: "'c2sc' Capitals to Small Capitals lookup 38 subtable" yacute.sc
Substitution2: "'aalt' Access All Alternates lookup 0 subtable" yacute.sc
Position2: "'cpsp' Capital Spacing lookup 0 subtable" dx=10 dy=0 dh=20 dv=0
EndChar

StartChar: Thorn
Encoding: 222 222 160
Width: 1236
GlyphClass: 2
Flags: HW
AnchorPoint: "Anchor-3" 580 731 basechar 0
AnchorPoint: "Anchor-1" 502 0 basechar 0
AnchorPoint: "Anchor-0" 813 1462 basechar 0
LayerCount: 2
Fore
SplineSet
-41 0 m 1
 -23 86 l 1
 4 86 l 2
 94 86 174 104 201 233 c 2
 414 1237 l 2
 418 1253 422 1282 422 1294 c 0
 422 1364 360 1376 274 1376 c 2
 248 1376 l 1
 266 1462 l 1
 883 1462 l 1
 864 1376 l 1
 817 1376 l 2
 725 1376 645 1360 618 1229 c 2
 614 1208 l 1
 735 1208 l 2
 1022 1208 1202 1073 1202 813 c 0
 1202 606 1101 315 575 315 c 2
 424 315 l 1
 406 225 l 2
 402 209 397 180 397 168 c 0
 397 98 459 86 545 86 c 2
 592 86 l 1
 573 0 l 1
 -41 0 l 1
553 412 m 2
 870 412 985 578 985 811 c 0
 985 1026 881 1110 686 1110 c 2
 592 1110 l 1
 444 412 l 1
 553 412 l 2
EndSplineSet
Substitution2: "'c2sc' Capitals to Small Capitals lookup 38 subtable" thorn.sc
Substitution2: "'aalt' Access All Alternates lookup 0 subtable" thorn.sc
Position2: "'cpsp' Capital Spacing lookup 0 subtable" dx=10 dy=0 dh=20 dv=0
EndChar

StartChar: germandbls
Encoding: 223 223 161
Width: 1284
GlyphClass: 2
Flags: HW
AnchorPoint: "Anchor-3" 475 537 basechar 0
AnchorPoint: "Anchor-1" 766 -20 basechar 0
AnchorPoint: "Anchor-0" 860 1567 basechar 0
LayerCount: 2
Fore
SplineSet
-160 -492 m 0
 -201 -492 -252 -483 -279 -475 c 1
 -260 -381 l 1
 -237 -387 -197 -395 -166 -395 c 0
 -33 -395 35 -290 92 -18 c 2
 309 1001 l 1
 143 1001 l 1
 164 1098 l 1
 330 1098 l 1
 344 1159 l 2
 407 1460 606 1567 856 1567 c 0
 1114 1567 1229 1441 1229 1253 c 0
 1229 1185 1218 1094 1200 1006 c 1
 1024 1006 l 2
 870 1006 799 940 799 838 c 0
 799 760 834 707 969 627 c 0
 1102 549 1161 446 1161 319 c 0
 1161 104 1020 -20 766 -20 c 0
 571 -20 455 59 455 188 c 0
 455 272 524 322 608 322 c 1
 608 205 637 78 780 78 c 0
 895 78 981 147 981 272 c 0
 981 346 956 424 825 502 c 0
 700 578 621 664 621 795 c 0
 621 1004 764 1102 1028 1102 c 1
 1042 1168 1051 1225 1051 1272 c 0
 1051 1395 987 1475 850 1475 c 0
 674 1475 582 1366 543 1188 c 2
 285 -16 l 2
 207 -381 61 -492 -160 -492 c 0
EndSplineSet
Substitution2: "'smcp' Lowercase to Small Capitals lookup 39 subtable" germandbls.sc
Substitution2: "'aalt' Access All Alternates lookup 0 subtable" germandbls.sc
EndChar

StartChar: agrave
Encoding: 224 224 162
Width: 1185
GlyphClass: 2
Flags: HW
AnchorPoint: "Anchor-3" 631 549 basechar 0
AnchorPoint: "Anchor-2" 1262 1098 basechar 0
AnchorPoint: "Anchor-1" 477 0 basechar 0
AnchorPoint: "Anchor-0" 811 1569 basechar 0
LayerCount: 2
Fore
SplineSet
705 1241 m 1
 617 1325 503 1454 440 1548 c 1
 446 1569 l 1
 651 1569 l 1
 682 1485 743 1352 788 1268 c 1
 782 1241 l 1
 705 1241 l 1
352 -20 m 0
 170 -20 88 141 88 354 c 0
 88 673 309 1118 698 1118 c 0
 796 1118 883 1087 938 1044 c 1
 1028 1096 l 1
 1094 1096 l 1
 954 440 l 2
 944 395 924 268 924 213 c 0
 924 143 946 109 991 109 c 0
 1036 109 1088 131 1139 162 c 1
 1176 102 l 1
 1117 49 989 -20 887 -20 c 0
 789 -20 727 44 727 150 c 0
 727 205 734 241 748 309 c 1
 735 309 l 1
 641 98 514 -20 352 -20 c 0
426 109 m 0
 567 109 739 354 788 590 c 2
 864 952 l 1
 833 1001 772 1026 709 1026 c 0
 439 1026 297 594 297 346 c 0
 297 176 352 109 426 109 c 0
EndSplineSet
Substitution2: "'smcp' Lowercase to Small Capitals lookup 39 subtable" agrave.sc
Substitution2: "'aalt' Access All Alternates lookup 0 subtable" agrave.sc
EndChar

StartChar: aacute
Encoding: 225 225 163
Width: 1185
GlyphClass: 2
Flags: HW
AnchorPoint: "Anchor-3" 631 549 basechar 0
AnchorPoint: "Anchor-2" 1262 1098 basechar 0
AnchorPoint: "Anchor-1" 477 0 basechar 0
AnchorPoint: "Anchor-0" 811 1569 basechar 0
LayerCount: 2
Fore
SplineSet
631 1241 m 1
 637 1268 l 1
 709 1350 795 1469 856 1569 c 1
 1075 1569 l 1
 1069 1548 l 1
 1001 1466 838 1315 713 1241 c 1
 631 1241 l 1
352 -20 m 0
 170 -20 88 141 88 354 c 0
 88 673 309 1118 698 1118 c 0
 796 1118 883 1087 938 1044 c 1
 1028 1096 l 1
 1094 1096 l 1
 954 440 l 2
 944 395 924 268 924 213 c 0
 924 143 946 109 991 109 c 0
 1036 109 1088 131 1139 162 c 1
 1176 102 l 1
 1117 49 989 -20 887 -20 c 0
 789 -20 727 44 727 150 c 0
 727 205 734 241 748 309 c 1
 735 309 l 1
 641 98 514 -20 352 -20 c 0
426 109 m 0
 567 109 739 354 788 590 c 2
 864 952 l 1
 833 1001 772 1026 709 1026 c 0
 439 1026 297 594 297 346 c 0
 297 176 352 109 426 109 c 0
EndSplineSet
Substitution2: "'smcp' Lowercase to Small Capitals lookup 39 subtable" aacute.sc
Substitution2: "'aalt' Access All Alternates lookup 0 subtable" aacute.sc
EndChar

StartChar: acircumflex
Encoding: 226 226 164
Width: 1185
GlyphClass: 2
Flags: HW
AnchorPoint: "Anchor-3" 631 549 basechar 0
AnchorPoint: "Anchor-2" 1262 1098 basechar 0
AnchorPoint: "Anchor-1" 477 0 basechar 0
AnchorPoint: "Anchor-0" 811 1569 basechar 0
LayerCount: 2
Fore
SplineSet
410 1268 m 1
 490 1346 617 1477 680 1569 c 1
 874 1569 l 1
 897 1477 967 1346 1014 1268 c 1
 1008 1241 l 1
 936 1241 l 1
 868 1286 801 1359 754 1425 c 1
 678 1359 580 1286 492 1241 c 1
 403 1241 l 1
 410 1268 l 1
352 -20 m 0
 170 -20 88 141 88 354 c 0
 88 673 309 1118 698 1118 c 0
 796 1118 883 1087 938 1044 c 1
 1028 1096 l 1
 1094 1096 l 1
 954 440 l 2
 944 395 924 268 924 213 c 0
 924 143 946 109 991 109 c 0
 1036 109 1088 131 1139 162 c 1
 1176 102 l 1
 1117 49 989 -20 887 -20 c 0
 789 -20 727 44 727 150 c 0
 727 205 734 241 748 309 c 1
 735 309 l 1
 641 98 514 -20 352 -20 c 0
426 109 m 0
 567 109 739 354 788 590 c 2
 864 952 l 1
 833 1001 772 1026 709 1026 c 0
 439 1026 297 594 297 346 c 0
 297 176 352 109 426 109 c 0
EndSplineSet
Substitution2: "'smcp' Lowercase to Small Capitals lookup 39 subtable" acircumflex.sc
Substitution2: "'aalt' Access All Alternates lookup 0 subtable" acircumflex.sc
EndChar

StartChar: atilde
Encoding: 227 227 165
Width: 1185
GlyphClass: 2
Flags: HW
AnchorPoint: "Anchor-3" 631 549 basechar 0
AnchorPoint: "Anchor-2" 1262 1098 basechar 0
AnchorPoint: "Anchor-1" 477 0 basechar 0
AnchorPoint: "Anchor-0" 797 1503 basechar 0
LayerCount: 2
Fore
SplineSet
850 1241 m 0
 703 1241 643 1370 555 1370 c 0
 473 1370 452 1317 432 1262 c 1
 340 1262 l 1
 375 1387 461 1503 608 1503 c 0
 753 1503 815 1374 901 1374 c 0
 981 1374 1004 1428 1024 1483 c 1
 1116 1483 l 1
 1081 1358 995 1241 850 1241 c 0
352 -20 m 0
 170 -20 88 141 88 354 c 0
 88 673 309 1118 698 1118 c 0
 796 1118 883 1087 938 1044 c 1
 1028 1096 l 1
 1094 1096 l 1
 954 440 l 2
 944 395 924 268 924 213 c 0
 924 143 946 109 991 109 c 0
 1036 109 1088 131 1139 162 c 1
 1176 102 l 1
 1117 49 989 -20 887 -20 c 0
 789 -20 727 44 727 150 c 0
 727 205 734 241 748 309 c 1
 735 309 l 1
 641 98 514 -20 352 -20 c 0
426 109 m 0
 567 109 739 354 788 590 c 2
 864 952 l 1
 833 1001 772 1026 709 1026 c 0
 439 1026 297 594 297 346 c 0
 297 176 352 109 426 109 c 0
EndSplineSet
Substitution2: "'smcp' Lowercase to Small Capitals lookup 39 subtable" atilde.sc
Substitution2: "'aalt' Access All Alternates lookup 0 subtable" atilde.sc
EndChar

StartChar: adieresis
Encoding: 228 228 166
Width: 1185
GlyphClass: 2
Flags: HW
AnchorPoint: "Anchor-3" 631 549 basechar 0
AnchorPoint: "Anchor-2" 1262 1098 basechar 0
AnchorPoint: "Anchor-1" 477 0 basechar 0
AnchorPoint: "Anchor-0" 801 1526 basechar 0
LayerCount: 2
Fore
SplineSet
893 1294 m 0
 832 1294 791 1327 791 1397 c 0
 791 1475 833 1526 901 1526 c 0
 960 1526 1004 1493 1004 1423 c 0
 1004 1327 946 1294 893 1294 c 0
504 1294 m 0
 443 1294 401 1327 401 1397 c 0
 401 1475 444 1526 512 1526 c 0
 571 1526 614 1493 614 1423 c 0
 614 1327 557 1294 504 1294 c 0
352 -20 m 0
 170 -20 88 141 88 354 c 0
 88 673 309 1118 698 1118 c 0
 796 1118 883 1087 938 1044 c 1
 1028 1096 l 1
 1094 1096 l 1
 954 440 l 2
 944 395 924 268 924 213 c 0
 924 143 946 109 991 109 c 0
 1036 109 1088 131 1139 162 c 1
 1176 102 l 1
 1117 49 989 -20 887 -20 c 0
 789 -20 727 44 727 150 c 0
 727 205 734 241 748 309 c 1
 735 309 l 1
 641 98 514 -20 352 -20 c 0
426 109 m 0
 567 109 739 354 788 590 c 2
 864 952 l 1
 833 1001 772 1026 709 1026 c 0
 439 1026 297 594 297 346 c 0
 297 176 352 109 426 109 c 0
EndSplineSet
Substitution2: "'smcp' Lowercase to Small Capitals lookup 39 subtable" adieresis.sc
Substitution2: "'aalt' Access All Alternates lookup 0 subtable" adieresis.sc
EndChar

StartChar: aring
Encoding: 229 229 167
Width: 1185
GlyphClass: 2
Flags: HW
AnchorPoint: "Anchor-3" 631 549 basechar 0
AnchorPoint: "Anchor-2" 1262 1098 basechar 0
AnchorPoint: "Anchor-1" 477 0 basechar 0
AnchorPoint: "Anchor-0" 831 1667 basechar 0
LayerCount: 2
Fore
SplineSet
737 1221 m 0
 600 1221 492 1299 492 1444 c 0
 492 1589 600 1667 737 1667 c 0
 874 1667 983 1589 983 1444 c 0
 983 1299 874 1221 737 1221 c 0
737 1321 m 0
 811 1321 872 1356 872 1444 c 0
 872 1532 811 1567 737 1567 c 0
 663 1567 602 1532 602 1444 c 0
 602 1356 663 1321 737 1321 c 0
352 -20 m 0
 170 -20 88 141 88 354 c 0
 88 673 309 1118 698 1118 c 0
 796 1118 883 1087 938 1044 c 1
 1028 1096 l 1
 1094 1096 l 1
 954 440 l 2
 944 395 924 268 924 213 c 0
 924 143 946 109 991 109 c 0
 1036 109 1088 131 1139 162 c 1
 1176 102 l 1
 1117 49 989 -20 887 -20 c 0
 789 -20 727 44 727 150 c 0
 727 205 734 241 748 309 c 1
 735 309 l 1
 641 98 514 -20 352 -20 c 0
426 109 m 0
 567 109 739 354 788 590 c 2
 864 952 l 1
 833 1001 772 1026 709 1026 c 0
 439 1026 297 594 297 346 c 0
 297 176 352 109 426 109 c 0
EndSplineSet
Substitution2: "'smcp' Lowercase to Small Capitals lookup 39 subtable" aring.sc
Substitution2: "'aalt' Access All Alternates lookup 0 subtable" aring.sc
EndChar

StartChar: ae
Encoding: 230 230 168
Width: 1665
GlyphClass: 2
Flags: HW
AnchorPoint: "Anchor-3" 856 549 basechar 0
AnchorPoint: "Anchor-1" 717 0 basechar 0
AnchorPoint: "Anchor-0" 950 1098 basechar 0
LayerCount: 2
Fore
SplineSet
397 -20 m 0
 227 -20 88 108 88 387 c 0
 88 682 270 1118 686 1118 c 0
 799 1118 888 1081 999 991 c 1
 1091 1069 1215 1118 1354 1118 c 0
 1526 1118 1626 1030 1626 883 c 0
 1626 668 1374 473 1032 473 c 2
 961 473 l 1
 957 442 956 414 956 387 c 0
 956 211 1035 109 1182 109 c 0
 1313 109 1420 184 1477 256 c 1
 1489 248 1497 228 1497 205 c 0
 1497 115 1389 -20 1143 -20 c 0
 963 -20 809 77 766 274 c 1
 764 274 l 1
 686 75 561 -20 397 -20 c 0
469 109 m 0
 612 109 713 262 750 475 c 0
 781 653 823 760 905 893 c 1
 842 981 766 1026 696 1026 c 0
 426 1026 297 594 297 365 c 0
 297 191 369 109 469 109 c 0
999 567 m 2
 1239 567 1415 695 1415 883 c 0
 1415 975 1372 1020 1296 1020 c 0
 1140 1020 1024 778 979 567 c 1
 999 567 l 2
EndSplineSet
Substitution2: "'smcp' Lowercase to Small Capitals lookup 39 subtable" ae.sc
Substitution2: "'aalt' Access All Alternates lookup 0 subtable" ae.sc
EndChar

StartChar: ccedilla
Encoding: 231 231 169
Width: 997
GlyphClass: 2
Flags: HW
AnchorPoint: "Anchor-3" 543 549 basechar 0
AnchorPoint: "Anchor-2" 1073 1098 basechar 0
AnchorPoint: "Anchor-1" 319 -492 basechar 0
AnchorPoint: "Anchor-0" 657 1098 basechar 0
LayerCount: 2
Fore
SplineSet
324 -492 m 0
 281 -492 217 -483 170 -469 c 1
 193 -365 l 1
 240 -375 293 -381 330 -381 c 0
 414 -381 481 -344 481 -256 c 0
 481 -190 428 -147 350 -141 c 1
 412 -14 l 1
 230 15 88 151 88 403 c 0
 88 706 301 1118 698 1118 c 0
 903 1118 997 1022 997 922 c 0
 997 844 932 778 815 778 c 1
 815 909 766 1020 657 1020 c 0
 438 1020 301 608 301 387 c 0
 301 211 379 109 526 109 c 0
 669 109 764 184 821 256 c 1
 833 248 842 228 842 205 c 0
 842 117 739 -12 508 -20 c 1
 485 -70 l 1
 583 -84 649 -152 649 -240 c 0
 649 -416 504 -492 324 -492 c 0
EndSplineSet
Substitution2: "'smcp' Lowercase to Small Capitals lookup 39 subtable" ccedilla.sc
Substitution2: "'aalt' Access All Alternates lookup 0 subtable" ccedilla.sc
EndChar

StartChar: egrave
Encoding: 232 232 170
Width: 1009
GlyphClass: 2
Flags: HW
AnchorPoint: "Anchor-3" 528 549 basechar 0
AnchorPoint: "Anchor-2" 1085 1098 basechar 0
AnchorPoint: "Anchor-1" 430 0 basechar 0
AnchorPoint: "Anchor-0" 764 1569 basechar 0
LayerCount: 2
Fore
SplineSet
721 1241 m 1
 633 1325 520 1454 457 1548 c 1
 463 1569 l 1
 668 1569 l 1
 699 1485 760 1352 805 1268 c 1
 799 1241 l 1
 721 1241 l 1
487 -20 m 0
 268 -20 88 118 88 403 c 0
 88 706 301 1118 698 1118 c 0
 870 1118 971 1030 971 883 c 0
 971 668 719 473 377 473 c 2
 305 473 l 1
 301 442 301 414 301 387 c 0
 301 211 379 109 526 109 c 0
 657 109 764 184 821 256 c 1
 833 248 842 228 842 205 c 0
 842 115 733 -20 487 -20 c 0
344 567 m 2
 584 567 760 695 760 883 c 0
 760 975 717 1020 641 1020 c 0
 485 1020 369 778 324 567 c 1
 344 567 l 2
EndSplineSet
Substitution2: "'smcp' Lowercase to Small Capitals lookup 39 subtable" egrave.sc
Substitution2: "'aalt' Access All Alternates lookup 0 subtable" egrave.sc
EndChar

StartChar: eacute
Encoding: 233 233 171
Width: 1009
GlyphClass: 2
Flags: HW
AnchorPoint: "Anchor-3" 528 549 basechar 0
AnchorPoint: "Anchor-2" 1085 1098 basechar 0
AnchorPoint: "Anchor-1" 430 0 basechar 0
AnchorPoint: "Anchor-0" 764 1569 basechar 0
LayerCount: 2
Fore
SplineSet
608 1241 m 1
 614 1268 l 1
 686 1350 773 1469 834 1569 c 1
 1053 1569 l 1
 1047 1548 l 1
 979 1466 815 1315 690 1241 c 1
 608 1241 l 1
487 -20 m 0
 268 -20 88 118 88 403 c 0
 88 706 301 1118 698 1118 c 0
 870 1118 971 1030 971 883 c 0
 971 668 719 473 377 473 c 2
 305 473 l 1
 301 442 301 414 301 387 c 0
 301 211 379 109 526 109 c 0
 657 109 764 184 821 256 c 1
 833 248 842 228 842 205 c 0
 842 115 733 -20 487 -20 c 0
344 567 m 2
 584 567 760 695 760 883 c 0
 760 975 717 1020 641 1020 c 0
 485 1020 369 778 324 567 c 1
 344 567 l 2
EndSplineSet
Substitution2: "'smcp' Lowercase to Small Capitals lookup 39 subtable" eacute.sc
Substitution2: "'aalt' Access All Alternates lookup 0 subtable" eacute.sc
EndChar

StartChar: ecircumflex
Encoding: 234 234 172
Width: 1009
GlyphClass: 2
Flags: HW
AnchorPoint: "Anchor-3" 528 549 basechar 0
AnchorPoint: "Anchor-2" 1085 1098 basechar 0
AnchorPoint: "Anchor-1" 430 0 basechar 0
AnchorPoint: "Anchor-0" 764 1569 basechar 0
LayerCount: 2
Fore
SplineSet
387 1268 m 1
 467 1346 594 1477 657 1569 c 1
 852 1569 l 1
 875 1477 944 1346 991 1268 c 1
 985 1241 l 1
 913 1241 l 1
 845 1286 778 1359 731 1425 c 1
 655 1359 557 1286 469 1241 c 1
 381 1241 l 1
 387 1268 l 1
487 -20 m 0
 268 -20 88 118 88 403 c 0
 88 706 301 1118 698 1118 c 0
 870 1118 971 1030 971 883 c 0
 971 668 719 473 377 473 c 2
 305 473 l 1
 301 442 301 414 301 387 c 0
 301 211 379 109 526 109 c 0
 657 109 764 184 821 256 c 1
 833 248 842 228 842 205 c 0
 842 115 733 -20 487 -20 c 0
344 567 m 2
 584 567 760 695 760 883 c 0
 760 975 717 1020 641 1020 c 0
 485 1020 369 778 324 567 c 1
 344 567 l 2
EndSplineSet
Substitution2: "'smcp' Lowercase to Small Capitals lookup 39 subtable" ecircumflex.sc
Substitution2: "'aalt' Access All Alternates lookup 0 subtable" ecircumflex.sc
EndChar

StartChar: edieresis
Encoding: 235 235 173
Width: 1009
GlyphClass: 2
Flags: HW
AnchorPoint: "Anchor-3" 528 549 basechar 0
AnchorPoint: "Anchor-2" 1085 1098 basechar 0
AnchorPoint: "Anchor-1" 430 0 basechar 0
AnchorPoint: "Anchor-0" 754 1526 basechar 0
LayerCount: 2
Fore
SplineSet
897 1294 m 0
 836 1294 795 1327 795 1397 c 0
 795 1475 837 1526 905 1526 c 0
 964 1526 1008 1493 1008 1423 c 0
 1008 1327 950 1294 897 1294 c 0
508 1294 m 0
 447 1294 406 1327 406 1397 c 0
 406 1475 448 1526 516 1526 c 0
 575 1526 618 1493 618 1423 c 0
 618 1327 561 1294 508 1294 c 0
487 -20 m 0
 268 -20 88 118 88 403 c 0
 88 706 301 1118 698 1118 c 0
 870 1118 971 1030 971 883 c 0
 971 668 719 473 377 473 c 2
 305 473 l 1
 301 442 301 414 301 387 c 0
 301 211 379 109 526 109 c 0
 657 109 764 184 821 256 c 1
 833 248 842 228 842 205 c 0
 842 115 733 -20 487 -20 c 0
344 567 m 2
 584 567 760 695 760 883 c 0
 760 975 717 1020 641 1020 c 0
 485 1020 369 778 324 567 c 1
 344 567 l 2
EndSplineSet
Substitution2: "'smcp' Lowercase to Small Capitals lookup 39 subtable" edieresis.sc
Substitution2: "'aalt' Access All Alternates lookup 0 subtable" edieresis.sc
EndChar

StartChar: igrave
Encoding: 236 236 174
Width: 622
GlyphClass: 2
Flags: HW
AnchorPoint: "Anchor-3" 360 539 basechar 0
AnchorPoint: "Anchor-1" 195 0 basechar 0
AnchorPoint: "Anchor-0" 528 1569 basechar 0
LayerCount: 2
Fore
SplineSet
455 1241 m 1
 367 1325 253 1454 190 1548 c 1
 197 1569 l 1
 401 1569 l 1
 432 1485 494 1352 539 1268 c 1
 532 1241 l 1
 455 1241 l 1
317 -20 m 0
 208 -20 147 68 147 174 c 0
 147 258 177 416 193 496 c 2
 272 872 l 2
 299 993 244 1012 154 1012 c 2
 127 1012 l 1
 145 1098 l 1
 512 1098 l 1
 373 440 l 2
 363 395 342 268 342 213 c 0
 342 143 365 109 410 109 c 0
 455 109 506 131 557 162 c 1
 594 102 l 1
 535 49 419 -20 317 -20 c 0
EndSplineSet
Substitution2: "'smcp' Lowercase to Small Capitals lookup 39 subtable" igrave.sc
Substitution2: "'aalt' Access All Alternates lookup 0 subtable" igrave.sc
EndChar

StartChar: iacute
Encoding: 237 237 175
Width: 622
GlyphClass: 2
Flags: HW
AnchorPoint: "Anchor-3" 360 539 basechar 0
AnchorPoint: "Anchor-1" 195 0 basechar 0
AnchorPoint: "Anchor-0" 528 1569 basechar 0
LayerCount: 2
Fore
SplineSet
326 1241 m 1
 332 1268 l 1
 404 1350 490 1469 551 1569 c 1
 770 1569 l 1
 764 1548 l 1
 696 1466 533 1315 408 1241 c 1
 326 1241 l 1
317 -20 m 0
 208 -20 147 68 147 174 c 0
 147 258 177 416 193 496 c 2
 272 872 l 2
 299 993 244 1012 154 1012 c 2
 127 1012 l 1
 145 1098 l 1
 512 1098 l 1
 373 440 l 2
 363 395 342 268 342 213 c 0
 342 143 365 109 410 109 c 0
 455 109 506 131 557 162 c 1
 594 102 l 1
 535 49 419 -20 317 -20 c 0
EndSplineSet
Substitution2: "'smcp' Lowercase to Small Capitals lookup 39 subtable" iacute.sc
Substitution2: "'aalt' Access All Alternates lookup 0 subtable" iacute.sc
EndChar

StartChar: icircumflex
Encoding: 238 238 176
Width: 622
GlyphClass: 2
Flags: HW
AnchorPoint: "Anchor-3" 360 539 basechar 0
AnchorPoint: "Anchor-1" 195 0 basechar 0
AnchorPoint: "Anchor-0" 528 1569 basechar 0
LayerCount: 2
Fore
SplineSet
78 1268 m 1
 158 1346 285 1477 348 1569 c 1
 543 1569 l 1
 566 1477 635 1346 682 1268 c 1
 676 1241 l 1
 604 1241 l 1
 536 1286 469 1359 422 1425 c 1
 346 1359 248 1286 160 1241 c 1
 72 1241 l 1
 78 1268 l 1
317 -20 m 0
 208 -20 147 68 147 174 c 0
 147 258 177 416 193 496 c 2
 272 872 l 2
 299 993 244 1012 154 1012 c 2
 127 1012 l 1
 145 1098 l 1
 512 1098 l 1
 373 440 l 2
 363 395 342 268 342 213 c 0
 342 143 365 109 410 109 c 0
 455 109 506 131 557 162 c 1
 594 102 l 1
 535 49 419 -20 317 -20 c 0
EndSplineSet
Substitution2: "'smcp' Lowercase to Small Capitals lookup 39 subtable" icircumflex.sc
Substitution2: "'aalt' Access All Alternates lookup 0 subtable" icircumflex.sc
EndChar

StartChar: idieresis
Encoding: 239 239 177
Width: 622
GlyphClass: 2
Flags: HW
AnchorPoint: "Anchor-3" 360 539 basechar 0
AnchorPoint: "Anchor-1" 195 0 basechar 0
AnchorPoint: "Anchor-0" 518 1526 basechar 0
LayerCount: 2
Fore
SplineSet
596 1294 m 0
 535 1294 494 1327 494 1397 c 0
 494 1475 536 1526 604 1526 c 0
 663 1526 707 1493 707 1423 c 0
 707 1327 649 1294 596 1294 c 0
207 1294 m 0
 146 1294 104 1327 104 1397 c 0
 104 1475 147 1526 215 1526 c 0
 274 1526 317 1493 317 1423 c 0
 317 1327 260 1294 207 1294 c 0
317 -20 m 0
 208 -20 147 68 147 174 c 0
 147 258 177 416 193 496 c 2
 272 872 l 2
 299 993 244 1012 154 1012 c 2
 127 1012 l 1
 145 1098 l 1
 512 1098 l 1
 373 440 l 2
 363 395 342 268 342 213 c 0
 342 143 365 109 410 109 c 0
 455 109 506 131 557 162 c 1
 594 102 l 1
 535 49 419 -20 317 -20 c 0
EndSplineSet
Substitution2: "'smcp' Lowercase to Small Capitals lookup 39 subtable" idieresis.sc
Substitution2: "'aalt' Access All Alternates lookup 0 subtable" idieresis.sc
EndChar

StartChar: eth
Encoding: 240 240 178
Width: 1175
GlyphClass: 2
Flags: HW
AnchorPoint: "Anchor-3" 588 770 basechar 0
AnchorPoint: "Anchor-1" 471 0 basechar 0
AnchorPoint: "Anchor-0" 803 1561 basechar 0
LayerCount: 2
Fore
SplineSet
479 -20 m 0
 248 -18 88 115 88 369 c 0
 88 650 279 1038 680 1038 c 0
 762 1038 827 1018 870 983 c 1
 843 1102 795 1198 727 1274 c 1
 434 1124 l 1
 459 1239 l 1
 655 1339 l 1
 594 1388 520 1427 432 1456 c 1
 467 1559 l 1
 588 1526 696 1475 784 1405 c 1
 1087 1561 l 1
 1061 1444 l 1
 858 1341 l 1
 999 1196 1081 995 1081 741 c 0
 1081 338 899 -20 479 -20 c 0
502 80 m 0
 768 80 868 445 868 664 c 0
 868 850 795 932 670 932 c 0
 404 932 301 559 301 336 c 0
 301 158 379 82 502 80 c 0
EndSplineSet
Substitution2: "'smcp' Lowercase to Small Capitals lookup 39 subtable" eth.sc
Substitution2: "'aalt' Access All Alternates lookup 0 subtable" eth.sc
EndChar

StartChar: ntilde
Encoding: 241 241 179
Width: 1226
GlyphClass: 2
Flags: HW
AnchorPoint: "Anchor-3" 641 547 basechar 0
AnchorPoint: "Anchor-2" 1303 1098 basechar 0
AnchorPoint: "Anchor-1" 498 0 basechar 0
AnchorPoint: "Anchor-0" 817 1503 basechar 0
LayerCount: 2
Fore
SplineSet
872 1241 m 0
 725 1241 666 1370 578 1370 c 0
 496 1370 475 1317 455 1262 c 1
 362 1262 l 1
 397 1387 484 1503 631 1503 c 0
 776 1503 838 1374 924 1374 c 0
 1004 1374 1027 1428 1047 1483 c 1
 1139 1483 l 1
 1104 1358 1017 1241 872 1241 c 0
942 -20 m 0
 821 -20 756 65 756 184 c 0
 756 250 768 336 795 461 c 2
 829 621 l 2
 841 676 872 792 872 864 c 0
 872 917 858 985 778 985 c 0
 606 985 426 690 391 524 c 2
 281 0 l 1
 90 0 l 1
 262 823 l 2
 270 862 274 903 274 915 c 0
 274 997 209 1012 131 1012 c 2
 115 1012 l 1
 133 1098 l 1
 512 1098 l 1
 457 840 l 1
 477 840 l 1
 588 1020 696 1116 850 1116 c 0
 1012 1116 1069 1010 1069 889 c 0
 1069 821 1046 734 1032 664 c 2
 979 422 l 2
 963 346 952 268 952 207 c 0
 952 144 979 109 1024 109 c 0
 1067 109 1108 125 1155 156 c 1
 1192 96 l 1
 1126 41 1048 -20 942 -20 c 0
EndSplineSet
Substitution2: "'smcp' Lowercase to Small Capitals lookup 39 subtable" ntilde.sc
Substitution2: "'aalt' Access All Alternates lookup 0 subtable" ntilde.sc
EndChar

StartChar: ograve
Encoding: 242 242 180
Width: 1175
GlyphClass: 2
Flags: HW
AnchorPoint: "Anchor-3" 705 549 basechar 0
AnchorPoint: "Anchor-2" 1251 1098 basechar 0
AnchorPoint: "Anchor-1" 471 0 basechar 0
AnchorPoint: "Anchor-0" 805 1569 basechar 0
LayerCount: 2
Fore
SplineSet
733 1241 m 1
 645 1325 532 1454 469 1548 c 1
 475 1569 l 1
 680 1569 l 1
 711 1485 772 1352 817 1268 c 1
 811 1241 l 1
 733 1241 l 1
481 -20 m 0
 250 -20 88 118 88 403 c 0
 88 706 282 1118 698 1118 c 0
 913 1118 1087 995 1087 694 c 0
 1087 403 901 -20 481 -20 c 0
504 84 m 0
 770 84 874 483 874 729 c 0
 874 934 799 1014 674 1014 c 0
 408 1014 301 613 301 367 c 0
 301 160 381 84 504 84 c 0
EndSplineSet
Substitution2: "'smcp' Lowercase to Small Capitals lookup 39 subtable" ograve.sc
Substitution2: "'aalt' Access All Alternates lookup 0 subtable" ograve.sc
EndChar

StartChar: oacute
Encoding: 243 243 181
Width: 1175
GlyphClass: 2
Flags: HW
AnchorPoint: "Anchor-3" 705 549 basechar 0
AnchorPoint: "Anchor-2" 1251 1098 basechar 0
AnchorPoint: "Anchor-1" 471 0 basechar 0
AnchorPoint: "Anchor-0" 805 1569 basechar 0
LayerCount: 2
Fore
SplineSet
623 1241 m 1
 629 1268 l 1
 701 1350 787 1469 848 1569 c 1
 1067 1569 l 1
 1061 1548 l 1
 993 1466 830 1315 705 1241 c 1
 623 1241 l 1
481 -20 m 0
 250 -20 88 118 88 403 c 0
 88 706 282 1118 698 1118 c 0
 913 1118 1087 995 1087 694 c 0
 1087 403 901 -20 481 -20 c 0
504 84 m 0
 770 84 874 483 874 729 c 0
 874 934 799 1014 674 1014 c 0
 408 1014 301 613 301 367 c 0
 301 160 381 84 504 84 c 0
EndSplineSet
Substitution2: "'smcp' Lowercase to Small Capitals lookup 39 subtable" oacute.sc
Substitution2: "'aalt' Access All Alternates lookup 0 subtable" oacute.sc
EndChar

StartChar: ocircumflex
Encoding: 244 244 182
Width: 1175
GlyphClass: 2
Flags: HW
AnchorPoint: "Anchor-3" 705 549 basechar 0
AnchorPoint: "Anchor-2" 1251 1098 basechar 0
AnchorPoint: "Anchor-1" 471 0 basechar 0
AnchorPoint: "Anchor-0" 805 1569 basechar 0
LayerCount: 2
Fore
SplineSet
399 1268 m 1
 479 1346 607 1477 670 1569 c 1
 864 1569 l 1
 887 1477 957 1346 1004 1268 c 1
 997 1241 l 1
 926 1241 l 1
 858 1286 790 1359 743 1425 c 1
 667 1359 569 1286 481 1241 c 1
 393 1241 l 1
 399 1268 l 1
481 -20 m 0
 250 -20 88 118 88 403 c 0
 88 706 282 1118 698 1118 c 0
 913 1118 1087 995 1087 694 c 0
 1087 403 901 -20 481 -20 c 0
504 84 m 0
 770 84 874 483 874 729 c 0
 874 934 799 1014 674 1014 c 0
 408 1014 301 613 301 367 c 0
 301 160 381 84 504 84 c 0
EndSplineSet
Substitution2: "'smcp' Lowercase to Small Capitals lookup 39 subtable" ocircumflex.sc
Substitution2: "'aalt' Access All Alternates lookup 0 subtable" ocircumflex.sc
EndChar

StartChar: otilde
Encoding: 245 245 183
Width: 1175
GlyphClass: 2
Flags: HW
AnchorPoint: "Anchor-3" 705 549 basechar 0
AnchorPoint: "Anchor-2" 1251 1098 basechar 0
AnchorPoint: "Anchor-1" 471 0 basechar 0
AnchorPoint: "Anchor-0" 791 1503 basechar 0
LayerCount: 2
Fore
SplineSet
860 1241 m 0
 713 1241 653 1370 565 1370 c 0
 483 1370 462 1317 442 1262 c 1
 350 1262 l 1
 385 1387 471 1503 618 1503 c 0
 763 1503 825 1374 911 1374 c 0
 991 1374 1014 1428 1034 1483 c 1
 1126 1483 l 1
 1091 1358 1005 1241 860 1241 c 0
481 -20 m 0
 250 -20 88 118 88 403 c 0
 88 706 282 1118 698 1118 c 0
 913 1118 1087 995 1087 694 c 0
 1087 403 901 -20 481 -20 c 0
504 84 m 0
 770 84 874 483 874 729 c 0
 874 934 799 1014 674 1014 c 0
 408 1014 301 613 301 367 c 0
 301 160 381 84 504 84 c 0
EndSplineSet
Substitution2: "'smcp' Lowercase to Small Capitals lookup 39 subtable" otilde.sc
Substitution2: "'aalt' Access All Alternates lookup 0 subtable" otilde.sc
EndChar

StartChar: odieresis
Encoding: 246 246 184
Width: 1175
GlyphClass: 2
Flags: HW
AnchorPoint: "Anchor-3" 705 549 basechar 0
AnchorPoint: "Anchor-2" 1251 1098 basechar 0
AnchorPoint: "Anchor-1" 471 0 basechar 0
AnchorPoint: "Anchor-0" 795 1526 basechar 0
LayerCount: 2
Fore
SplineSet
907 1294 m 0
 846 1294 805 1327 805 1397 c 0
 805 1475 847 1526 915 1526 c 0
 974 1526 1018 1493 1018 1423 c 0
 1018 1327 960 1294 907 1294 c 0
518 1294 m 0
 457 1294 416 1327 416 1397 c 0
 416 1475 458 1526 526 1526 c 0
 585 1526 629 1493 629 1423 c 0
 629 1327 571 1294 518 1294 c 0
481 -20 m 0
 250 -20 88 118 88 403 c 0
 88 706 282 1118 698 1118 c 0
 913 1118 1087 995 1087 694 c 0
 1087 403 901 -20 481 -20 c 0
504 84 m 0
 770 84 874 483 874 729 c 0
 874 934 799 1014 674 1014 c 0
 408 1014 301 613 301 367 c 0
 301 160 381 84 504 84 c 0
EndSplineSet
Substitution2: "'smcp' Lowercase to Small Capitals lookup 39 subtable" odieresis.sc
Substitution2: "'aalt' Access All Alternates lookup 0 subtable" odieresis.sc
EndChar

StartChar: divide
Encoding: 247 247 185
Width: 1144
GlyphClass: 1
Flags: HW
LayerCount: 2
Fore
SplineSet
573 1008 m 0
 514 1008 469 1036 469 1120 c 0
 469 1206 514 1233 573 1233 c 0
 630 1233 678 1206 678 1120 c 0
 678 1036 630 1008 573 1008 c 0
133 672 m 1
 133 793 l 1
 1012 793 l 1
 1012 672 l 1
 133 672 l 1
573 231 m 0
 514 231 469 260 469 344 c 0
 469 430 514 457 573 457 c 0
 630 457 678 430 678 344 c 0
 678 260 630 231 573 231 c 0
EndSplineSet
EndChar

StartChar: oslash
Encoding: 248 248 186
Width: 1175
GlyphClass: 2
Flags: HW
AnchorPoint: "Anchor-3" 705 549 basechar 0
AnchorPoint: "Anchor-2" 1251 1098 basechar 0
AnchorPoint: "Anchor-1" 471 0 basechar 0
AnchorPoint: "Anchor-0" 705 1098 basechar 0
LayerCount: 2
Fore
SplineSet
10 -102 m 1
 178 106 l 1
 121 176 88 274 88 403 c 0
 88 706 282 1118 698 1118 c 0
 788 1118 870 1098 936 1051 c 1
 1057 1200 l 1
 1176 1200 l 1
 1004 985 l 1
 1057 917 1087 821 1087 694 c 0
 1087 403 901 -20 481 -20 c 0
 391 -20 311 0 248 43 c 1
 131 -102 l 1
 10 -102 l 1
301 367 m 0
 301 330 303 297 309 268 c 1
 836 926 l 1
 801 987 746 1014 674 1014 c 0
 408 1014 301 613 301 367 c 0
504 84 m 0
 770 84 874 483 874 729 c 0
 874 762 872 790 868 817 c 1
 344 164 l 1
 381 107 436 84 504 84 c 0
EndSplineSet
Substitution2: "'smcp' Lowercase to Small Capitals lookup 39 subtable" oslash.sc
Substitution2: "'aalt' Access All Alternates lookup 0 subtable" oslash.sc
EndChar

StartChar: ugrave
Encoding: 249 249 187
Width: 1226
GlyphClass: 2
Flags: HW
AnchorPoint: "Anchor-3" 655 539 basechar 0
AnchorPoint: "Anchor-2" 1303 1098 basechar 0
AnchorPoint: "Anchor-1" 498 0 basechar 0
AnchorPoint: "Anchor-0" 831 1569 basechar 0
LayerCount: 2
Fore
SplineSet
709 1241 m 1
 621 1325 507 1454 444 1548 c 1
 451 1569 l 1
 655 1569 l 1
 686 1485 748 1352 793 1268 c 1
 786 1241 l 1
 709 1241 l 1
934 -20 m 0
 825 -20 762 68 762 174 c 0
 762 205 766 250 772 295 c 1
 756 295 l 1
 641 109 544 -18 360 -18 c 0
 198 -18 141 88 141 209 c 0
 141 277 162 364 178 434 c 2
 258 793 l 2
 266 832 276 903 276 915 c 0
 276 997 211 1012 133 1012 c 2
 117 1012 l 1
 135 1098 l 1
 516 1098 l 1
 381 485 l 2
 365 411 340 297 340 238 c 0
 340 170 360 113 440 113 c 0
 585 113 778 365 825 588 c 2
 932 1098 l 1
 1130 1098 l 1
 989 440 l 2
 979 395 958 268 958 213 c 0
 958 143 981 109 1026 109 c 0
 1071 109 1106 123 1157 154 c 1
 1194 94 l 1
 1135 41 1036 -20 934 -20 c 0
EndSplineSet
Substitution2: "'smcp' Lowercase to Small Capitals lookup 39 subtable" ugrave.sc
Substitution2: "'aalt' Access All Alternates lookup 0 subtable" ugrave.sc
EndChar

StartChar: uacute
Encoding: 250 250 188
Width: 1226
GlyphClass: 2
Flags: HW
AnchorPoint: "Anchor-3" 655 539 basechar 0
AnchorPoint: "Anchor-2" 1303 1098 basechar 0
AnchorPoint: "Anchor-1" 498 0 basechar 0
AnchorPoint: "Anchor-0" 831 1569 basechar 0
LayerCount: 2
Fore
SplineSet
641 1241 m 1
 647 1268 l 1
 719 1350 805 1469 866 1569 c 1
 1085 1569 l 1
 1079 1548 l 1
 1011 1466 848 1315 723 1241 c 1
 641 1241 l 1
934 -20 m 0
 825 -20 762 68 762 174 c 0
 762 205 766 250 772 295 c 1
 756 295 l 1
 641 109 544 -18 360 -18 c 0
 198 -18 141 88 141 209 c 0
 141 277 162 364 178 434 c 2
 258 793 l 2
 266 832 276 903 276 915 c 0
 276 997 211 1012 133 1012 c 2
 117 1012 l 1
 135 1098 l 1
 516 1098 l 1
 381 485 l 2
 365 411 340 297 340 238 c 0
 340 170 360 113 440 113 c 0
 585 113 778 365 825 588 c 2
 932 1098 l 1
 1130 1098 l 1
 989 440 l 2
 979 395 958 268 958 213 c 0
 958 143 981 109 1026 109 c 0
 1071 109 1106 123 1157 154 c 1
 1194 94 l 1
 1135 41 1036 -20 934 -20 c 0
EndSplineSet
Substitution2: "'smcp' Lowercase to Small Capitals lookup 39 subtable" uacute.sc
Substitution2: "'aalt' Access All Alternates lookup 0 subtable" uacute.sc
EndChar

StartChar: ucircumflex
Encoding: 251 251 189
Width: 1226
GlyphClass: 2
Flags: HW
AnchorPoint: "Anchor-3" 655 539 basechar 0
AnchorPoint: "Anchor-2" 1303 1098 basechar 0
AnchorPoint: "Anchor-1" 498 0 basechar 0
AnchorPoint: "Anchor-0" 831 1569 basechar 0
LayerCount: 2
Fore
SplineSet
434 1268 m 1
 514 1346 642 1477 705 1569 c 1
 899 1569 l 1
 922 1477 991 1346 1038 1268 c 1
 1032 1241 l 1
 961 1241 l 1
 893 1286 825 1359 778 1425 c 1
 702 1359 604 1286 516 1241 c 1
 428 1241 l 1
 434 1268 l 1
934 -20 m 0
 825 -20 762 68 762 174 c 0
 762 205 766 250 772 295 c 1
 756 295 l 1
 641 109 544 -18 360 -18 c 0
 198 -18 141 88 141 209 c 0
 141 277 162 364 178 434 c 2
 258 793 l 2
 266 832 276 903 276 915 c 0
 276 997 211 1012 133 1012 c 2
 117 1012 l 1
 135 1098 l 1
 516 1098 l 1
 381 485 l 2
 365 411 340 297 340 238 c 0
 340 170 360 113 440 113 c 0
 585 113 778 365 825 588 c 2
 932 1098 l 1
 1130 1098 l 1
 989 440 l 2
 979 395 958 268 958 213 c 0
 958 143 981 109 1026 109 c 0
 1071 109 1106 123 1157 154 c 1
 1194 94 l 1
 1135 41 1036 -20 934 -20 c 0
EndSplineSet
Substitution2: "'smcp' Lowercase to Small Capitals lookup 39 subtable" ucircumflex.sc
Substitution2: "'aalt' Access All Alternates lookup 0 subtable" ucircumflex.sc
EndChar

StartChar: udieresis
Encoding: 252 252 190
Width: 1226
GlyphClass: 2
Flags: HW
AnchorPoint: "Anchor-3" 655 539 basechar 0
AnchorPoint: "Anchor-2" 1303 1098 basechar 0
AnchorPoint: "Anchor-1" 498 0 basechar 0
AnchorPoint: "Anchor-0" 821 1526 basechar 0
LayerCount: 2
Fore
SplineSet
961 1294 m 0
 900 1294 858 1327 858 1397 c 0
 858 1475 901 1526 969 1526 c 0
 1028 1526 1071 1493 1071 1423 c 0
 1071 1327 1014 1294 961 1294 c 0
571 1294 m 0
 510 1294 469 1327 469 1397 c 0
 469 1475 512 1526 580 1526 c 0
 639 1526 682 1493 682 1423 c 0
 682 1327 624 1294 571 1294 c 0
934 -20 m 0
 825 -20 762 68 762 174 c 0
 762 205 766 250 772 295 c 1
 756 295 l 1
 641 109 544 -18 360 -18 c 0
 198 -18 141 88 141 209 c 0
 141 277 162 364 178 434 c 2
 258 793 l 2
 266 832 276 903 276 915 c 0
 276 997 211 1012 133 1012 c 2
 117 1012 l 1
 135 1098 l 1
 516 1098 l 1
 381 485 l 2
 365 411 340 297 340 238 c 0
 340 170 360 113 440 113 c 0
 585 113 778 365 825 588 c 2
 932 1098 l 1
 1130 1098 l 1
 989 440 l 2
 979 395 958 268 958 213 c 0
 958 143 981 109 1026 109 c 0
 1071 109 1106 123 1157 154 c 1
 1194 94 l 1
 1135 41 1036 -20 934 -20 c 0
EndSplineSet
Substitution2: "'smcp' Lowercase to Small Capitals lookup 39 subtable" udieresis.sc
Substitution2: "'aalt' Access All Alternates lookup 0 subtable" udieresis.sc
EndChar

StartChar: yacute
Encoding: 253 253 191
Width: 1081
GlyphClass: 2
Flags: HW
AnchorPoint: "Anchor-3" 342 311 basechar 0
AnchorPoint: "Anchor-2" 1116 1098 basechar 0
AnchorPoint: "Anchor-1" 94 -492 basechar 0
AnchorPoint: "Anchor-0" 696 1569 basechar 0
LayerCount: 2
Fore
SplineSet
528 1241 m 1
 535 1268 l 1
 607 1350 693 1469 754 1569 c 1
 973 1569 l 1
 967 1548 l 1
 899 1466 735 1315 610 1241 c 1
 528 1241 l 1
-139 -492 m 0
 -209 -492 -281 -478 -332 -455 c 1
 -301 -352 l 1
 -268 -362 -225 -375 -141 -375 c 0
 127 -375 311 -160 434 -2 c 1
 164 903 l 2
 139 985 103 1012 23 1012 c 2
 2 1012 l 1
 18 1098 l 1
 317 1098 l 1
 477 545 l 2
 508 439 557 242 563 174 c 1
 569 174 l 1
 725 410 846 668 846 854 c 0
 846 911 821 965 745 965 c 1
 745 1063 813 1116 879 1116 c 0
 965 1116 1018 1059 1018 944 c 0
 1018 731 876 451 657 117 c 0
 389 -299 242 -492 -139 -492 c 0
EndSplineSet
Substitution2: "'smcp' Lowercase to Small Capitals lookup 39 subtable" yacute.sc
Substitution2: "'aalt' Access All Alternates lookup 0 subtable" yacute.sc
EndChar

StartChar: thorn
Encoding: 254 254 192
Width: 1150
GlyphClass: 2
Flags: HW
AnchorPoint: "Anchor-3" 506 532 basechar 0
AnchorPoint: "Anchor-1" 354 -492 basechar 0
AnchorPoint: "Anchor-0" 791 1556 basechar 0
LayerCount: 2
Fore
SplineSet
324 1266 m 2
 336 1321 342 1362 342 1374 c 0
 342 1456 277 1470 199 1470 c 2
 182 1470 l 1
 201 1556 l 1
 578 1556 l 1
 473 1065 l 2
 459 995 424 874 410 823 c 1
 422 823 l 1
 504 983 617 1118 799 1118 c 0
 965 1118 1063 988 1063 748 c 0
 1063 453 861 -20 451 -20 c 0
 371 -20 297 0 246 29 c 1
 244 4 239 -45 233 -72 c 2
 207 -197 l 2
 199 -234 188 -288 188 -317 c 0
 188 -383 230 -406 332 -406 c 2
 358 -406 l 1
 340 -492 l 1
 -49 -492 l 1
 324 1266 l 2
444 72 m 0
 704 72 854 498 854 750 c 0
 854 869 821 989 721 989 c 0
 561 989 404 713 365 535 c 2
 281 145 l 1
 306 114 368 72 444 72 c 0
EndSplineSet
Substitution2: "'smcp' Lowercase to Small Capitals lookup 39 subtable" thorn.sc
Substitution2: "'aalt' Access All Alternates lookup 0 subtable" thorn.sc
EndChar

StartChar: ydieresis
Encoding: 255 255 193
Width: 1081
GlyphClass: 2
Flags: HW
AnchorPoint: "Anchor-3" 342 311 basechar 0
AnchorPoint: "Anchor-2" 1116 1098 basechar 0
AnchorPoint: "Anchor-1" 94 -492 basechar 0
AnchorPoint: "Anchor-0" 686 1526 basechar 0
LayerCount: 2
Fore
SplineSet
801 1294 m 0
 740 1294 698 1327 698 1397 c 0
 698 1475 741 1526 809 1526 c 0
 868 1526 911 1493 911 1423 c 0
 911 1327 854 1294 801 1294 c 0
412 1294 m 0
 351 1294 309 1327 309 1397 c 0
 309 1475 352 1526 420 1526 c 0
 479 1526 522 1493 522 1423 c 0
 522 1327 465 1294 412 1294 c 0
-139 -492 m 0
 -209 -492 -281 -478 -332 -455 c 1
 -301 -352 l 1
 -268 -362 -225 -375 -141 -375 c 0
 127 -375 311 -160 434 -2 c 1
 164 903 l 2
 139 985 103 1012 23 1012 c 2
 2 1012 l 1
 18 1098 l 1
 317 1098 l 1
 477 545 l 2
 508 439 557 242 563 174 c 1
 569 174 l 1
 725 410 846 668 846 854 c 0
 846 911 821 965 745 965 c 1
 745 1063 813 1116 879 1116 c 0
 965 1116 1018 1059 1018 944 c 0
 1018 731 876 451 657 117 c 0
 389 -299 242 -492 -139 -492 c 0
EndSplineSet
Substitution2: "'smcp' Lowercase to Small Capitals lookup 39 subtable" ydieresis.sc
Substitution2: "'aalt' Access All Alternates lookup 0 subtable" ydieresis.sc
EndChar

StartChar: Amacron
Encoding: 256 256 194
Width: 1443
GlyphClass: 2
Flags: HW
AnchorPoint: "Anchor-3" 614 731 basechar 0
AnchorPoint: "Anchor-2" 1597 1462 basechar 0
AnchorPoint: "Anchor-1" 606 0 basechar 0
AnchorPoint: "Anchor-0" 969 1700 basechar 0
LayerCount: 2
Fore
SplineSet
637 1579 m 1
 664 1700 l 1
 1257 1700 l 1
 1231 1579 l 1
 637 1579 l 1
-115 0 m 1
 -98 86 l 1
 -59 86 l 2
 21 86 53 115 131 246 c 2
 844 1462 l 1
 1004 1462 l 1
 1198 195 l 2
 1210 109 1239 86 1319 86 c 2
 1346 86 l 1
 1329 0 l 1
 772 0 l 1
 788 86 l 1
 836 86 l 2
 924 86 983 124 983 190 c 0
 983 213 981 242 979 260 c 2
 946 489 l 1
 410 489 l 1
 285 274 l 2
 258 225 246 189 246 160 c 0
 246 109 282 86 360 86 c 2
 408 86 l 1
 391 0 l 1
 -115 0 l 1
688 969 m 2
 469 592 l 1
 932 592 l 1
 881 950 l 2
 865 1071 850 1176 848 1274 c 1
 805 1176 762 1096 688 969 c 2
EndSplineSet
Substitution2: "'c2sc' Capitals to Small Capitals lookup 38 subtable" amacron.sc
Substitution2: "'aalt' Access All Alternates lookup 0 subtable" amacron.sc
Position2: "'cpsp' Capital Spacing lookup 0 subtable" dx=10 dy=0 dh=20 dv=0
EndChar

StartChar: amacron
Encoding: 257 257 195
Width: 1185
GlyphClass: 2
Flags: HW
AnchorPoint: "Anchor-3" 631 549 basechar 0
AnchorPoint: "Anchor-2" 1262 1098 basechar 0
AnchorPoint: "Anchor-1" 477 0 basechar 0
AnchorPoint: "Anchor-0" 766 1362 basechar 0
LayerCount: 2
Fore
SplineSet
430 1241 m 1
 457 1362 l 1
 1051 1362 l 1
 1024 1241 l 1
 430 1241 l 1
352 -20 m 0
 170 -20 88 141 88 354 c 0
 88 673 309 1118 698 1118 c 0
 796 1118 883 1087 938 1044 c 1
 1028 1096 l 1
 1094 1096 l 1
 954 440 l 2
 944 395 924 268 924 213 c 0
 924 143 946 109 991 109 c 0
 1036 109 1088 131 1139 162 c 1
 1176 102 l 1
 1117 49 989 -20 887 -20 c 0
 789 -20 727 44 727 150 c 0
 727 205 734 241 748 309 c 1
 735 309 l 1
 641 98 514 -20 352 -20 c 0
426 109 m 0
 567 109 739 354 788 590 c 2
 864 952 l 1
 833 1001 772 1026 709 1026 c 0
 439 1026 297 594 297 346 c 0
 297 176 352 109 426 109 c 0
EndSplineSet
Substitution2: "'smcp' Lowercase to Small Capitals lookup 39 subtable" amacron.sc
Substitution2: "'aalt' Access All Alternates lookup 0 subtable" amacron.sc
EndChar

StartChar: Abreve
Encoding: 258 258 196
Width: 1443
GlyphClass: 2
Flags: HW
AnchorPoint: "Anchor-3" 614 731 basechar 0
AnchorPoint: "Anchor-2" 1597 1462 basechar 0
AnchorPoint: "Anchor-1" 606 0 basechar 0
AnchorPoint: "Anchor-0" 1001 1860 basechar 0
LayerCount: 2
Fore
SplineSet
936 1579 m 0
 772 1579 688 1680 678 1860 c 1
 772 1860 l 1
 782 1766 850 1720 950 1720 c 0
 1050 1720 1128 1762 1171 1860 c 1
 1266 1860 l 1
 1229 1706 1114 1579 936 1579 c 0
-115 0 m 1
 -98 86 l 1
 -59 86 l 2
 21 86 53 115 131 246 c 2
 844 1462 l 1
 1004 1462 l 1
 1198 195 l 2
 1210 109 1239 86 1319 86 c 2
 1346 86 l 1
 1329 0 l 1
 772 0 l 1
 788 86 l 1
 836 86 l 2
 924 86 983 124 983 190 c 0
 983 213 981 242 979 260 c 2
 946 489 l 1
 410 489 l 1
 285 274 l 2
 258 225 246 189 246 160 c 0
 246 109 282 86 360 86 c 2
 408 86 l 1
 391 0 l 1
 -115 0 l 1
688 969 m 2
 469 592 l 1
 932 592 l 1
 881 950 l 2
 865 1071 850 1176 848 1274 c 1
 805 1176 762 1096 688 969 c 2
EndSplineSet
Substitution2: "'c2sc' Capitals to Small Capitals lookup 38 subtable" abreve.sc
Substitution2: "'aalt' Access All Alternates lookup 0 subtable" abreve.sc
Position2: "'cpsp' Capital Spacing lookup 0 subtable" dx=10 dy=0 dh=20 dv=0
EndChar

StartChar: abreve
Encoding: 259 259 197
Width: 1185
GlyphClass: 2
Flags: HW
AnchorPoint: "Anchor-3" 631 549 basechar 0
AnchorPoint: "Anchor-2" 1262 1098 basechar 0
AnchorPoint: "Anchor-1" 477 0 basechar 0
AnchorPoint: "Anchor-0" 801 1522 basechar 0
LayerCount: 2
Fore
SplineSet
713 1241 m 0
 549 1241 465 1342 455 1522 c 1
 549 1522 l 1
 559 1428 627 1382 727 1382 c 0
 827 1382 905 1424 948 1522 c 1
 1042 1522 l 1
 1005 1368 891 1241 713 1241 c 0
352 -20 m 0
 170 -20 88 141 88 354 c 0
 88 673 309 1118 698 1118 c 0
 796 1118 883 1087 938 1044 c 1
 1028 1096 l 1
 1094 1096 l 1
 954 440 l 2
 944 395 924 268 924 213 c 0
 924 143 946 109 991 109 c 0
 1036 109 1088 131 1139 162 c 1
 1176 102 l 1
 1117 49 989 -20 887 -20 c 0
 789 -20 727 44 727 150 c 0
 727 205 734 241 748 309 c 1
 735 309 l 1
 641 98 514 -20 352 -20 c 0
426 109 m 0
 567 109 739 354 788 590 c 2
 864 952 l 1
 833 1001 772 1026 709 1026 c 0
 439 1026 297 594 297 346 c 0
 297 176 352 109 426 109 c 0
EndSplineSet
Substitution2: "'smcp' Lowercase to Small Capitals lookup 39 subtable" abreve.sc
Substitution2: "'aalt' Access All Alternates lookup 0 subtable" abreve.sc
EndChar

StartChar: Aogonek
Encoding: 260 260 198
Width: 1443
GlyphClass: 2
Flags: HW
AnchorPoint: "Anchor-3" 614 731 basechar 0
AnchorPoint: "Anchor-2" 1597 1462 basechar 0
AnchorPoint: "Anchor-1" 565 0 basechar 0
AnchorPoint: "Anchor-0" 918 1462 basechar 0
LayerCount: 2
Fore
SplineSet
-115 0 m 1
 -98 86 l 1
 -59 86 l 2
 21 86 53 115 131 246 c 2
 844 1462 l 1
 1004 1462 l 1
 1198 195 l 2
 1210 109 1239 86 1319 86 c 2
 1346 86 l 1
 1329 0 l 1
 1255 0 l 1
 1161 -29 1012 -113 1012 -254 c 0
 1012 -322 1058 -365 1128 -365 c 0
 1165 -365 1211 -358 1262 -348 c 1
 1237 -459 l 1
 1190 -479 1132 -492 1073 -492 c 0
 923 -492 834 -418 834 -283 c 0
 834 -136 959 -41 1139 0 c 1
 772 0 l 1
 788 86 l 1
 836 86 l 2
 924 86 983 124 983 190 c 0
 983 213 981 242 979 260 c 2
 946 489 l 1
 410 489 l 1
 285 274 l 2
 258 225 246 189 246 160 c 0
 246 109 282 86 360 86 c 2
 408 86 l 1
 391 0 l 1
 -115 0 l 1
688 969 m 2
 469 592 l 1
 932 592 l 1
 881 950 l 2
 865 1071 850 1176 848 1274 c 1
 805 1176 762 1096 688 969 c 2
EndSplineSet
Substitution2: "'c2sc' Capitals to Small Capitals lookup 38 subtable" aogonek.sc
Substitution2: "'locl' Localized Forms in Latin lookup 6 subtable" Aogonek.loclNAV
AlternateSubs2: "'aalt' Access All Alternates lookup 1 subtable" Aogonek.loclNAV aogonek.sc
Position2: "'cpsp' Capital Spacing lookup 0 subtable" dx=10 dy=0 dh=20 dv=0
EndChar

StartChar: aogonek
Encoding: 261 261 199
Width: 1185
GlyphClass: 2
Flags: HW
AnchorPoint: "Anchor-3" 631 549 basechar 0
AnchorPoint: "Anchor-2" 1262 1098 basechar 0
AnchorPoint: "Anchor-1" 334 0 basechar 0
AnchorPoint: "Anchor-0" 711 1098 basechar 0
LayerCount: 2
Fore
SplineSet
352 -20 m 0
 170 -20 88 141 88 354 c 0
 88 673 309 1118 698 1118 c 0
 796 1118 883 1087 938 1044 c 1
 1028 1096 l 1
 1094 1096 l 1
 954 440 l 2
 944 395 924 268 924 213 c 0
 924 143 946 109 991 109 c 0
 1036 109 1088 131 1139 162 c 1
 1176 102 l 1
 1127 57 1030 2 940 -14 c 1
 848 -53 737 -133 737 -254 c 0
 737 -322 784 -365 854 -365 c 0
 891 -365 936 -358 987 -348 c 1
 963 -459 l 1
 916 -479 858 -492 799 -492 c 0
 649 -492 559 -418 559 -283 c 0
 559 -146 665 -55 823 -10 c 1
 764 13 727 68 727 150 c 0
 727 205 734 241 748 309 c 1
 735 309 l 1
 641 98 514 -20 352 -20 c 0
426 109 m 0
 567 109 739 354 788 590 c 2
 864 952 l 1
 833 1001 772 1026 709 1026 c 0
 439 1026 297 594 297 346 c 0
 297 176 352 109 426 109 c 0
EndSplineSet
Substitution2: "'smcp' Lowercase to Small Capitals lookup 39 subtable" aogonek.sc
Substitution2: "'locl' Localized Forms in Latin lookup 6 subtable" aogonek.loclNAV
AlternateSubs2: "'aalt' Access All Alternates lookup 1 subtable" aogonek.loclNAV aogonek.sc
EndChar

StartChar: Cacute
Encoding: 262 262 200
Width: 1284
GlyphClass: 2
Flags: HW
AnchorPoint: "Anchor-3" 717 731 basechar 0
AnchorPoint: "Anchor-2" 1438 1462 basechar 0
AnchorPoint: "Anchor-1" 629 0 basechar 0
AnchorPoint: "Anchor-0" 1038 1907 basechar 0
LayerCount: 2
Fore
SplineSet
895 1579 m 1
 901 1606 l 1
 973 1688 1059 1807 1120 1907 c 1
 1339 1907 l 1
 1333 1886 l 1
 1265 1804 1102 1653 977 1579 c 1
 895 1579 l 1
672 -20 m 0
 316 -20 106 178 106 528 c 0
 106 1015 440 1483 950 1483 c 0
 1192 1483 1329 1392 1329 1255 c 0
 1329 1157 1247 1096 1128 1096 c 1
 1128 1209 1102 1374 924 1374 c 0
 547 1374 330 875 330 496 c 0
 330 252 452 113 694 113 c 0
 887 113 1003 207 1073 299 c 1
 1089 287 1100 262 1100 231 c 0
 1100 122 973 -20 672 -20 c 0
EndSplineSet
Substitution2: "'c2sc' Capitals to Small Capitals lookup 38 subtable" cacute.sc
Substitution2: "'aalt' Access All Alternates lookup 0 subtable" cacute.sc
Position2: "'cpsp' Capital Spacing lookup 0 subtable" dx=10 dy=0 dh=20 dv=0
EndChar

StartChar: cacute
Encoding: 263 263 201
Width: 997
GlyphClass: 2
Flags: HW
AnchorPoint: "Anchor-3" 543 549 basechar 0
AnchorPoint: "Anchor-2" 1073 1098 basechar 0
AnchorPoint: "Anchor-1" 424 0 basechar 0
AnchorPoint: "Anchor-0" 758 1569 basechar 0
LayerCount: 2
Fore
SplineSet
631 1241 m 1
 637 1268 l 1
 709 1350 795 1469 856 1569 c 1
 1075 1569 l 1
 1069 1548 l 1
 1001 1466 838 1315 713 1241 c 1
 631 1241 l 1
487 -20 m 0
 268 -20 88 118 88 403 c 0
 88 706 301 1118 698 1118 c 0
 903 1118 997 1022 997 922 c 0
 997 844 932 778 815 778 c 1
 815 909 766 1020 657 1020 c 0
 438 1020 301 608 301 387 c 0
 301 211 379 109 526 109 c 0
 669 109 764 184 821 256 c 1
 833 248 842 228 842 205 c 0
 842 115 733 -20 487 -20 c 0
EndSplineSet
Substitution2: "'smcp' Lowercase to Small Capitals lookup 39 subtable" cacute.sc
Substitution2: "'aalt' Access All Alternates lookup 0 subtable" cacute.sc
EndChar

StartChar: Ccircumflex
Encoding: 264 264 202
Width: 1284
GlyphClass: 2
Flags: HW
AnchorPoint: "Anchor-3" 717 731 basechar 0
AnchorPoint: "Anchor-2" 1438 1462 basechar 0
AnchorPoint: "Anchor-1" 629 0 basechar 0
AnchorPoint: "Anchor-0" 1038 1907 basechar 0
LayerCount: 2
Fore
SplineSet
670 1606 m 1
 750 1684 877 1815 940 1907 c 1
 1135 1907 l 1
 1158 1815 1227 1684 1274 1606 c 1
 1268 1579 l 1
 1196 1579 l 1
 1128 1624 1061 1697 1014 1763 c 1
 938 1697 840 1624 752 1579 c 1
 664 1579 l 1
 670 1606 l 1
672 -20 m 0
 316 -20 106 178 106 528 c 0
 106 1015 440 1483 950 1483 c 0
 1192 1483 1329 1392 1329 1255 c 0
 1329 1157 1247 1096 1128 1096 c 1
 1128 1209 1102 1374 924 1374 c 0
 547 1374 330 875 330 496 c 0
 330 252 452 113 694 113 c 0
 887 113 1003 207 1073 299 c 1
 1089 287 1100 262 1100 231 c 0
 1100 122 973 -20 672 -20 c 0
EndSplineSet
Substitution2: "'c2sc' Capitals to Small Capitals lookup 38 subtable" ccircumflex.sc
Substitution2: "'aalt' Access All Alternates lookup 0 subtable" ccircumflex.sc
Position2: "'cpsp' Capital Spacing lookup 0 subtable" dx=10 dy=0 dh=20 dv=0
EndChar

StartChar: ccircumflex
Encoding: 265 265 203
Width: 997
GlyphClass: 2
Flags: HW
AnchorPoint: "Anchor-3" 543 549 basechar 0
AnchorPoint: "Anchor-2" 1073 1098 basechar 0
AnchorPoint: "Anchor-1" 424 0 basechar 0
AnchorPoint: "Anchor-0" 758 1569 basechar 0
LayerCount: 2
Fore
SplineSet
432 1268 m 1
 512 1346 639 1477 702 1569 c 1
 897 1569 l 1
 920 1477 989 1346 1036 1268 c 1
 1030 1241 l 1
 958 1241 l 1
 890 1286 823 1359 776 1425 c 1
 700 1359 602 1286 514 1241 c 1
 426 1241 l 1
 432 1268 l 1
487 -20 m 0
 268 -20 88 118 88 403 c 0
 88 706 301 1118 698 1118 c 0
 903 1118 997 1022 997 922 c 0
 997 844 932 778 815 778 c 1
 815 909 766 1020 657 1020 c 0
 438 1020 301 608 301 387 c 0
 301 211 379 109 526 109 c 0
 669 109 764 184 821 256 c 1
 833 248 842 228 842 205 c 0
 842 115 733 -20 487 -20 c 0
EndSplineSet
Substitution2: "'smcp' Lowercase to Small Capitals lookup 39 subtable" ccircumflex.sc
Substitution2: "'aalt' Access All Alternates lookup 0 subtable" ccircumflex.sc
EndChar

StartChar: Cdotaccent
Encoding: 266 266 204
Width: 1284
GlyphClass: 2
Flags: HW
AnchorPoint: "Anchor-3" 717 731 basechar 0
AnchorPoint: "Anchor-2" 1438 1462 basechar 0
AnchorPoint: "Anchor-1" 629 0 basechar 0
AnchorPoint: "Anchor-0" 1032 1876 basechar 0
LayerCount: 2
Fore
SplineSet
1030 1640 m 0
 962 1640 915 1677 915 1753 c 0
 915 1839 964 1896 1038 1896 c 0
 1104 1896 1153 1860 1153 1784 c 0
 1153 1678 1089 1640 1030 1640 c 0
672 -20 m 0
 316 -20 106 178 106 528 c 0
 106 1015 440 1483 950 1483 c 0
 1192 1483 1329 1392 1329 1255 c 0
 1329 1157 1247 1096 1128 1096 c 1
 1128 1209 1102 1374 924 1374 c 0
 547 1374 330 875 330 496 c 0
 330 252 452 113 694 113 c 0
 887 113 1003 207 1073 299 c 1
 1089 287 1100 262 1100 231 c 0
 1100 122 973 -20 672 -20 c 0
EndSplineSet
Position2: "'cpsp' Capital Spacing lookup 0 subtable" dx=10 dy=0 dh=20 dv=0
EndChar

StartChar: cdotaccent
Encoding: 267 267 205
Width: 997
GlyphClass: 2
Flags: HW
AnchorPoint: "Anchor-3" 543 549 basechar 0
AnchorPoint: "Anchor-2" 1073 1098 basechar 0
AnchorPoint: "Anchor-1" 424 0 basechar 0
AnchorPoint: "Anchor-0" 752 1538 basechar 0
LayerCount: 2
Fore
SplineSet
762 1303 m 0
 694 1303 647 1339 647 1415 c 0
 647 1501 696 1559 770 1559 c 0
 836 1559 885 1522 885 1446 c 0
 885 1340 821 1303 762 1303 c 0
487 -20 m 0
 268 -20 88 118 88 403 c 0
 88 706 301 1118 698 1118 c 0
 903 1118 997 1022 997 922 c 0
 997 844 932 778 815 778 c 1
 815 909 766 1020 657 1020 c 0
 438 1020 301 608 301 387 c 0
 301 211 379 109 526 109 c 0
 669 109 764 184 821 256 c 1
 833 248 842 228 842 205 c 0
 842 115 733 -20 487 -20 c 0
EndSplineSet
Substitution2: "'smcp' Lowercase to Small Capitals lookup 39 subtable" cdotaccent.sc
Substitution2: "'aalt' Access All Alternates lookup 0 subtable" cdotaccent.sc
EndChar

StartChar: Ccaron
Encoding: 268 268 206
Width: 1284
GlyphClass: 2
Flags: HW
AnchorPoint: "Anchor-3" 717 731 basechar 0
AnchorPoint: "Anchor-2" 1438 1462 basechar 0
AnchorPoint: "Anchor-1" 629 0 basechar 0
AnchorPoint: "Anchor-0" 1038 1907 basechar 0
LayerCount: 2
Fore
SplineSet
1006 1579 m 1
 975 1677 913 1802 866 1880 c 1
 872 1907 l 1
 946 1907 l 1
 1007 1858 1073 1786 1120 1720 c 1
 1196 1786 1303 1860 1391 1907 c 1
 1477 1907 l 1
 1470 1880 l 1
 1390 1802 1276 1679 1200 1579 c 1
 1006 1579 l 1
672 -20 m 0
 316 -20 106 178 106 528 c 0
 106 1015 440 1483 950 1483 c 0
 1192 1483 1329 1392 1329 1255 c 0
 1329 1157 1247 1096 1128 1096 c 1
 1128 1209 1102 1374 924 1374 c 0
 547 1374 330 875 330 496 c 0
 330 252 452 113 694 113 c 0
 887 113 1003 207 1073 299 c 1
 1089 287 1100 262 1100 231 c 0
 1100 122 973 -20 672 -20 c 0
EndSplineSet
Substitution2: "'c2sc' Capitals to Small Capitals lookup 38 subtable" ccaron.sc
Substitution2: "'aalt' Access All Alternates lookup 0 subtable" ccaron.sc
Position2: "'cpsp' Capital Spacing lookup 0 subtable" dx=10 dy=0 dh=20 dv=0
EndChar

StartChar: ccaron
Encoding: 269 269 207
Width: 997
GlyphClass: 2
Flags: HW
AnchorPoint: "Anchor-3" 543 549 basechar 0
AnchorPoint: "Anchor-2" 1073 1098 basechar 0
AnchorPoint: "Anchor-1" 424 0 basechar 0
AnchorPoint: "Anchor-0" 758 1569 basechar 0
LayerCount: 2
Fore
SplineSet
733 1241 m 1
 702 1339 641 1464 594 1542 c 1
 600 1569 l 1
 674 1569 l 1
 735 1520 801 1448 848 1382 c 1
 924 1448 1030 1522 1118 1569 c 1
 1204 1569 l 1
 1198 1542 l 1
 1118 1464 1004 1341 928 1241 c 1
 733 1241 l 1
487 -20 m 0
 268 -20 88 118 88 403 c 0
 88 706 301 1118 698 1118 c 0
 903 1118 997 1022 997 922 c 0
 997 844 932 778 815 778 c 1
 815 909 766 1020 657 1020 c 0
 438 1020 301 608 301 387 c 0
 301 211 379 109 526 109 c 0
 669 109 764 184 821 256 c 1
 833 248 842 228 842 205 c 0
 842 115 733 -20 487 -20 c 0
EndSplineSet
Substitution2: "'smcp' Lowercase to Small Capitals lookup 39 subtable" ccaron.sc
Substitution2: "'aalt' Access All Alternates lookup 0 subtable" ccaron.sc
EndChar

StartChar: Dcaron
Encoding: 270 270 208
Width: 1484
GlyphClass: 2
Flags: HW
AnchorPoint: "Anchor-3" 821 731 basechar 0
AnchorPoint: "Anchor-2" 1638 1462 basechar 0
AnchorPoint: "Anchor-1" 627 0 basechar 0
AnchorPoint: "Anchor-0" 905 1907 basechar 0
LayerCount: 2
Fore
SplineSet
881 1579 m 1
 850 1677 788 1802 741 1880 c 1
 748 1907 l 1
 821 1907 l 1
 882 1858 948 1786 995 1720 c 1
 1071 1786 1178 1860 1266 1907 c 1
 1352 1907 l 1
 1346 1880 l 1
 1266 1802 1151 1679 1075 1579 c 1
 881 1579 l 1
-43 0 m 1
 -27 86 l 1
 0 86 l 2
 92 86 174 104 201 233 c 2
 414 1237 l 2
 418 1255 422 1278 422 1294 c 0
 422 1368 348 1376 274 1376 c 2
 248 1376 l 1
 266 1462 l 1
 840 1462 l 2
 1209 1462 1421 1267 1421 905 c 0
 1421 418 1132 0 602 0 c 2
 -43 0 l 1
557 104 m 2
 960 104 1198 445 1198 928 c 0
 1198 1227 1047 1360 809 1360 c 2
 647 1360 l 1
 379 104 l 1
 557 104 l 2
EndSplineSet
Substitution2: "'c2sc' Capitals to Small Capitals lookup 38 subtable" dcaron.sc
Substitution2: "'aalt' Access All Alternates lookup 0 subtable" dcaron.sc
Position2: "'cpsp' Capital Spacing lookup 0 subtable" dx=10 dy=0 dh=20 dv=0
EndChar

StartChar: dcaron
Encoding: 271 271 209
Width: 1185
GlyphClass: 2
Flags: HW
AnchorPoint: "Anchor-3" 711 549 basechar 0
AnchorPoint: "Anchor-2" 1257 1556 basechar 0
AnchorPoint: "Anchor-1" 477 0 basechar 0
AnchorPoint: "Anchor-0" 809 1556 basechar 0
LayerCount: 2
Fore
SplineSet
1219 1255 m 1
 1260 1345 1304 1458 1339 1556 c 1
 1518 1556 l 1
 1513 1536 l 1
 1460 1450 1358 1315 1284 1229 c 1
 1214 1229 l 1
 1219 1255 l 1
352 -20 m 0
 170 -20 88 141 88 354 c 0
 88 673 309 1118 698 1118 c 0
 776 1118 848 1098 901 1067 c 1
 905 1102 916 1159 922 1184 c 2
 942 1282 l 2
 950 1321 956 1358 956 1374 c 0
 956 1456 891 1470 813 1470 c 2
 797 1470 l 1
 815 1556 l 1
 1192 1556 l 1
 954 440 l 2
 944 395 924 268 924 213 c 0
 924 143 946 109 991 109 c 0
 1036 109 1088 131 1139 162 c 1
 1176 102 l 1
 1117 49 989 -20 887 -20 c 0
 789 -20 727 44 727 150 c 0
 727 185 734 241 748 309 c 1
 735 309 l 1
 641 98 514 -20 352 -20 c 0
426 109 m 0
 567 109 739 354 788 590 c 2
 864 952 l 1
 833 1001 772 1026 709 1026 c 0
 439 1026 297 594 297 346 c 0
 297 176 352 109 426 109 c 0
EndSplineSet
Substitution2: "'smcp' Lowercase to Small Capitals lookup 39 subtable" dcaron.sc
Substitution2: "'aalt' Access All Alternates lookup 0 subtable" dcaron.sc
EndChar

StartChar: Dcroat
Encoding: 272 272 210
Width: 1484
GlyphClass: 2
Flags: HW
AnchorPoint: "Anchor-3" 821 731 basechar 0
AnchorPoint: "Anchor-2" 1638 1462 basechar 0
AnchorPoint: "Anchor-1" 627 0 basechar 0
AnchorPoint: "Anchor-0" 938 1462 basechar 0
LayerCount: 2
Fore
SplineSet
-43 0 m 1
 -27 86 l 1
 0 86 l 2
 92 86 174 104 201 233 c 2
 303 715 l 1
 104 715 l 1
 127 815 l 1
 324 815 l 1
 414 1237 l 2
 418 1255 422 1278 422 1294 c 0
 422 1368 348 1376 274 1376 c 2
 248 1376 l 1
 266 1462 l 1
 840 1462 l 2
 1209 1462 1421 1267 1421 905 c 0
 1421 418 1132 0 602 0 c 2
 -43 0 l 1
557 104 m 2
 960 104 1198 445 1198 928 c 0
 1198 1227 1047 1360 809 1360 c 2
 647 1360 l 1
 530 815 l 1
 877 815 l 1
 854 715 l 1
 510 715 l 1
 379 104 l 1
 557 104 l 2
EndSplineSet
Substitution2: "'c2sc' Capitals to Small Capitals lookup 38 subtable" dcroat.sc
Substitution2: "'aalt' Access All Alternates lookup 0 subtable" dcroat.sc
Position2: "'cpsp' Capital Spacing lookup 0 subtable" dx=10 dy=0 dh=20 dv=0
EndChar

StartChar: dcroat
Encoding: 273 273 211
Width: 1183
GlyphClass: 2
Flags: HW
AnchorPoint: "Anchor-3" 705 768 basechar 0
AnchorPoint: "Anchor-1" 475 0 basechar 0
AnchorPoint: "Anchor-0" 807 1556 basechar 0
LayerCount: 2
Fore
SplineSet
350 -20 m 0
 168 -20 86 141 86 354 c 0
 86 655 303 1075 692 1077 c 0
 770 1077 842 1057 895 1026 c 1
 899 1063 914 1148 926 1214 c 1
 575 1214 l 1
 594 1311 l 1
 944 1311 l 1
 950 1331 l 2
 970 1427 934 1470 811 1470 c 2
 795 1470 l 1
 813 1556 l 1
 1190 1556 l 1
 1137 1311 l 1
 1323 1311 l 1
 1305 1214 l 1
 1116 1214 l 1
 952 440 l 2
 942 395 922 268 922 213 c 0
 922 143 944 109 989 109 c 0
 1034 109 1086 131 1137 162 c 1
 1174 102 l 1
 1115 49 987 -20 885 -20 c 0
 787 -20 725 44 725 150 c 0
 725 185 731 241 745 309 c 1
 733 309 l 1
 639 98 512 -20 350 -20 c 0
424 109 m 0
 565 109 733 354 786 590 c 2
 858 911 l 1
 827 960 765 985 702 985 c 0
 432 983 295 577 295 346 c 0
 295 176 350 109 424 109 c 0
EndSplineSet
Substitution2: "'smcp' Lowercase to Small Capitals lookup 39 subtable" dcroat.sc
Substitution2: "'aalt' Access All Alternates lookup 0 subtable" dcroat.sc
EndChar

StartChar: Emacron
Encoding: 274 274 212
Width: 1275
GlyphClass: 2
Flags: HW
AnchorPoint: "Anchor-3" 627 731 basechar 0
AnchorPoint: "Anchor-2" 1430 1462 basechar 0
AnchorPoint: "Anchor-1" 522 0 basechar 0
AnchorPoint: "Anchor-0" 872 1700 basechar 0
LayerCount: 2
Fore
SplineSet
539 1579 m 1
 565 1700 l 1
 1159 1700 l 1
 1133 1579 l 1
 539 1579 l 1
-43 0 m 1
 -27 86 l 1
 0 86 l 2
 90 86 172 100 199 223 c 2
 412 1229 l 2
 416 1247 418 1264 418 1278 c 0
 418 1364 354 1376 274 1376 c 2
 248 1376 l 1
 266 1462 l 1
 1298 1462 l 1
 1233 1104 l 1
 1126 1104 l 1
 1128 1122 1137 1213 1137 1223 c 0
 1137 1299 1097 1360 991 1360 c 2
 647 1360 l 1
 530 815 l 1
 1024 815 l 1
 1004 715 l 1
 510 715 l 1
 379 102 l 1
 774 102 l 2
 903 102 973 180 1006 270 c 2
 1038 358 l 1
 1145 358 l 1
 1055 0 l 1
 -43 0 l 1
EndSplineSet
Substitution2: "'c2sc' Capitals to Small Capitals lookup 38 subtable" emacron.sc
Substitution2: "'aalt' Access All Alternates lookup 0 subtable" emacron.sc
Position2: "'cpsp' Capital Spacing lookup 0 subtable" dx=10 dy=0 dh=20 dv=0
EndChar

StartChar: emacron
Encoding: 275 275 213
Width: 1009
GlyphClass: 2
Flags: HW
AnchorPoint: "Anchor-3" 528 549 basechar 0
AnchorPoint: "Anchor-2" 1085 1098 basechar 0
AnchorPoint: "Anchor-1" 430 0 basechar 0
AnchorPoint: "Anchor-0" 719 1362 basechar 0
LayerCount: 2
Fore
SplineSet
412 1241 m 1
 438 1362 l 1
 1032 1362 l 1
 1006 1241 l 1
 412 1241 l 1
487 -20 m 0
 268 -20 88 118 88 403 c 0
 88 706 301 1118 698 1118 c 0
 870 1118 971 1030 971 883 c 0
 971 668 719 473 377 473 c 2
 305 473 l 1
 301 442 301 414 301 387 c 0
 301 211 379 109 526 109 c 0
 657 109 764 184 821 256 c 1
 833 248 842 228 842 205 c 0
 842 115 733 -20 487 -20 c 0
344 567 m 2
 584 567 760 695 760 883 c 0
 760 975 717 1020 641 1020 c 0
 485 1020 369 778 324 567 c 1
 344 567 l 2
EndSplineSet
Substitution2: "'smcp' Lowercase to Small Capitals lookup 39 subtable" emacron.sc
Substitution2: "'aalt' Access All Alternates lookup 0 subtable" emacron.sc
EndChar

StartChar: Ebreve
Encoding: 276 276 214
Width: 1275
GlyphClass: 2
Flags: HW
AnchorPoint: "Anchor-3" 627 731 basechar 0
AnchorPoint: "Anchor-2" 1430 1462 basechar 0
AnchorPoint: "Anchor-1" 522 0 basechar 0
AnchorPoint: "Anchor-0" 918 1860 basechar 0
LayerCount: 2
Fore
SplineSet
823 1579 m 0
 659 1579 575 1680 565 1860 c 1
 659 1860 l 1
 669 1766 738 1720 838 1720 c 0
 938 1720 1016 1762 1059 1860 c 1
 1153 1860 l 1
 1116 1706 1001 1579 823 1579 c 0
-43 0 m 1
 -27 86 l 1
 0 86 l 2
 90 86 172 100 199 223 c 2
 412 1229 l 2
 416 1247 418 1264 418 1278 c 0
 418 1364 354 1376 274 1376 c 2
 248 1376 l 1
 266 1462 l 1
 1298 1462 l 1
 1233 1104 l 1
 1126 1104 l 1
 1128 1122 1137 1213 1137 1223 c 0
 1137 1299 1097 1360 991 1360 c 2
 647 1360 l 1
 530 815 l 1
 1024 815 l 1
 1004 715 l 1
 510 715 l 1
 379 102 l 1
 774 102 l 2
 903 102 973 180 1006 270 c 2
 1038 358 l 1
 1145 358 l 1
 1055 0 l 1
 -43 0 l 1
EndSplineSet
Substitution2: "'c2sc' Capitals to Small Capitals lookup 38 subtable" ebreve.sc
Substitution2: "'aalt' Access All Alternates lookup 0 subtable" ebreve.sc
Position2: "'cpsp' Capital Spacing lookup 0 subtable" dx=10 dy=0 dh=20 dv=0
EndChar

StartChar: ebreve
Encoding: 277 277 215
Width: 1009
GlyphClass: 2
Flags: HW
AnchorPoint: "Anchor-3" 528 549 basechar 0
AnchorPoint: "Anchor-2" 1085 1098 basechar 0
AnchorPoint: "Anchor-1" 430 0 basechar 0
AnchorPoint: "Anchor-0" 754 1522 basechar 0
LayerCount: 2
Fore
SplineSet
692 1241 m 0
 528 1241 444 1342 434 1522 c 1
 528 1522 l 1
 538 1428 607 1382 707 1382 c 0
 807 1382 885 1424 928 1522 c 1
 1022 1522 l 1
 985 1368 870 1241 692 1241 c 0
487 -20 m 0
 268 -20 88 118 88 403 c 0
 88 706 301 1118 698 1118 c 0
 870 1118 971 1030 971 883 c 0
 971 668 719 473 377 473 c 2
 305 473 l 1
 301 442 301 414 301 387 c 0
 301 211 379 109 526 109 c 0
 657 109 764 184 821 256 c 1
 833 248 842 228 842 205 c 0
 842 115 733 -20 487 -20 c 0
344 567 m 2
 584 567 760 695 760 883 c 0
 760 975 717 1020 641 1020 c 0
 485 1020 369 778 324 567 c 1
 344 567 l 2
EndSplineSet
Substitution2: "'smcp' Lowercase to Small Capitals lookup 39 subtable" ebreve.sc
Substitution2: "'aalt' Access All Alternates lookup 0 subtable" ebreve.sc
EndChar

StartChar: Edotaccent
Encoding: 278 278 216
Width: 1275
GlyphClass: 2
Flags: HW
AnchorPoint: "Anchor-3" 627 731 basechar 0
AnchorPoint: "Anchor-2" 1430 1462 basechar 0
AnchorPoint: "Anchor-1" 522 0 basechar 0
AnchorPoint: "Anchor-0" 915 1847 basechar 0
LayerCount: 2
Fore
SplineSet
842 1612 m 0
 774 1612 727 1648 727 1724 c 0
 727 1810 776 1868 850 1868 c 0
 916 1868 965 1831 965 1755 c 0
 965 1649 901 1612 842 1612 c 0
-43 0 m 1
 -27 86 l 1
 0 86 l 2
 90 86 172 100 199 223 c 2
 412 1229 l 2
 416 1247 418 1264 418 1278 c 0
 418 1364 354 1376 274 1376 c 2
 248 1376 l 1
 266 1462 l 1
 1298 1462 l 1
 1233 1104 l 1
 1126 1104 l 1
 1128 1122 1137 1213 1137 1223 c 0
 1137 1299 1097 1360 991 1360 c 2
 647 1360 l 1
 530 815 l 1
 1024 815 l 1
 1004 715 l 1
 510 715 l 1
 379 102 l 1
 774 102 l 2
 903 102 973 180 1006 270 c 2
 1038 358 l 1
 1145 358 l 1
 1055 0 l 1
 -43 0 l 1
EndSplineSet
Substitution2: "'c2sc' Capitals to Small Capitals lookup 38 subtable" edotaccent.sc
Substitution2: "'aalt' Access All Alternates lookup 0 subtable" edotaccent.sc
Position2: "'cpsp' Capital Spacing lookup 0 subtable" dx=10 dy=0 dh=20 dv=0
EndChar

StartChar: edotaccent
Encoding: 279 279 217
Width: 1009
GlyphClass: 2
Flags: HW
AnchorPoint: "Anchor-3" 528 549 basechar 0
AnchorPoint: "Anchor-2" 1085 1098 basechar 0
AnchorPoint: "Anchor-1" 430 0 basechar 0
AnchorPoint: "Anchor-0" 758 1538 basechar 0
LayerCount: 2
Fore
SplineSet
723 1303 m 0
 655 1303 608 1339 608 1415 c 0
 608 1501 657 1559 731 1559 c 0
 797 1559 846 1522 846 1446 c 0
 846 1340 782 1303 723 1303 c 0
487 -20 m 0
 268 -20 88 118 88 403 c 0
 88 706 301 1118 698 1118 c 0
 870 1118 971 1030 971 883 c 0
 971 668 719 473 377 473 c 2
 305 473 l 1
 301 442 301 414 301 387 c 0
 301 211 379 109 526 109 c 0
 657 109 764 184 821 256 c 1
 833 248 842 228 842 205 c 0
 842 115 733 -20 487 -20 c 0
344 567 m 2
 584 567 760 695 760 883 c 0
 760 975 717 1020 641 1020 c 0
 485 1020 369 778 324 567 c 1
 344 567 l 2
EndSplineSet
Substitution2: "'smcp' Lowercase to Small Capitals lookup 39 subtable" edotaccent.sc
Substitution2: "'aalt' Access All Alternates lookup 0 subtable" edotaccent.sc
EndChar

StartChar: Eogonek
Encoding: 280 280 218
Width: 1275
GlyphClass: 2
Flags: HW
AnchorPoint: "Anchor-3" 627 731 basechar 0
AnchorPoint: "Anchor-2" 1430 1462 basechar 0
AnchorPoint: "Anchor-1" 418 -492 basechar 0
AnchorPoint: "Anchor-0" 834 1462 basechar 0
LayerCount: 2
Fore
SplineSet
-43 0 m 1
 -27 86 l 1
 0 86 l 2
 90 86 172 100 199 223 c 2
 412 1229 l 2
 416 1247 418 1264 418 1278 c 0
 418 1364 354 1376 274 1376 c 2
 248 1376 l 1
 266 1462 l 1
 1298 1462 l 1
 1233 1104 l 1
 1126 1104 l 1
 1128 1122 1137 1213 1137 1223 c 0
 1137 1299 1097 1360 991 1360 c 2
 647 1360 l 1
 530 815 l 1
 1024 815 l 1
 1004 715 l 1
 510 715 l 1
 379 102 l 1
 774 102 l 2
 903 102 973 180 1006 270 c 2
 1038 358 l 1
 1145 358 l 1
 1055 0 l 1
 952 0 l 1
 858 -29 709 -113 709 -254 c 0
 709 -322 755 -365 825 -365 c 0
 862 -365 907 -358 958 -348 c 1
 934 -459 l 1
 887 -479 829 -492 770 -492 c 0
 620 -492 530 -418 530 -283 c 0
 530 -136 656 -41 836 0 c 1
 -43 0 l 1
EndSplineSet
Substitution2: "'c2sc' Capitals to Small Capitals lookup 38 subtable" eogonek.sc
Substitution2: "'locl' Localized Forms in Latin lookup 6 subtable" Eogonek.loclNAV
AlternateSubs2: "'aalt' Access All Alternates lookup 1 subtable" Eogonek.loclNAV eogonek.sc
Position2: "'cpsp' Capital Spacing lookup 0 subtable" dx=10 dy=0 dh=20 dv=0
EndChar

StartChar: eogonek
Encoding: 281 281 219
Width: 1009
GlyphClass: 2
Flags: HW
AnchorPoint: "Anchor-3" 528 549 basechar 0
AnchorPoint: "Anchor-2" 1085 1098 basechar 0
AnchorPoint: "Anchor-1" 332 -461 basechar 0
AnchorPoint: "Anchor-0" 664 1098 basechar 0
LayerCount: 2
Fore
SplineSet
528 -461 m 0
 378 -461 289 -387 289 -252 c 0
 289 -148 351 -69 451 -18 c 1
 248 -4 88 135 88 403 c 0
 88 706 301 1118 698 1118 c 0
 870 1118 971 1030 971 883 c 0
 971 668 719 473 377 473 c 2
 305 473 l 1
 301 442 301 414 301 387 c 0
 301 211 379 109 526 109 c 0
 657 109 764 184 821 256 c 1
 833 248 842 228 842 205 c 0
 842 135 776 37 631 -2 c 1
 549 -45 467 -119 467 -223 c 0
 467 -291 514 -334 584 -334 c 0
 621 -334 666 -327 717 -317 c 1
 692 -428 l 1
 645 -448 587 -461 528 -461 c 0
344 567 m 2
 584 567 760 695 760 883 c 0
 760 975 717 1020 641 1020 c 0
 485 1020 369 778 324 567 c 1
 344 567 l 2
EndSplineSet
Substitution2: "'smcp' Lowercase to Small Capitals lookup 39 subtable" eogonek.sc
Substitution2: "'locl' Localized Forms in Latin lookup 6 subtable" eogonek.loclNAV
AlternateSubs2: "'aalt' Access All Alternates lookup 1 subtable" eogonek.loclNAV eogonek.sc
EndChar

StartChar: Ecaron
Encoding: 282 282 220
Width: 1275
GlyphClass: 2
Flags: HW
AnchorPoint: "Anchor-3" 627 731 basechar 0
AnchorPoint: "Anchor-2" 1430 1462 basechar 0
AnchorPoint: "Anchor-1" 522 0 basechar 0
AnchorPoint: "Anchor-0" 928 1907 basechar 0
LayerCount: 2
Fore
SplineSet
840 1579 m 1
 809 1677 747 1802 700 1880 c 1
 707 1907 l 1
 780 1907 l 1
 841 1858 907 1786 954 1720 c 1
 1030 1786 1137 1860 1225 1907 c 1
 1311 1907 l 1
 1305 1880 l 1
 1225 1802 1110 1679 1034 1579 c 1
 840 1579 l 1
-43 0 m 1
 -27 86 l 1
 0 86 l 2
 90 86 172 100 199 223 c 2
 412 1229 l 2
 416 1247 418 1264 418 1278 c 0
 418 1364 354 1376 274 1376 c 2
 248 1376 l 1
 266 1462 l 1
 1298 1462 l 1
 1233 1104 l 1
 1126 1104 l 1
 1128 1122 1137 1213 1137 1223 c 0
 1137 1299 1097 1360 991 1360 c 2
 647 1360 l 1
 530 815 l 1
 1024 815 l 1
 1004 715 l 1
 510 715 l 1
 379 102 l 1
 774 102 l 2
 903 102 973 180 1006 270 c 2
 1038 358 l 1
 1145 358 l 1
 1055 0 l 1
 -43 0 l 1
EndSplineSet
Substitution2: "'c2sc' Capitals to Small Capitals lookup 38 subtable" ecaron.sc
Substitution2: "'aalt' Access All Alternates lookup 0 subtable" ecaron.sc
Position2: "'cpsp' Capital Spacing lookup 0 subtable" dx=10 dy=0 dh=20 dv=0
EndChar

